{"glyphs":{"0":{"ha":950,"x_min":86,"x_max":864,"o":"m 86 521 q 116 734 86 636 q 199 906 146 832 q 324 1022 253 981 q 476 1063 394 1063 q 629 1022 558 1063 q 753 907 700 981 q 835 735 806 833 q 864 521 864 636 q 834 307 864 406 q 751 135 804 208 q 627 20 697 61 q 476 -21 557 -21 q 326 20 396 -21 q 201 135 256 61 q 117 308 147 210 q 86 521 86 407 m 250 521 q 276 277 250 386 q 352 105 301 168 q 476 42 403 42 q 601 105 551 42 q 675 277 650 168 q 700 521 700 386 q 676 765 700 657 q 603 937 653 874 q 476 1000 554 1000 q 350 936 400 1000 q 275 764 300 872 q 250 521 250 656 z "},"1":{"ha":506,"x_min":83,"x_max":435,"o":"m 83 25 q 158 64 128 32 q 189 168 189 96 l 189 800 q 163 888 189 850 q 83 932 136 926 l 83 957 q 213 1001 153 975 q 324 1064 274 1028 l 331 1064 l 331 168 q 361 64 331 96 q 435 25 392 32 l 435 0 l 83 0 l 83 25 z "},"2":{"ha":788,"x_min":24,"x_max":739,"o":"m 717 756 q 670 569 717 658 q 549 400 624 481 q 390 248 475 319 q 231 113 306 176 l 376 113 q 578 145 488 113 q 729 244 669 178 l 739 242 l 643 -53 l 636 -53 q 472 0 581 0 l 24 0 l 24 6 l 101 81 q 219 199 157 136 q 342 331 282 263 q 452 468 403 399 q 531 606 501 538 q 560 736 560 674 q 531 840 560 793 q 451 914 501 886 q 335 942 400 942 q 177 884 244 942 q 56 714 110 826 l 29 721 q 99 913 44 838 q 233 1026 154 989 q 397 1063 311 1063 q 558 1024 486 1063 q 674 917 631 986 q 717 756 717 849 z "},"3":{"ha":792,"x_min":15,"x_max":721,"o":"m 356 49 q 518 100 456 49 q 581 247 581 151 q 551 357 581 301 q 457 458 522 413 q 285 525 392 503 l 285 546 q 446 659 393 606 q 499 778 499 713 q 447 900 499 858 q 326 942 394 942 q 194 903 254 942 q 100 778 133 865 l 71 786 q 131 943 85 882 q 242 1033 176 1004 q 382 1063 308 1063 q 502 1037 446 1063 q 593 963 558 1011 q 628 844 628 914 q 583 716 628 781 q 467 607 539 651 q 606 537 549 586 q 692 426 663 488 q 721 307 721 364 q 669 136 721 210 q 532 21 618 63 q 343 -21 446 -21 q 162 5 235 -21 q 52 69 89 31 q 15 143 15 107 q 38 201 15 175 q 104 226 61 226 q 164 201 140 226 q 208 144 188 176 q 240 102 222 125 q 285 64 258 79 q 356 49 313 49 z "},"4":{"ha":869,"x_min":47,"x_max":794,"o":"m 672 168 q 704 64 672 96 q 779 25 736 32 l 779 0 l 426 0 l 426 25 q 501 64 471 32 q 531 168 531 96 l 531 306 l 47 306 l 47 332 l 624 1051 l 672 1051 l 672 419 l 794 419 l 794 306 l 672 306 l 672 168 m 207 419 l 531 419 l 531 825 l 207 419 z "},"5":{"ha":792,"x_min":29,"x_max":726,"o":"m 29 143 q 56 210 29 179 q 125 240 83 240 q 197 210 176 240 q 235 144 218 181 q 277 78 251 108 q 365 49 303 49 q 511 108 451 49 q 571 281 571 168 q 514 460 571 394 q 359 547 457 525 q 139 550 261 569 l 111 554 l 153 1042 l 678 1042 l 660 931 l 214 931 l 194 692 q 410 683 313 707 q 579 606 508 658 q 688 484 650 554 q 726 336 726 414 q 695 199 726 264 q 610 85 664 135 q 488 7 557 35 q 344 -21 419 -21 q 165 4 235 -21 q 63 67 96 29 q 29 143 29 104 z "},"6":{"ha":896,"x_min":85,"x_max":819,"o":"m 457 -21 q 274 26 358 -21 q 138 166 189 72 q 86 400 86 260 q 123 624 85 515 q 239 826 161 733 q 431 983 317 918 q 696 1072 546 1047 l 706 1040 q 466 892 578 997 q 290 638 354 788 q 373 685 328 668 q 469 701 418 701 q 647 652 568 701 q 773 521 726 603 q 819 340 819 439 q 773 160 819 243 q 644 28 726 78 q 457 -21 563 -21 m 244 340 q 298 121 244 200 q 453 42 351 42 q 608 121 556 42 q 660 340 660 200 q 610 560 660 481 q 453 639 560 639 q 297 560 349 639 q 244 340 244 481 z "},"7":{"ha":703,"x_min":-1,"x_max":704,"o":"m 704 1036 l 624 915 q 517 706 560 821 q 447 468 474 590 q 410 226 421 346 q 403 0 400 106 l 249 0 q 275 196 256 92 q 324 408 294 300 q 390 615 353 515 q 470 796 426 714 q 563 931 514 878 l 333 931 q 8 799 125 931 l -1 801 l 94 1094 l 101 1094 q 267 1042 157 1042 l 704 1042 l 704 1036 z "},"8":{"ha":872,"x_min":86,"x_max":786,"o":"m 440 -21 q 309 -1 372 -21 q 196 55 246 19 q 116 138 146 90 q 86 240 86 185 q 124 385 86 326 q 216 479 161 443 q 321 535 271 515 q 199 638 250 579 q 147 788 147 697 q 183 928 147 867 q 284 1026 218 990 q 442 1063 350 1063 q 540 1046 490 1063 q 632 999 590 1029 q 699 926 674 968 q 724 831 724 883 q 690 712 724 763 q 611 628 657 661 q 526 581 565 594 q 651 507 592 546 q 748 416 710 468 q 786 290 786 364 q 738 131 786 201 q 610 19 689 60 q 440 -21 532 -21 m 269 850 q 302 742 269 788 q 387 663 335 697 q 499 596 439 628 q 574 698 550 643 q 599 808 599 753 q 578 902 599 858 q 518 972 558 946 q 417 999 478 999 q 309 958 349 999 q 269 850 269 917 m 208 279 q 234 166 208 221 q 312 76 260 111 q 440 42 364 42 q 561 68 511 42 q 638 137 611 94 q 664 228 664 179 q 636 324 664 283 q 562 397 608 364 q 460 458 515 429 q 351 517 406 486 q 246 413 283 476 q 208 279 208 350 z "},"9":{"ha":896,"x_min":68,"x_max":804,"o":"m 431 1063 q 614 1016 529 1063 q 750 876 699 969 q 801 642 801 783 q 765 418 804 528 q 649 216 726 308 q 456 59 571 124 q 192 -31 342 -6 l 182 1 q 422 149 310 44 q 597 404 533 254 q 515 357 560 374 q 418 340 469 340 q 240 390 319 340 q 115 522 161 439 q 68 701 68 604 q 115 882 68 800 q 243 1013 161 964 q 431 1063 325 1063 m 643 701 q 590 921 643 842 q 435 1000 538 1000 q 280 921 332 1000 q 228 701 228 842 q 278 483 228 563 q 435 403 328 403 q 591 483 539 403 q 643 701 643 563 z "}," ":{"ha":308,"x_min":0,"x_max":0,"o":""},"!":{"ha":557,"x_min":185,"x_max":383,"o":"m 185 957 q 209 1050 185 1010 q 279 1090 233 1090 q 349 1050 326 1090 q 372 957 372 1010 q 354 769 372 868 q 317 556 336 669 q 299 313 299 443 l 258 313 q 240 557 258 444 q 203 769 222 669 q 185 957 185 868 m 185 82 q 212 153 185 125 q 282 182 239 182 q 354 153 325 182 q 383 82 383 125 q 354 13 383 43 q 282 -18 325 -18 q 212 13 239 -18 q 185 82 185 43 z "},"\"":{"ha":490,"x_min":81,"x_max":424,"o":"m 81 1035 q 98 1085 81 1063 q 149 1107 115 1107 q 199 1085 182 1107 q 215 1035 215 1064 q 210 973 215 1000 q 196 916 204 946 q 179 844 188 886 q 164 740 171 803 l 133 740 q 117 844 126 803 q 100 916 108 886 q 86 973 92 946 q 81 1035 81 1000 m 289 1035 q 306 1085 289 1063 q 357 1107 324 1107 q 407 1085 390 1107 q 424 1035 424 1064 q 418 973 424 1000 q 404 916 413 946 q 388 844 396 886 q 372 740 379 803 l 342 740 q 326 844 335 803 q 308 916 317 886 q 294 973 300 946 q 289 1035 289 1000 z "},"#":{"ha":1029,"x_min":56,"x_max":976,"o":"m 56 275 l 56 414 l 306 414 l 372 628 l 139 628 l 139 767 l 415 767 l 500 1042 l 575 1042 l 490 767 l 692 767 l 776 1042 l 851 1042 l 767 767 l 976 767 l 976 628 l 724 628 l 657 414 l 892 414 l 892 275 l 614 275 l 529 0 l 454 0 l 539 275 l 339 275 l 254 0 l 178 0 l 263 275 l 56 275 m 382 414 l 582 414 l 649 628 l 447 628 l 382 414 z "},"$":{"ha":951,"x_min":71,"x_max":851,"o":"m 71 189 q 94 247 71 221 q 161 272 118 272 q 223 249 203 272 q 258 190 243 225 q 294 117 272 154 q 421 53 328 65 l 421 496 q 276 552 344 521 q 163 635 207 583 q 119 771 119 686 q 202 960 119 885 q 421 1051 285 1036 l 421 1167 l 488 1167 l 488 1056 q 647 1031 583 1056 q 742 968 710 1006 q 774 893 774 931 q 750 835 774 861 q 683 810 726 810 q 614 838 638 810 q 568 901 590 867 q 535 947 553 925 q 488 981 517 968 l 488 622 q 616 579 551 603 q 734 522 681 556 q 819 437 788 488 q 851 311 851 386 q 805 151 851 221 q 676 38 758 81 q 488 -14 594 -6 l 488 -125 l 421 -125 l 421 -15 q 226 19 304 -12 q 110 97 149 51 q 71 189 71 143 m 226 822 q 253 742 226 775 q 323 687 279 710 q 421 644 367 664 l 421 993 q 284 947 342 993 q 226 822 226 901 m 506 47 q 627 74 574 46 q 713 151 681 101 q 744 261 744 200 q 708 363 744 324 q 614 428 672 401 q 488 475 556 454 l 488 47 q 506 47 496 47 z "},"%":{"ha":1043,"x_min":54,"x_max":988,"o":"m 274 590 q 164 624 214 590 q 84 710 114 657 q 54 826 54 764 q 83 944 54 890 q 162 1030 113 997 q 274 1063 211 1063 q 384 1030 335 1063 q 462 944 433 997 q 490 826 490 890 q 461 709 490 763 q 383 623 432 656 q 274 590 333 590 m 179 0 l 788 1042 l 863 1042 l 256 0 l 179 0 m 274 644 q 351 692 326 644 q 375 826 375 740 q 351 959 375 911 q 274 1007 326 1007 q 196 959 221 1007 q 171 826 171 911 q 197 692 171 740 q 274 644 222 644 m 769 -21 q 659 12 708 -21 q 581 98 610 44 q 551 215 551 151 q 581 333 551 279 q 660 419 610 386 q 769 451 710 451 q 878 419 829 451 q 958 332 928 386 q 988 215 988 278 q 959 99 988 153 q 881 12 931 44 q 769 -21 832 -21 m 769 35 q 847 83 822 35 q 872 215 872 131 q 847 349 872 301 q 769 397 821 397 q 693 349 718 397 q 668 215 668 301 q 693 83 668 131 q 769 35 718 35 z "},"&":{"ha":1147,"x_min":58,"x_max":1106,"o":"m 771 151 l 688 247 q 549 48 635 117 q 349 -21 464 -21 q 204 15 271 -21 q 98 116 138 51 q 58 265 58 181 q 100 424 58 350 q 210 551 142 497 q 356 632 278 606 q 306 726 321 681 q 292 817 292 771 q 323 938 292 883 q 410 1026 354 993 q 538 1060 465 1060 q 645 1043 594 1060 q 728 997 696 1026 q 761 931 761 968 q 741 876 761 900 q 686 853 721 853 q 640 867 657 853 q 610 903 622 882 q 584 946 597 925 q 550 981 571 967 q 493 996 529 996 q 418 965 453 996 q 383 885 383 933 q 413 794 383 843 q 492 688 442 744 l 704 444 q 799 641 726 569 q 964 713 871 713 q 1053 682 1017 713 q 1089 606 1089 651 q 1068 553 1089 576 q 1015 531 1047 531 q 969 542 986 531 q 940 567 951 553 q 915 592 928 581 q 881 603 901 603 q 800 547 839 603 q 746 399 761 490 l 963 151 q 1044 65 1013 96 q 1106 18 1075 35 l 1106 0 l 782 0 l 782 18 q 814 78 825 42 q 771 151 803 115 m 388 590 q 382 597 385 594 q 229 472 279 551 q 179 297 179 392 q 203 198 179 244 q 272 123 228 151 q 376 94 315 94 q 526 140 461 94 q 654 285 592 185 l 388 590 z "},"'":{"ha":296,"x_min":81,"x_max":215,"o":"m 81 1035 q 98 1085 81 1063 q 149 1107 115 1107 q 199 1085 182 1107 q 215 1035 215 1064 q 210 973 215 1000 q 196 916 204 946 q 179 844 188 886 q 164 740 171 803 l 133 740 q 117 844 126 803 q 100 916 108 886 q 86 973 92 946 q 81 1035 81 1000 z "},"(":{"ha":500,"x_min":64,"x_max":443,"o":"m 435 -183 q 315 -112 379 -165 q 194 24 251 -60 q 101 223 138 108 q 64 478 64 338 q 101 726 64 613 q 194 926 138 839 q 315 1067 251 1013 q 435 1139 379 1121 l 443 1121 q 315 949 368 1053 q 233 722 261 844 q 206 478 206 600 q 233 227 206 349 q 315 5 261 106 q 443 -165 368 -96 l 435 -183 z "},")":{"ha":500,"x_min":57,"x_max":436,"o":"m 65 -183 l 57 -165 q 186 5 133 -96 q 267 227 239 106 q 294 478 294 349 q 267 722 294 600 q 186 949 239 844 q 57 1121 133 1053 l 65 1139 q 185 1067 121 1121 q 306 926 249 1013 q 400 726 364 839 q 436 478 436 613 q 400 223 436 338 q 306 24 364 108 q 185 -112 249 -60 q 65 -183 121 -165 z "},"*":{"ha":783,"x_min":150,"x_max":636,"o":"m 343 560 q 358 638 343 592 q 386 756 372 685 q 297 676 329 713 q 236 624 264 639 q 197 615 218 613 q 163 638 175 617 q 159 678 150 658 q 188 711 168 699 q 263 736 215 726 q 378 769 310 746 q 261 808 308 796 q 186 835 214 819 q 159 866 168 846 q 163 907 150 886 q 196 931 175 929 q 236 921 217 933 q 299 865 265 904 q 388 781 332 826 q 358 903 374 854 q 342 986 342 953 q 355 1025 342 1007 q 392 1043 368 1043 q 428 1026 415 1043 q 442 986 442 1008 q 427 904 442 953 q 401 785 413 856 q 490 864 458 828 q 549 917 522 900 q 590 926 568 928 q 625 901 613 924 q 627 860 636 881 q 599 829 618 840 q 525 804 571 814 q 411 771 479 794 q 522 734 476 744 q 596 708 568 724 q 624 676 615 697 q 622 635 633 656 q 588 612 610 614 q 546 621 567 610 q 489 672 519 636 q 403 756 458 708 q 428 638 414 685 q 443 560 443 592 q 430 519 443 538 q 392 500 417 500 q 356 518 368 500 q 343 560 343 536 z "},"+":{"ha":736,"x_min":69,"x_max":667,"o":"m 69 469 l 69 525 l 347 525 l 347 803 l 403 803 l 403 525 l 667 525 l 667 469 l 403 469 l 403 192 l 347 192 l 347 469 l 69 469 z "},",":{"ha":390,"x_min":93,"x_max":301,"o":"m 301 76 q 257 -54 301 14 q 126 -171 213 -122 l 108 -153 q 178 -72 153 -108 q 215 -1 203 -35 q 128 31 164 1 q 93 104 93 60 q 123 173 93 144 q 196 201 153 201 q 270 165 239 201 q 301 76 301 128 z "},"-":{"ha":476,"x_min":58,"x_max":418,"o":"m 58 358 l 58 442 l 418 497 l 418 414 l 58 358 z "},".":{"ha":390,"x_min":93,"x_max":299,"o":"m 196 -15 q 123 17 153 -15 q 93 93 93 50 q 123 171 93 139 q 196 203 153 203 q 269 171 239 203 q 299 93 299 139 q 269 17 299 50 q 196 -15 239 -15 z "},"/":{"ha":604,"x_min":81,"x_max":524,"o":"m 524 1042 l 156 -146 l 81 -146 l 449 1042 l 524 1042 z "},":":{"ha":411,"x_min":111,"x_max":317,"o":"m 214 513 q 141 545 171 513 q 111 621 111 578 q 141 699 111 667 q 214 731 171 731 q 287 699 257 731 q 317 621 317 667 q 287 545 317 578 q 214 513 257 513 m 214 -15 q 141 17 171 -15 q 111 93 111 50 q 141 171 111 139 q 214 203 171 203 q 287 171 257 203 q 317 93 317 139 q 287 17 317 50 q 214 -15 257 -15 z "},";":{"ha":411,"x_min":111,"x_max":319,"o":"m 319 76 q 275 -54 319 14 q 144 -171 231 -122 l 126 -153 q 196 -72 171 -108 q 233 -1 221 -35 q 147 31 182 1 q 111 104 111 60 q 141 173 111 144 q 214 201 171 201 q 288 165 257 201 q 319 76 319 128 m 214 513 q 141 545 171 513 q 111 621 111 578 q 141 699 111 667 q 214 731 171 731 q 287 699 257 731 q 317 621 317 667 q 287 545 317 578 q 214 513 257 513 z "},"<":{"ha":736,"x_min":69,"x_max":667,"o":"m 667 289 l 667 231 l 69 474 l 69 521 l 667 764 l 667 706 l 150 497 l 667 289 z "},"=":{"ha":736,"x_min":69,"x_max":667,"o":"m 69 608 l 69 664 l 667 664 l 667 608 l 69 608 m 69 331 l 69 386 l 667 386 l 667 331 l 69 331 z "},">":{"ha":736,"x_min":69,"x_max":667,"o":"m 69 289 l 586 497 l 69 706 l 69 764 l 667 521 l 667 474 l 69 231 l 69 289 z "},"?":{"ha":797,"x_min":49,"x_max":718,"o":"m 599 817 q 542 952 599 904 q 403 1000 485 1000 q 308 972 340 1000 q 254 908 276 943 q 208 845 232 874 q 139 817 185 817 q 72 842 96 817 q 49 900 49 868 q 81 975 49 938 q 177 1038 113 1013 q 338 1063 242 1063 q 531 1021 444 1063 q 667 909 617 979 q 718 750 718 839 q 674 597 718 669 q 548 476 629 525 q 357 419 467 428 q 307 375 303 415 l 310 313 l 240 313 l 224 479 q 244 531 221 514 q 307 551 268 549 q 519 634 439 561 q 599 817 599 707 m 282 -18 q 212 13 239 -18 q 185 82 185 43 q 212 153 185 125 q 282 182 239 182 q 354 153 325 182 q 383 82 383 125 q 354 13 383 43 q 282 -18 325 -18 z "},"@":{"ha":1354,"x_min":67,"x_max":1289,"o":"m 67 321 q 115 623 67 485 q 250 863 163 761 q 456 1022 338 965 q 715 1078 575 1078 q 940 1040 836 1078 q 1123 931 1044 1003 q 1245 759 1201 860 q 1289 532 1289 658 q 1270 374 1289 450 q 1215 238 1251 299 q 1127 143 1179 178 q 1007 108 1075 108 q 906 139 951 108 q 839 213 860 169 q 740 138 797 171 q 621 104 682 104 q 503 142 560 104 q 410 244 446 179 q 375 393 375 310 q 402 543 375 474 q 476 665 429 613 q 583 746 524 717 q 708 775 643 775 q 802 758 761 775 q 867 717 843 740 l 943 775 l 961 775 l 961 276 q 990 215 961 239 q 1057 190 1018 190 q 1131 235 1096 190 q 1190 358 1167 281 q 1214 531 1214 435 q 1149 790 1214 682 q 971 957 1083 899 q 715 1015 858 1015 q 512 979 600 1015 q 360 882 424 943 q 256 742 296 821 q 197 578 215 664 q 178 407 178 492 q 244 115 178 239 q 429 -77 310 -10 q 707 -144 549 -144 q 915 -106 813 -144 q 1114 13 1018 -68 l 1126 -1 q 1024 -117 1093 -60 q 857 -212 954 -175 q 640 -250 760 -250 q 418 -210 522 -250 q 235 -97 314 -171 q 111 83 156 -22 q 67 321 67 189 m 835 278 l 835 574 q 803 678 835 638 q 715 718 771 719 q 602 681 650 719 q 528 580 554 643 q 503 440 503 517 q 550 270 504 338 q 681 203 596 203 q 835 278 767 203 z "},"A":{"ha":1011,"x_min":0,"x_max":1010,"o":"m 142 189 l 482 1049 l 531 1049 l 878 192 q 942 75 911 110 q 1010 25 974 40 l 1010 0 l 665 0 l 665 25 q 732 81 708 42 q 726 193 756 121 l 660 360 l 286 360 l 222 190 q 220 112 206 144 q 264 58 235 79 q 319 25 293 36 l 319 0 l 0 0 l 0 25 q 76 81 36 38 q 142 189 115 125 m 313 429 l 633 429 l 468 844 l 313 429 z "},"B":{"ha":992,"x_min":65,"x_max":924,"o":"m 171 861 q 142 948 171 910 q 65 1003 114 986 l 65 1028 q 255 1047 160 1039 q 447 1056 350 1056 q 741 995 638 1056 q 844 836 844 935 q 806 716 844 767 q 707 633 768 665 q 576 585 646 600 q 744 532 665 569 q 874 434 824 494 q 924 289 924 374 q 871 131 924 200 q 717 24 818 63 q 472 -14 617 -14 q 267 -6 367 -14 q 65 14 167 3 l 65 38 q 142 93 114 54 q 171 181 171 132 l 171 861 m 475 993 q 313 861 313 993 l 313 617 l 450 617 q 630 669 561 617 q 699 815 699 721 q 634 947 699 901 q 475 993 569 993 m 313 179 q 496 46 313 46 q 631 75 572 46 q 725 160 690 104 q 760 293 760 215 q 677 485 760 418 q 450 551 594 551 l 313 551 l 313 179 z "},"C":{"ha":972,"x_min":72,"x_max":928,"o":"m 533 -21 q 358 17 442 -21 q 210 126 275 56 q 109 292 146 196 q 72 503 72 388 q 113 722 72 621 q 228 900 154 824 q 399 1019 301 976 q 611 1063 497 1063 q 772 1043 693 1063 q 907 1001 850 1024 l 801 732 l 778 732 q 686 913 754 851 q 519 974 618 974 q 359 925 428 974 q 253 790 290 876 q 215 586 215 703 q 261 343 215 450 q 392 174 307 236 q 593 113 478 113 q 776 168 699 113 q 903 321 853 224 l 928 310 q 847 136 904 211 q 708 20 789 61 q 533 -21 628 -21 z "},"D":{"ha":1089,"x_min":65,"x_max":1017,"o":"m 432 -14 q 306 -10 374 -14 q 176 1 239 -6 q 65 14 114 8 l 65 39 q 142 97 114 54 q 171 196 171 140 l 171 860 q 142 947 171 908 q 65 1003 114 986 l 65 1028 q 225 1047 142 1039 q 415 1056 308 1056 q 741 986 607 1056 q 946 794 875 917 q 1017 513 1017 672 q 969 269 1017 369 q 839 106 921 168 q 652 15 757 43 q 432 -14 547 -14 m 457 51 q 676 94 588 51 q 809 235 764 138 q 854 496 854 333 q 750 858 854 729 q 447 988 646 988 q 345 957 378 988 q 313 861 313 926 l 313 193 q 457 51 313 51 z "},"E":{"ha":983,"x_min":65,"x_max":925,"o":"m 65 1042 l 726 1042 q 778 1049 756 1042 q 811 1067 800 1057 l 831 1067 l 885 779 l 863 776 q 769 900 824 856 q 640 962 714 944 q 469 979 567 979 q 355 947 397 979 q 313 863 313 915 l 313 601 l 571 601 q 694 622 644 601 q 767 706 744 643 l 786 706 l 786 422 l 767 422 q 572 532 713 532 l 313 532 l 313 186 q 355 97 313 131 q 469 63 397 63 q 728 110 624 63 q 906 285 833 158 l 925 283 l 846 -25 l 822 -25 q 787 -5 804 -10 q 743 0 769 0 l 65 0 l 65 25 q 142 76 114 33 q 171 182 171 118 l 171 860 q 142 968 171 925 q 65 1017 114 1011 l 65 1042 z "},"F":{"ha":919,"x_min":65,"x_max":871,"o":"m 65 25 q 142 76 114 33 q 171 182 171 118 l 171 860 q 142 968 171 925 q 65 1017 114 1011 l 65 1042 l 713 1042 q 764 1049 742 1042 q 797 1067 786 1057 l 815 1067 l 871 779 l 849 776 q 703 937 789 894 q 506 979 617 979 q 356 947 399 979 q 313 860 313 914 l 313 600 l 557 600 q 681 622 631 600 q 753 706 731 643 l 772 706 l 772 422 l 753 422 q 558 531 699 531 l 313 531 l 313 182 q 342 76 313 118 q 419 25 371 33 l 419 0 l 65 0 l 65 25 z "},"G":{"ha":1079,"x_min":72,"x_max":1017,"o":"m 600 -14 q 399 17 494 -14 q 231 111 304 47 q 115 275 157 175 q 72 513 72 375 q 135 799 72 675 q 316 992 197 922 q 600 1063 435 1063 q 782 1042 700 1063 q 922 1001 864 1021 l 832 774 l 814 774 q 722 935 793 879 q 544 990 651 990 q 308 867 382 990 q 235 522 235 743 q 327 165 235 278 q 574 51 419 51 q 718 87 667 51 q 769 182 769 122 l 769 429 q 740 536 769 493 q 663 586 711 579 l 663 611 l 1017 611 l 1017 586 q 940 536 968 579 q 911 429 911 493 l 911 182 q 932 83 911 122 q 988 39 953 44 l 988 14 q 865 -1 933 6 q 728 -10 797 -7 q 600 -14 660 -14 z "},"H":{"ha":1118,"x_min":65,"x_max":1053,"o":"m 418 0 l 65 0 l 65 25 q 142 75 114 32 q 171 182 171 118 l 171 860 q 142 967 171 925 q 65 1017 114 1010 l 65 1042 l 418 1042 l 418 1017 q 342 967 371 1010 q 313 860 313 924 l 313 651 l 804 651 l 804 860 q 776 967 804 924 q 700 1017 749 1010 l 700 1042 l 1053 1042 l 1053 1017 q 975 967 1004 1010 q 946 860 946 925 l 946 182 q 975 75 946 118 q 1053 25 1004 32 l 1053 0 l 700 0 l 700 25 q 776 75 749 32 q 804 182 804 118 l 804 582 l 313 582 l 313 182 q 342 75 313 118 q 418 25 371 32 l 418 0 z "},"I":{"ha":485,"x_min":65,"x_max":419,"o":"m 419 0 l 65 0 l 65 25 q 142 75 114 32 q 171 182 171 118 l 171 860 q 142 967 171 925 q 65 1017 114 1010 l 65 1042 l 419 1042 l 419 1017 q 342 967 371 1010 q 313 860 313 925 l 313 182 q 342 75 313 118 q 419 25 371 32 l 419 0 z "},"J":{"ha":701,"x_min":-1,"x_max":650,"o":"m 242 -21 q 103 -1 157 -21 q 24 51 50 19 q -1 114 -1 82 q 22 172 -1 146 q 89 199 46 199 q 155 174 133 199 q 192 118 176 149 q 227 63 208 88 q 285 38 246 38 q 376 92 335 38 q 417 265 417 147 l 417 860 q 388 968 417 925 q 311 1017 360 1011 l 311 1042 l 650 1042 l 650 1017 q 583 969 607 1013 q 558 860 558 926 l 558 265 q 515 106 558 169 q 401 10 472 42 q 242 -21 329 -21 z "},"K":{"ha":1069,"x_min":65,"x_max":1047,"o":"m 418 0 l 65 0 l 65 25 q 142 75 114 32 q 171 182 171 118 l 171 860 q 142 967 171 925 q 65 1017 114 1010 l 65 1042 l 418 1042 l 418 1017 q 342 967 371 1010 q 313 860 313 924 l 313 518 l 679 878 q 715 960 722 919 q 646 1017 708 1000 l 646 1042 l 989 1042 l 989 1017 q 855 944 917 994 q 732 835 793 894 l 561 668 l 907 154 q 967 76 935 111 q 1047 26 999 42 l 1047 0 l 719 0 l 719 26 q 775 72 769 42 q 756 138 781 101 l 457 565 l 313 425 l 313 182 q 342 75 313 118 q 418 25 371 32 l 418 0 z "},"L":{"ha":863,"x_min":65,"x_max":840,"o":"m 658 0 l 65 0 l 65 25 q 142 76 114 33 q 171 182 171 118 l 171 860 q 142 968 171 925 q 65 1017 114 1011 l 65 1042 l 418 1042 l 418 1017 q 342 967 371 1010 q 313 860 313 924 l 313 182 q 347 95 313 128 q 440 63 382 63 q 599 84 531 63 q 721 154 667 106 q 821 285 775 203 l 840 283 l 761 -25 l 736 -25 q 702 -5 719 -10 q 658 0 685 0 z "},"M":{"ha":1418,"x_min":44,"x_max":1374,"o":"m 439 1042 l 704 261 l 993 1042 l 1244 1042 l 1244 1017 q 1167 963 1193 1000 q 1149 881 1142 925 l 1269 140 q 1303 74 1275 106 q 1374 25 1332 42 l 1374 0 l 1036 0 l 1036 25 q 1108 76 1083 44 q 1126 140 1132 107 l 1010 863 l 686 -14 l 649 -14 l 346 871 l 231 172 q 246 83 222 122 q 317 25 269 43 l 317 0 l 44 0 l 44 25 q 117 82 86 42 q 156 172 147 122 l 276 882 q 257 963 283 926 q 179 1017 231 1000 l 179 1042 l 439 1042 z "},"N":{"ha":1060,"x_min":61,"x_max":1014,"o":"m 917 -28 l 893 -28 l 243 869 l 243 196 q 274 81 243 128 q 356 25 304 35 l 356 0 l 61 0 l 61 25 q 141 81 111 35 q 171 196 171 128 l 171 874 q 143 967 171 928 q 67 1017 115 1007 l 67 1042 l 293 1042 l 843 281 l 843 846 q 813 962 843 915 q 735 1017 783 1008 l 735 1042 l 1014 1042 l 1014 1017 q 943 963 969 1010 q 917 846 917 917 l 917 -28 z "},"O":{"ha":1092,"x_min":72,"x_max":1019,"o":"m 72 521 q 108 734 72 636 q 209 906 144 832 q 360 1022 274 981 q 547 1063 447 1063 q 733 1022 647 1063 q 883 907 819 981 q 983 735 947 833 q 1019 521 1019 636 q 983 307 1019 406 q 881 135 946 208 q 731 20 817 61 q 547 -21 646 -21 q 364 20 450 -21 q 212 135 278 61 q 109 308 146 210 q 72 521 72 407 m 236 521 q 272 281 236 388 q 376 111 307 174 q 547 49 446 49 q 717 111 649 49 q 821 281 786 174 q 856 521 856 388 q 822 761 856 654 q 721 931 789 868 q 547 993 653 993 q 373 931 442 993 q 270 761 304 868 q 236 521 236 654 z "},"P":{"ha":971,"x_min":65,"x_max":924,"o":"m 65 1028 q 278 1048 171 1040 q 501 1056 386 1056 q 722 1013 626 1056 q 870 895 817 971 q 924 721 924 819 q 887 560 924 628 q 787 447 850 492 q 642 379 724 401 q 471 357 561 357 q 401 362 444 357 q 313 378 358 367 l 313 182 q 342 76 313 119 q 418 25 371 33 l 418 0 l 65 0 l 65 25 q 142 75 114 32 q 171 182 171 118 l 171 853 q 142 955 171 914 q 65 1003 114 996 l 65 1028 m 313 860 l 313 442 q 460 426 394 426 q 688 495 613 426 q 764 689 764 564 q 725 849 764 781 q 621 956 686 918 q 476 993 556 993 q 356 959 400 993 q 313 860 313 925 z "},"Q":{"ha":1078,"x_min":72,"x_max":1019,"o":"m 72 521 q 108 734 72 636 q 209 906 144 832 q 360 1022 274 981 q 547 1063 447 1063 q 733 1022 647 1063 q 883 907 819 981 q 983 735 947 833 q 1019 521 1019 636 q 956 244 1019 367 q 786 51 892 121 q 865 -65 824 -8 q 951 -171 906 -121 l 939 -183 q 693 4 803 -108 q 547 -21 622 -21 q 364 20 450 -21 q 212 135 278 61 q 109 308 146 210 q 72 521 72 407 m 514 247 l 678 247 q 739 132 708 186 q 826 297 796 196 q 856 521 856 399 q 822 761 856 654 q 721 931 789 868 q 547 993 653 993 q 373 931 442 993 q 270 761 304 868 q 236 521 236 654 q 272 281 236 388 q 376 111 307 174 q 547 49 446 49 q 639 65 596 49 q 514 247 571 147 z "},"R":{"ha":967,"x_min":65,"x_max":1013,"o":"m 65 1028 q 258 1049 156 1042 q 451 1056 361 1056 q 673 1016 579 1056 q 817 906 767 976 q 868 739 868 835 q 828 585 868 650 q 721 479 788 519 q 575 424 654 439 q 696 233 622 328 q 853 56 769 138 q 1013 -81 936 -26 l 1003 -100 q 663 90 815 -43 q 418 414 511 224 q 313 429 363 418 l 313 182 q 342 76 313 119 q 418 25 371 33 l 418 0 l 65 0 l 65 25 q 142 75 114 32 q 171 182 171 118 l 171 853 q 142 955 171 914 q 65 1003 114 996 l 65 1028 m 313 860 l 313 488 q 433 478 379 478 q 640 540 571 478 q 708 717 708 603 q 675 863 708 800 q 587 959 642 925 q 467 993 532 993 q 358 959 403 993 q 313 860 313 925 z "},"S":{"ha":926,"x_min":43,"x_max":851,"o":"m 851 306 q 799 136 851 210 q 654 21 746 63 q 443 -21 563 -21 q 301 -8 375 -21 q 160 26 228 6 q 43 67 93 46 l 151 308 l 175 308 q 281 126 199 194 q 490 57 364 57 q 677 114 610 57 q 744 256 744 171 q 706 363 744 322 q 604 431 667 404 q 471 481 542 458 q 346 524 408 501 q 232 578 283 546 q 150 658 181 610 q 119 778 119 707 q 165 926 119 863 q 294 1026 211 990 q 485 1063 376 1063 q 654 1047 569 1063 q 807 1007 739 1031 l 735 790 l 711 790 q 612 934 686 883 q 432 985 538 985 q 329 966 376 985 q 254 913 282 947 q 226 829 226 878 q 252 747 226 781 q 322 690 278 714 q 420 648 365 667 q 533 610 475 629 q 649 567 593 590 q 751 509 706 543 q 824 426 797 475 q 851 306 851 376 z "},"T":{"ha":928,"x_min":22,"x_max":907,"o":"m 182 1042 l 749 1042 q 799 1049 776 1042 q 833 1067 821 1057 l 851 1067 l 907 779 l 883 776 q 800 899 839 854 q 723 961 761 943 q 639 979 685 979 q 560 958 583 979 q 536 903 536 938 l 536 182 q 565 76 536 118 q 642 25 593 33 l 642 0 l 288 0 l 288 25 q 365 76 336 33 q 394 182 394 118 l 394 903 q 371 958 394 938 q 293 979 347 979 q 208 960 247 979 q 130 898 168 942 q 46 776 92 854 l 22 779 l 78 1067 l 96 1067 q 131 1049 108 1057 q 182 1042 153 1042 z "},"U":{"ha":1071,"x_min":51,"x_max":1019,"o":"m 285 321 q 359 128 285 196 q 561 57 433 60 q 701 85 639 57 q 801 173 764 114 q 838 321 838 232 l 838 832 q 805 956 838 906 q 718 1017 772 1007 l 718 1042 l 1019 1042 l 1019 1017 q 944 959 972 1010 q 915 832 915 908 l 915 321 q 864 130 915 206 q 727 17 813 54 q 538 -21 642 -21 q 336 18 425 -21 q 195 133 247 57 q 143 321 143 210 l 143 860 q 118 969 143 926 q 51 1017 93 1011 l 51 1042 l 389 1042 l 389 1017 q 313 967 342 1010 q 285 860 285 925 l 285 321 z "},"V":{"ha":1011,"x_min":0,"x_max":1010,"o":"m 868 846 l 528 -7 l 479 -7 l 132 843 q 69 957 104 910 q 0 1017 33 1004 l 0 1042 l 344 1042 l 344 1017 q 277 949 293 997 q 283 842 261 901 l 539 203 l 783 844 q 777 944 803 897 q 686 1017 751 990 l 686 1042 l 1010 1042 l 1010 1017 q 933 956 971 1003 q 868 846 894 910 z "},"W":{"ha":1431,"x_min":0,"x_max":1424,"o":"m 1296 846 l 1001 -7 l 951 -7 l 713 699 l 483 -7 l 433 -7 l 132 843 q 69 965 101 928 q 0 1017 36 1003 l 0 1042 l 344 1042 l 344 1017 q 279 958 301 1000 q 283 842 257 915 l 493 239 l 674 814 l 664 843 q 603 965 636 928 q 532 1017 569 1003 l 532 1042 l 876 1042 l 876 1017 q 813 958 835 1000 q 815 842 792 915 l 1015 231 l 1218 844 q 1222 926 1235 892 q 1181 984 1208 961 q 1128 1017 1154 1007 l 1128 1042 l 1424 1042 l 1424 1017 q 1355 957 1392 1006 q 1296 846 1318 908 z "},"X":{"ha":1011,"x_min":-4,"x_max":1007,"o":"m -4 0 l -4 25 q 83 78 32 31 q 186 199 135 125 l 424 540 l 207 854 q 111 968 158 924 q 33 1017 64 1013 l 33 1042 l 406 1042 l 406 1017 q 339 965 347 1010 q 376 854 331 921 l 536 624 l 686 856 q 717 965 729 921 q 644 1017 706 1008 l 644 1042 l 950 1042 l 950 1017 q 865 967 914 1011 q 769 853 815 922 l 579 561 l 829 200 q 931 76 882 124 q 1007 25 979 28 l 1007 0 l 639 0 l 639 25 q 704 81 699 33 q 660 200 710 128 l 467 479 l 271 199 q 229 81 221 128 q 301 25 238 33 l 301 0 l -4 0 z "},"Y":{"ha":950,"x_min":-24,"x_max":958,"o":"m 546 182 q 574 75 546 118 q 650 25 603 32 l 650 0 l 297 0 l 297 25 q 375 75 346 32 q 404 182 404 118 l 404 414 l 142 842 q 57 955 101 907 q -24 1017 13 1003 l -24 1042 l 368 1042 l 368 1017 q 290 945 307 993 q 307 842 272 897 l 515 506 l 717 844 q 719 941 746 893 q 622 1017 693 989 l 622 1042 l 958 1042 l 958 1017 q 880 956 924 1003 q 799 846 836 910 l 546 418 l 546 182 z "},"Z":{"ha":925,"x_min":54,"x_max":888,"o":"m 888 256 l 807 -39 l 785 -39 q 679 0 749 0 l 54 0 l 54 26 l 661 972 l 424 972 q 242 928 318 972 q 90 803 165 885 l 74 807 l 128 1067 l 147 1067 q 187 1047 161 1051 q 243 1042 213 1042 l 854 1042 l 854 1017 l 247 69 l 496 69 q 708 120 621 69 q 865 258 794 171 l 888 256 z "},"[":{"ha":533,"x_min":128,"x_max":464,"o":"m 258 1049 l 258 -90 l 464 -90 l 464 -153 l 128 -153 l 128 1111 l 464 1111 l 464 1049 l 258 1049 z "},"\\":{"ha":604,"x_min":81,"x_max":524,"o":"m 81 1042 l 156 1042 l 524 -146 l 449 -146 l 81 1042 z "},"]":{"ha":533,"x_min":69,"x_max":406,"o":"m 276 1050 l 69 1050 l 69 1111 l 406 1111 l 406 -153 l 69 -153 l 69 -90 l 276 -90 l 276 1050 z "},"^":{"ha":754,"x_min":157,"x_max":603,"o":"z "},"_":{"ha":753,"x_min":58,"x_max":694,"o":"m 58 -169 l 58 -86 l 694 -86 l 694 -169 l 58 -169 z "},"`":{"ha":956,"x_min":306,"x_max":563,"o":"m 418 1078 q 457 1023 440 1054 q 497 947 474 992 q 563 839 521 903 l 547 825 q 449 903 490 872 q 378 955 407 933 q 328 999 349 976 q 307 1049 308 1022 q 328 1093 306 1075 q 376 1105 351 1113 q 418 1078 400 1097 z "},"a":{"ha":793,"x_min":65,"x_max":782,"o":"m 65 150 q 115 278 65 219 q 264 378 165 338 q 508 428 363 418 l 508 588 q 484 652 508 625 q 403 679 460 679 q 331 662 356 679 q 292 619 306 644 q 266 569 278 594 q 235 526 254 543 q 182 508 217 508 q 134 526 153 508 q 115 574 115 544 q 154 649 115 613 q 264 710 193 686 q 428 735 335 735 q 583 699 524 735 q 643 589 643 664 l 643 122 q 658 81 643 96 q 696 67 674 67 q 731 74 711 67 q 768 97 751 82 l 782 81 q 719 11 761 38 q 633 -15 678 -15 q 549 13 589 -15 q 508 104 508 40 q 263 -19 396 -19 q 122 28 178 -19 q 65 150 65 76 m 207 197 q 238 111 207 143 q 319 79 269 79 q 424 101 374 79 q 508 154 475 124 l 508 378 q 276 311 344 356 q 207 197 207 267 z "},"b":{"ha":843,"x_min":43,"x_max":775,"o":"m 225 53 l 149 -14 l 128 -14 l 128 828 q 108 931 128 897 q 43 974 89 964 l 43 999 q 151 1041 103 1014 q 239 1106 200 1068 l 260 1106 l 260 665 q 260 637 260 651 q 258 608 260 622 l 261 607 q 322 667 285 638 q 406 717 360 697 q 500 736 451 736 q 633 694 569 736 q 735 581 696 653 q 775 414 775 508 q 747 247 775 325 q 667 111 718 169 q 549 20 617 53 q 403 -12 481 -12 q 313 3 364 -12 q 225 53 261 18 m 633 361 q 581 551 632 476 q 433 626 529 626 q 342 605 388 626 q 261 543 297 583 l 261 211 q 301 94 261 140 q 410 50 342 49 q 531 92 481 50 q 607 205 581 133 q 633 361 633 276 z "},"c":{"ha":704,"x_min":65,"x_max":660,"o":"m 440 736 q 551 727 499 736 q 647 703 603 718 l 567 494 l 542 494 q 486 619 532 578 q 378 661 440 661 q 239 593 292 661 q 186 415 186 525 q 254 174 186 263 q 432 85 322 85 q 553 126 497 85 q 638 231 608 167 l 660 219 q 601 87 646 140 q 497 6 557 33 q 369 -21 436 -21 q 261 4 315 -21 q 163 76 207 29 q 92 188 118 122 q 65 335 65 253 q 114 537 65 446 q 247 682 163 628 q 440 736 332 736 z "},"d":{"ha":857,"x_min":68,"x_max":801,"o":"m 343 -19 q 210 22 274 -19 q 108 137 147 64 q 68 303 68 210 q 98 470 68 393 q 180 606 128 547 q 303 697 232 664 q 454 729 374 729 q 522 723 490 729 q 581 706 553 717 l 581 828 q 552 931 581 897 q 475 974 524 964 l 475 999 q 696 1106 611 1031 l 715 1106 l 715 229 q 735 127 715 160 q 801 83 756 94 l 801 65 q 696 29 746 51 q 601 -28 646 7 l 582 -28 l 582 51 q 582 80 582 65 q 583 108 582 94 l 581 110 q 519 49 557 79 q 437 0 482 19 q 343 -19 392 -19 m 410 90 q 581 174 506 90 l 581 504 q 545 621 581 575 q 447 665 510 667 q 321 624 374 667 q 240 510 268 581 q 211 356 211 440 q 263 166 213 242 q 410 90 314 90 z "},"e":{"ha":749,"x_min":65,"x_max":685,"o":"m 185 401 q 221 224 185 294 q 315 118 257 153 q 442 83 374 83 q 561 115 507 83 q 651 203 615 146 l 674 190 q 610 78 656 126 q 507 5 565 31 q 388 -21 449 -21 q 234 19 308 -21 q 113 139 160 60 q 65 336 65 218 q 110 537 65 446 q 233 682 156 628 q 408 736 311 736 q 550 699 488 736 q 649 597 613 663 q 685 443 685 531 l 685 406 l 185 406 l 185 401 m 376 667 q 259 619 314 667 q 189 468 204 571 l 549 468 q 527 568 549 524 q 467 640 506 613 q 376 667 428 667 z "},"f":{"ha":522,"x_min":56,"x_max":561,"o":"m 82 25 q 151 71 124 33 q 178 161 178 108 l 178 653 l 56 653 l 56 715 l 178 715 l 178 853 q 211 988 178 932 q 297 1072 244 1043 q 408 1101 350 1101 q 482 1089 447 1101 q 539 1052 517 1076 q 561 994 561 1028 q 544 949 561 968 q 496 929 528 929 q 450 944 467 929 q 422 978 433 958 q 394 1012 410 997 q 351 1026 379 1026 q 294 997 321 1026 q 268 885 268 968 l 268 883 q 276 803 268 842 q 299 740 283 764 q 336 715 314 715 l 472 715 l 472 653 l 313 653 l 313 160 q 342 69 313 106 q 408 25 371 32 l 408 0 l 82 0 l 82 25 z "},"g":{"ha":783,"x_min":33,"x_max":792,"o":"m 375 -299 q 262 -288 321 -299 q 151 -255 203 -278 q 66 -196 99 -232 q 33 -108 33 -160 q 68 -30 33 -65 q 160 31 103 6 q 286 65 217 56 q 205 102 240 81 q 153 158 169 124 l 153 176 q 230 220 193 197 q 299 275 267 243 q 184 317 235 285 q 104 397 133 350 q 75 501 75 444 q 113 616 75 564 q 213 700 150 668 q 351 732 275 732 q 464 712 411 732 q 556 657 517 692 q 629 725 586 699 q 714 751 672 751 q 770 732 749 751 q 792 681 792 713 q 773 634 792 654 q 728 614 754 614 q 690 625 704 614 q 663 647 675 636 q 635 657 651 657 q 585 626 613 657 q 631 501 631 569 q 592 385 631 438 q 492 302 554 333 q 354 271 429 271 q 326 242 339 258 q 314 213 314 226 q 344 178 314 192 q 424 151 375 164 q 528 122 474 138 q 631 82 582 106 q 711 22 681 58 q 742 -69 742 -15 q 690 -192 742 -140 q 555 -271 639 -243 q 375 -299 471 -299 m 206 501 q 244 377 206 424 q 351 331 282 331 q 463 377 425 331 q 500 501 500 424 q 465 626 500 581 q 351 672 429 672 q 242 626 278 672 q 206 501 206 579 m 151 -99 q 220 -199 151 -160 q 399 -235 289 -237 q 518 -217 467 -235 q 599 -172 569 -200 q 628 -111 628 -143 q 589 -35 628 -62 q 490 8 550 -8 q 367 42 431 25 q 151 -99 151 18 z "},"h":{"ha":890,"x_min":57,"x_max":833,"o":"m 63 25 q 126 72 103 36 q 149 168 149 108 l 149 828 q 128 931 149 897 q 57 974 107 964 l 57 999 q 264 1106 182 1031 l 283 1106 l 283 665 q 283 603 283 635 q 281 553 282 571 l 283 551 q 379 637 324 594 q 496 708 435 679 q 611 736 557 736 q 718 688 681 736 q 756 563 756 640 l 756 168 q 776 72 756 108 q 833 25 796 35 l 833 0 l 531 0 l 531 25 q 597 76 575 44 q 619 167 619 108 l 619 499 q 531 614 619 613 q 424 588 488 617 q 283 501 360 560 l 283 167 q 308 76 283 108 q 372 25 332 44 l 372 0 l 63 0 l 63 25 z "},"i":{"ha":435,"x_min":65,"x_max":376,"o":"m 213 872 q 150 900 175 872 q 125 967 125 928 q 150 1034 125 1007 q 213 1061 175 1061 q 277 1034 251 1061 q 303 967 303 1007 q 277 900 303 928 q 213 872 251 872 m 67 0 l 67 24 q 133 71 108 35 q 157 167 157 107 l 157 467 q 140 561 157 519 q 65 613 122 603 l 65 638 q 272 744 190 669 l 292 744 l 292 167 q 315 71 292 107 q 376 24 338 35 l 376 0 l 67 0 z "},"j":{"ha":421,"x_min":-76,"x_max":296,"o":"m 118 967 q 143 1034 118 1007 q 206 1061 168 1061 q 270 1034 244 1061 q 296 967 296 1007 q 270 900 296 928 q 206 872 244 872 q 143 900 168 872 q 118 967 118 928 m -76 -185 q -59 -134 -76 -154 q -12 -114 -42 -114 q 32 -128 15 -114 q 62 -160 49 -142 q 90 -193 75 -179 q 129 -207 106 -207 q 176 -181 158 -207 q 193 -112 193 -156 q 181 -35 193 -74 q 150 33 169 4 l 150 467 q 133 561 150 519 q 58 613 115 603 l 58 638 q 265 744 183 669 l 285 744 l 285 -50 q 254 -180 285 -124 q 175 -267 224 -236 q 74 -299 126 -299 q 3 -285 38 -299 q -54 -245 -32 -271 q -76 -185 -76 -219 z "},"k":{"ha":813,"x_min":57,"x_max":793,"o":"m 283 1106 l 283 374 l 486 572 q 514 643 528 613 q 458 690 500 674 l 458 715 l 743 715 l 743 690 q 658 643 701 676 q 557 554 614 610 l 453 453 l 667 154 q 735 69 700 108 q 793 25 769 29 l 793 0 l 497 0 l 497 25 q 544 69 543 32 q 508 154 544 106 l 357 363 l 283 290 l 283 167 q 306 72 283 108 q 368 25 329 36 l 368 0 l 72 0 l 72 25 q 149 168 149 44 l 149 828 q 128 931 149 897 q 57 974 107 964 l 57 999 q 264 1106 182 1031 l 283 1106 z "},"l":{"ha":426,"x_min":57,"x_max":368,"o":"m 283 1106 l 283 168 q 306 72 283 108 q 368 25 329 36 l 368 0 l 72 0 l 72 25 q 149 168 149 44 l 149 828 q 131 922 149 881 q 57 974 114 963 l 57 999 q 264 1106 182 1031 l 283 1106 z "},"m":{"ha":1321,"x_min":65,"x_max":1263,"o":"m 65 25 q 133 72 108 36 q 157 168 157 108 l 157 467 q 136 569 157 536 q 65 613 115 603 l 65 638 q 272 744 190 669 l 292 744 l 292 665 q 291 603 292 635 q 289 553 290 571 l 292 551 q 381 635 331 593 q 487 707 432 678 q 590 736 542 736 q 700 688 663 736 q 738 563 738 640 l 738 551 q 828 636 776 593 q 935 708 879 679 q 1040 736 990 736 q 1147 688 1110 736 q 1185 563 1185 640 l 1185 168 q 1205 72 1185 108 q 1263 25 1225 35 l 1263 0 l 963 0 l 963 25 q 1028 76 1007 44 q 1050 167 1050 108 l 1050 499 q 961 614 1050 611 q 867 587 921 617 q 738 501 813 557 l 738 168 q 758 72 738 108 q 815 25 779 35 l 815 0 l 515 0 l 515 25 q 581 76 560 44 q 603 167 603 108 l 603 499 q 511 614 603 613 q 419 587 472 617 q 292 501 365 557 l 292 167 q 316 76 292 108 q 381 25 340 44 l 381 0 l 65 0 l 65 25 z "},"n":{"ha":900,"x_min":65,"x_max":842,"o":"m 65 25 q 133 72 108 36 q 157 168 157 108 l 157 467 q 136 569 157 536 q 65 613 115 603 l 65 638 q 272 744 190 669 l 292 744 l 292 665 q 291 603 292 635 q 289 553 290 571 l 292 551 q 387 637 332 594 q 503 708 442 679 q 619 736 564 736 q 726 688 689 736 q 764 563 764 640 l 764 168 q 784 72 764 108 q 842 25 804 35 l 842 0 l 542 0 l 542 25 q 608 76 586 44 q 629 167 629 108 l 629 499 q 608 584 629 556 q 540 614 588 613 q 434 590 494 617 q 292 501 374 563 l 292 167 q 316 76 292 108 q 381 25 340 44 l 381 0 l 65 0 l 65 25 z "},"o":{"ha":824,"x_min":65,"x_max":758,"o":"m 65 360 q 111 553 65 468 q 235 687 157 638 q 411 736 314 736 q 588 688 510 736 q 713 554 667 639 q 758 360 758 469 q 711 164 758 250 q 585 28 664 78 q 411 -21 506 -21 q 238 29 317 -21 q 112 165 158 79 q 65 360 65 251 m 213 360 q 235 196 213 268 q 303 83 258 124 q 411 42 347 42 q 521 83 476 42 q 589 196 565 124 q 613 360 613 268 q 590 522 613 451 q 524 633 568 593 q 411 674 479 674 q 301 633 344 674 q 235 522 257 593 q 213 360 213 451 z "},"p":{"ha":858,"x_min":58,"x_max":790,"o":"m 63 -278 l 63 -253 q 121 -211 99 -243 q 143 -111 143 -179 l 143 467 q 123 569 143 536 q 58 613 103 603 l 58 638 q 257 744 176 668 l 276 744 l 276 665 q 276 637 276 651 q 275 608 276 622 l 278 607 q 339 667 301 638 q 422 717 376 697 q 515 736 468 736 q 648 694 585 736 q 751 581 711 653 q 790 414 790 508 q 760 247 790 325 q 678 111 731 169 q 556 20 626 53 q 404 -12 486 -12 q 338 -6 369 -12 q 278 11 306 1 l 278 -111 q 303 -210 278 -179 q 367 -253 328 -242 l 367 -278 l 63 -278 m 647 361 q 595 551 646 476 q 449 626 544 626 q 359 605 404 626 q 278 543 314 583 l 278 213 q 313 96 278 142 q 411 51 349 50 q 538 93 485 51 q 619 206 590 135 q 647 361 647 276 z "},"q":{"ha":858,"x_min":68,"x_max":804,"o":"m 493 -279 l 493 -254 q 558 -212 533 -243 q 582 -112 582 -181 l 582 51 q 582 80 582 65 q 583 108 582 94 l 581 110 q 519 49 557 79 q 437 0 482 19 q 343 -19 392 -19 q 210 22 274 -19 q 108 137 147 64 q 68 303 68 210 q 99 470 68 393 q 181 606 129 547 q 301 697 233 664 q 440 729 368 729 q 544 710 499 729 q 617 664 590 690 l 701 729 l 722 729 l 722 -112 q 745 -212 722 -181 q 804 -254 768 -244 l 804 -279 l 493 -279 m 410 90 q 581 174 506 90 l 581 504 q 545 621 581 575 q 447 665 510 667 q 321 624 374 667 q 240 510 268 581 q 211 356 211 440 q 263 166 213 242 q 410 90 314 90 z "},"r":{"ha":604,"x_min":65,"x_max":582,"o":"m 292 665 q 291 633 292 650 q 288 606 290 615 l 292 604 q 382 694 331 653 q 489 736 433 736 q 555 710 528 736 q 582 644 582 685 q 558 581 582 606 q 507 557 535 557 q 460 572 478 557 q 426 601 442 586 q 382 615 410 615 q 340 601 360 615 q 292 563 319 588 l 292 168 q 317 78 292 114 q 385 25 342 42 l 385 0 l 65 0 l 65 25 q 135 77 114 40 q 157 168 157 114 l 157 467 q 135 569 157 536 q 65 613 114 603 l 65 638 q 272 744 190 669 l 292 744 l 292 665 z "},"s":{"ha":706,"x_min":51,"x_max":635,"o":"m 635 214 q 595 95 635 149 q 486 11 556 42 q 325 -19 417 -19 q 195 -6 265 -19 q 51 36 125 8 l 131 228 l 147 228 q 195 126 157 165 q 285 69 233 88 q 389 50 338 50 q 500 85 456 50 q 544 167 544 119 q 515 235 544 210 q 438 278 485 261 q 336 310 390 294 q 225 351 279 328 q 136 416 171 375 q 101 525 101 457 q 135 631 101 583 q 231 708 168 679 q 379 736 293 736 q 488 725 426 736 q 593 694 550 714 l 540 521 l 521 521 q 444 631 501 592 q 324 671 386 671 q 229 642 265 671 q 193 572 193 614 q 225 507 193 532 q 308 466 257 482 q 413 432 358 450 q 519 389 468 414 q 602 322 569 364 q 635 214 635 281 z "},"t":{"ha":553,"x_min":22,"x_max":524,"o":"m 142 113 l 142 653 l 22 653 l 22 681 q 149 788 97 729 q 256 918 201 847 l 276 918 l 276 715 l 501 715 l 501 653 l 276 653 l 276 172 q 301 106 276 131 q 367 82 325 82 q 431 94 396 82 q 504 133 465 107 l 524 108 q 424 15 483 51 q 294 -21 364 -21 q 222 -5 257 -21 q 164 41 186 11 q 142 113 142 71 z "},"u":{"ha":871,"x_min":58,"x_max":813,"o":"m 593 51 q 594 115 593 83 q 596 164 594 146 l 593 165 q 501 81 554 124 q 392 9 449 38 q 281 -19 335 -19 q 174 28 211 -19 q 136 154 136 76 l 136 467 q 122 559 136 519 q 58 613 107 599 l 58 638 q 168 680 119 653 q 257 744 217 707 l 271 744 l 271 218 q 292 128 271 158 q 360 96 313 97 q 459 123 404 94 q 593 215 514 151 l 593 453 q 577 557 593 511 q 508 613 561 603 l 508 638 q 713 744 628 669 l 728 744 l 728 236 q 747 134 728 167 q 813 90 767 101 l 813 65 q 707 29 757 51 q 614 -28 657 7 l 593 -28 l 593 51 z "},"v":{"ha":763,"x_min":-7,"x_max":769,"o":"m 653 542 l 397 -14 l 371 -14 l 111 540 q 52 653 75 617 q -7 697 29 689 l -7 715 l 318 715 l 318 697 q 250 643 265 683 q 264 539 235 603 l 424 196 l 572 539 q 581 648 601 604 q 517 697 560 692 l 517 715 l 769 715 l 769 697 q 708 643 738 689 q 653 542 679 597 z "},"w":{"ha":1108,"x_min":-4,"x_max":1113,"o":"m 996 542 l 761 -14 l 735 -14 l 560 417 l 378 -14 l 353 -14 l 114 540 q 56 651 81 618 q -4 697 32 683 l -4 715 l 299 715 l 299 697 q 242 647 256 686 q 258 539 229 607 l 399 206 l 519 517 l 510 540 q 453 652 479 618 q 407 697 428 686 l 407 715 l 696 715 l 696 697 q 643 645 656 686 q 654 539 631 604 l 785 200 l 915 539 q 922 649 940 606 q 860 697 903 692 l 860 715 l 1113 715 l 1113 697 q 1050 640 1081 683 q 996 542 1019 597 z "},"x":{"ha":811,"x_min":32,"x_max":779,"o":"m 32 0 l 32 18 q 82 47 56 26 q 133 92 108 67 q 174 138 158 117 l 333 351 l 160 585 q 101 656 129 626 q 42 697 74 686 l 42 715 l 343 715 l 343 697 q 299 656 301 685 q 328 585 297 626 l 426 451 l 519 586 q 540 657 549 629 q 489 697 531 685 l 489 715 l 736 715 l 736 697 q 661 651 697 685 q 603 585 625 617 l 468 394 l 657 139 q 726 54 701 79 q 779 18 750 29 l 779 0 l 482 0 l 482 18 q 520 60 514 29 q 490 139 526 92 l 374 296 l 258 138 q 240 65 232 101 q 281 18 247 29 l 281 0 l 32 0 z "},"y":{"ha":764,"x_min":-7,"x_max":769,"o":"m 133 -300 q 53 -273 90 -300 q 17 -203 17 -246 q 42 -144 17 -165 q 97 -122 67 -122 q 147 -140 131 -122 q 177 -177 164 -158 q 208 -196 190 -196 q 252 -170 233 -194 q 288 -110 271 -146 q 319 -40 304 -75 l 350 31 l 111 540 q 54 644 79 608 q -7 697 29 679 l -7 715 l 317 715 l 317 697 q 263 539 210 647 l 424 199 l 572 539 q 578 638 596 596 q 517 697 560 681 l 517 715 l 769 715 l 769 697 q 706 634 736 679 q 653 542 675 589 l 374 -74 q 263 -247 319 -194 q 133 -300 207 -300 z "},"z":{"ha":729,"x_min":56,"x_max":690,"o":"m 690 208 l 640 -47 l 617 -47 q 567 -12 592 -24 q 500 0 543 0 l 56 0 l 56 25 l 471 653 l 336 653 q 247 638 285 653 q 174 591 208 624 q 100 503 140 558 l 79 507 l 129 763 l 149 763 q 201 728 175 740 q 269 715 228 715 l 653 715 l 653 690 l 238 63 l 450 63 q 571 96 521 63 q 671 210 621 129 l 690 208 z "},"{":{"ha":515,"x_min":93,"x_max":446,"o":"m 100 29 q 128 131 100 82 q 192 222 156 179 q 256 303 228 265 q 283 372 283 340 q 242 430 283 404 q 93 458 200 456 l 93 519 q 235 563 186 529 q 283 632 283 596 q 256 694 283 663 q 192 762 228 726 q 128 838 156 797 q 100 929 100 879 q 131 1023 100 982 q 217 1088 163 1064 q 339 1111 271 1111 l 446 1111 l 446 1049 l 340 1049 q 254 1026 289 1049 q 219 967 219 1003 q 244 903 219 939 q 301 828 269 868 q 358 747 333 789 q 383 663 383 704 q 344 566 383 607 q 233 501 304 525 l 233 497 q 328 453 296 479 q 372 394 361 428 q 383 315 383 360 q 358 227 383 272 q 301 139 333 182 q 244 58 269 96 q 219 -8 219 21 q 254 -67 219 -43 q 340 -90 289 -90 l 446 -90 l 446 -153 l 339 -153 q 217 -129 271 -153 q 131 -65 163 -106 q 100 29 100 -24 z "},"|":{"ha":604,"x_min":265,"x_max":339,"o":"m 265 1042 l 339 1042 l 339 -146 l 265 -146 l 265 1042 z "},"}":{"ha":515,"x_min":69,"x_max":422,"o":"m 415 29 q 384 -65 415 -24 q 299 -129 353 -106 q 176 -153 246 -153 l 69 -153 l 69 -90 l 175 -90 q 262 -67 228 -90 q 296 -8 296 -43 q 271 58 296 21 q 214 139 246 96 q 157 227 182 182 q 132 315 132 272 q 144 394 132 360 q 188 453 156 428 q 282 497 219 479 l 282 501 q 172 566 211 525 q 132 663 132 607 q 157 747 132 704 q 214 828 182 789 q 271 903 246 868 q 296 967 296 939 q 262 1026 296 1003 q 175 1049 228 1049 l 69 1049 l 69 1111 l 176 1111 q 299 1088 246 1111 q 384 1023 353 1064 q 415 929 415 982 q 388 838 415 879 q 324 762 360 797 q 260 694 288 726 q 232 632 232 663 q 281 563 232 596 q 422 519 329 529 l 422 458 q 274 430 317 456 q 232 372 232 404 q 260 303 232 340 q 324 222 288 265 q 388 131 360 179 q 415 29 415 82 z "},"~":{"ha":754,"x_min":178,"x_max":576,"o":"z "},"¡":{"ha":557,"x_min":157,"x_max":356,"o":"m 356 689 q 328 617 356 646 q 258 589 301 589 q 186 617 215 589 q 157 689 157 646 q 186 759 157 729 q 258 789 215 789 q 328 759 301 789 q 356 689 356 729 m 356 -186 q 331 -278 356 -237 q 261 -319 307 -319 q 191 -278 214 -319 q 168 -186 168 -237 q 187 3 168 -96 q 224 215 206 101 q 242 458 242 328 l 282 458 q 301 215 282 328 q 338 3 319 101 q 356 -186 356 -96 z "},"¢":{"ha":761,"x_min":79,"x_max":703,"o":"m 79 494 q 115 673 79 590 q 215 813 151 756 q 364 894 279 871 l 364 1042 l 428 1042 l 428 906 q 463 907 444 907 q 592 882 540 907 q 671 819 644 857 q 697 744 697 782 q 674 687 697 713 q 607 661 650 661 q 551 690 569 661 q 515 753 532 718 q 481 807 500 782 q 428 840 461 832 l 428 251 q 467 249 447 249 q 591 294 535 249 q 679 408 647 339 l 703 396 q 647 259 688 315 q 549 172 606 203 q 428 135 492 140 l 428 0 l 364 0 l 364 136 q 228 192 293 146 q 121 315 163 238 q 79 494 79 392 m 211 582 q 251 381 211 461 q 364 269 292 301 l 364 839 q 252 753 293 822 q 211 582 211 683 z "},"£":{"ha":886,"x_min":28,"x_max":838,"o":"m 93 603 l 188 603 q 159 678 169 639 q 149 760 149 717 q 197 928 149 861 q 322 1029 244 996 q 489 1063 400 1063 q 665 1031 594 1063 q 771 953 736 1000 q 806 858 806 906 q 782 801 806 826 q 715 775 758 775 q 663 792 682 775 q 633 834 643 808 q 611 888 622 860 q 588 941 601 915 q 548 983 574 967 q 479 1000 522 1000 q 346 946 400 1000 q 292 796 292 892 q 307 703 292 753 q 344 603 322 654 l 601 603 l 601 533 l 374 533 q 428 403 404 467 q 451 286 451 340 q 449 229 451 257 q 525 158 488 193 q 603 99 563 122 q 690 76 643 76 q 765 111 733 76 q 815 199 797 146 l 838 188 q 771 28 824 85 q 636 -28 718 -28 q 504 9 560 -28 q 404 93 449 46 q 322 13 369 39 q 225 -14 274 -14 q 86 33 144 -14 q 28 160 28 79 q 81 289 28 242 q 215 336 133 336 q 299 323 261 336 q 371 289 338 310 q 313 410 357 351 q 228 533 269 468 l 93 533 l 93 603 m 196 268 q 135 242 161 268 q 108 160 108 215 q 142 82 108 113 q 225 51 175 51 q 310 76 276 51 q 360 143 344 100 q 280 230 318 192 q 196 268 242 268 z "},"¥":{"ha":950,"x_min":-24,"x_max":958,"o":"m 174 235 l 174 283 l 404 283 l 404 374 l 174 374 l 174 422 l 399 422 l 142 842 q 57 955 101 907 q -24 1017 13 1003 l -24 1042 l 368 1042 l 368 1017 q 290 945 307 993 q 307 842 272 897 l 515 506 l 717 844 q 719 941 746 893 q 622 1017 693 989 l 622 1042 l 958 1042 l 958 1017 q 880 956 924 1003 q 799 846 836 910 l 549 422 l 844 422 l 844 374 l 546 374 l 546 283 l 844 283 l 844 235 l 546 235 l 546 182 q 574 75 546 118 q 650 25 603 32 l 650 0 l 297 0 l 297 25 q 375 75 346 32 q 404 182 404 118 l 404 235 l 174 235 z "},"¦":{"ha":604,"x_min":265,"x_max":339,"o":"m 265 1042 l 339 1042 l 339 542 l 265 542 l 265 1042 m 265 354 l 339 354 l 339 -146 l 265 -146 l 265 354 z "},"§":{"ha":806,"x_min":46,"x_max":743,"o":"m 364 -151 q 201 -128 264 -151 q 107 -68 138 -104 q 76 4 76 -32 q 98 77 76 44 q 158 110 119 110 q 232 68 206 110 q 264 -36 258 26 q 288 -77 267 -64 q 365 -90 308 -90 q 469 -71 419 -90 q 552 -19 519 -51 q 585 53 585 14 q 557 138 586 107 q 480 186 528 169 q 374 213 432 203 q 259 235 317 224 q 153 265 201 246 q 75 322 104 285 q 46 419 46 358 q 76 534 46 481 q 164 631 107 588 q 126 690 140 656 q 111 774 111 725 q 146 912 111 847 q 246 1016 181 976 q 404 1056 311 1056 q 554 1032 496 1056 q 640 972 613 1008 q 668 900 668 936 q 647 828 668 861 q 586 794 625 794 q 513 836 539 794 q 482 940 486 878 q 463 981 479 968 q 401 994 446 994 q 308 975 354 994 q 233 923 263 956 q 204 851 204 890 q 232 766 203 797 q 309 718 261 735 q 415 691 357 701 q 530 669 472 681 q 636 639 588 658 q 714 583 685 619 q 743 485 743 546 q 713 370 743 424 q 625 274 682 317 q 663 214 649 249 q 678 131 678 179 q 641 -8 678 57 q 534 -112 604 -72 q 364 -151 464 -151 m 151 496 q 181 428 151 451 q 259 392 211 404 q 365 369 307 379 q 479 347 422 360 q 582 306 536 333 q 638 408 638 356 q 608 476 638 453 q 530 513 578 500 q 424 535 482 525 q 310 558 367 544 q 207 599 253 571 q 151 496 151 549 z "},"¨":{"ha":956,"x_min":271,"x_max":688,"o":"m 358 872 q 296 900 321 872 q 271 967 271 928 q 296 1034 271 1007 q 358 1061 321 1061 q 423 1034 397 1061 q 449 967 449 1007 q 423 900 449 928 q 358 872 397 872 m 597 872 q 535 900 560 872 q 510 967 510 928 q 535 1034 510 1007 q 597 1061 560 1061 q 662 1034 636 1061 q 688 967 688 1007 q 662 900 688 928 q 597 872 636 872 z "},"©":{"ha":1224,"x_min":51,"x_max":1174,"o":"m 613 -21 q 388 19 490 -21 q 209 133 285 60 q 92 304 133 206 q 51 519 51 403 q 92 735 51 636 q 209 908 133 835 q 388 1022 285 982 q 613 1063 490 1063 q 838 1022 735 1063 q 1015 908 940 982 q 1132 735 1090 835 q 1174 519 1174 636 q 1132 304 1174 403 q 1015 133 1090 206 q 838 19 940 60 q 613 -21 735 -21 m 613 21 q 818 59 725 21 q 978 165 911 97 q 1081 324 1044 233 q 1118 519 1118 414 q 1081 716 1118 625 q 978 876 1044 807 q 818 983 911 944 q 613 1021 725 1021 q 406 983 499 1021 q 245 876 313 944 q 142 716 178 807 q 106 519 106 625 q 142 324 106 414 q 245 165 178 233 q 406 59 313 97 q 613 21 499 21 m 672 917 q 792 902 733 917 q 893 871 850 888 l 814 671 l 796 671 q 727 805 778 760 q 603 850 676 850 q 438 771 500 850 q 376 561 376 692 q 410 380 376 460 q 508 253 444 300 q 658 207 572 207 q 794 249 736 207 q 889 364 853 292 l 908 356 q 847 226 890 282 q 744 139 804 169 q 614 108 685 108 q 444 158 522 108 q 317 297 365 208 q 269 499 269 385 q 300 663 269 586 q 385 796 331 739 q 514 885 440 853 q 672 917 588 917 z "},"«":{"ha":803,"x_min":79,"x_max":719,"o":"m 389 85 l 129 303 q 81 385 79 344 q 129 464 83 425 l 389 685 l 407 669 l 226 386 l 226 381 l 407 99 l 389 85 m 701 85 l 442 303 q 394 385 392 344 q 442 464 396 425 l 701 685 l 719 669 l 540 386 l 540 381 l 719 99 l 701 85 z "},"®":{"ha":528,"x_min":36,"x_max":493,"o":"m 265 621 q 147 650 199 621 q 66 729 96 679 q 36 842 36 779 q 66 955 36 906 q 147 1033 96 1004 q 265 1063 199 1063 q 383 1033 332 1063 q 464 955 435 1004 q 493 842 493 906 q 464 729 493 779 q 383 650 435 679 q 265 621 332 621 m 265 649 q 333 660 301 649 q 388 690 364 671 q 310 738 344 706 q 254 814 275 769 q 228 818 239 815 l 228 757 q 254 718 228 722 l 254 713 l 167 713 l 167 718 q 193 757 193 722 l 193 921 q 186 946 193 936 q 167 957 179 956 l 167 964 q 215 969 190 967 q 261 971 239 971 q 336 949 308 971 q 364 893 364 928 q 342 842 364 861 q 292 817 321 822 q 340 747 310 781 q 394 696 371 714 q 456 842 456 753 q 432 938 456 894 q 366 1008 408 982 q 265 1035 324 1035 q 164 1008 207 1035 q 97 938 121 982 q 74 842 74 894 q 97 745 74 789 q 164 675 121 701 q 265 649 207 649 m 228 922 l 228 832 q 257 829 246 829 q 325 888 325 829 q 307 937 325 918 q 265 956 289 956 q 239 947 250 956 q 228 922 228 938 z "},"¯":{"ha":956,"x_min":257,"x_max":701,"o":"m 257 875 l 257 944 l 701 944 l 701 875 l 257 875 z "},"°":{"ha":528,"x_min":64,"x_max":465,"o":"m 265 621 q 161 650 207 621 q 90 729 115 679 q 64 842 64 779 q 90 955 64 906 q 161 1033 115 1004 q 265 1063 207 1063 q 369 1033 324 1063 q 440 955 414 1004 q 465 842 465 906 q 440 729 465 779 q 369 650 414 679 q 265 621 324 621 m 265 669 q 371 721 332 669 q 410 842 410 772 q 371 963 410 911 q 265 1014 332 1014 q 158 963 197 1014 q 119 842 119 911 q 158 721 119 772 q 265 669 197 669 z "},"´":{"ha":956,"x_min":396,"x_max":653,"o":"m 540 1078 q 583 1105 558 1097 q 631 1093 608 1113 q 651 1049 653 1075 q 631 999 650 1022 q 581 955 610 976 q 510 903 551 933 q 411 825 468 872 l 396 839 q 461 947 438 903 q 501 1023 485 992 q 540 1078 518 1054 z "},"¶":{"ha":976,"x_min":53,"x_max":911,"o":"m 489 -153 q 351 -133 406 -153 q 272 -81 297 -112 q 246 -18 246 -50 q 269 40 246 14 q 336 67 293 67 q 401 43 379 67 q 438 -11 422 19 q 474 -68 454 -42 q 532 -94 493 -94 q 623 -40 582 -94 q 664 133 664 15 l 664 378 q 576 363 619 368 q 506 357 532 357 q 335 379 417 357 q 190 447 253 401 q 90 560 126 492 q 53 721 53 628 q 106 895 53 819 q 255 1013 160 971 q 475 1056 350 1056 q 698 1048 590 1056 q 911 1028 806 1040 l 911 1003 q 834 955 863 996 q 806 853 806 914 l 806 133 q 763 -26 806 38 q 648 -121 719 -89 q 489 -153 576 -153 z "},"·":{"ha":457,"x_min":93,"x_max":299,"o":"m 196 276 q 123 309 153 276 q 93 385 93 342 q 123 463 93 431 q 196 494 153 494 q 269 463 239 494 q 299 385 299 431 q 269 309 299 342 q 196 276 239 276 z "},"¸":{"ha":956,"x_min":319,"x_max":625,"o":"m 422 -132 l 456 28 l 503 24 l 489 -57 q 588 -92 551 -62 q 625 -171 625 -122 q 601 -242 625 -210 q 540 -294 578 -275 q 457 -312 501 -312 q 358 -291 397 -312 q 319 -236 319 -269 q 332 -198 319 -215 q 371 -181 344 -181 q 411 -194 394 -181 q 432 -228 428 -207 q 443 -261 435 -254 q 465 -268 451 -268 q 513 -253 493 -268 q 533 -204 533 -239 q 506 -151 533 -167 q 439 -132 478 -135 l 422 -132 z "},"»":{"ha":803,"x_min":83,"x_max":724,"o":"m 414 85 l 396 99 l 576 381 l 576 386 l 396 669 l 414 685 l 674 464 q 722 385 719 425 q 674 303 724 344 l 414 85 m 101 85 l 83 99 l 263 381 l 263 386 l 83 669 l 101 685 l 361 464 q 409 385 407 425 q 361 303 411 344 l 101 85 z "},"¿":{"ha":840,"x_min":86,"x_max":756,"o":"m 522 789 q 592 759 565 789 q 619 689 619 729 q 592 617 619 646 q 522 589 565 589 q 450 617 479 589 q 421 689 421 646 q 450 759 421 729 q 522 789 479 789 m 206 -46 q 263 -181 206 -133 q 401 -229 319 -229 q 496 -201 464 -229 q 550 -137 528 -172 q 596 -74 572 -103 q 665 -46 619 -46 q 732 -72 708 -46 q 756 -129 756 -97 q 724 -204 756 -167 q 628 -267 692 -242 q 467 -292 564 -292 q 274 -250 361 -292 q 137 -137 188 -208 q 86 21 86 -67 q 131 174 86 101 q 256 294 175 246 q 447 351 338 343 q 497 396 501 356 l 494 458 l 564 458 l 581 292 q 560 240 583 257 q 497 219 538 222 q 285 138 365 210 q 206 -46 206 65 z "},"À":{"ha":1011,"x_min":0,"x_max":1010,"o":"m 142 189 l 482 1049 l 531 1049 l 878 192 q 942 75 911 110 q 1010 25 974 40 l 1010 0 l 665 0 l 665 25 q 732 81 708 42 q 726 193 756 121 l 660 360 l 286 360 l 222 190 q 220 112 206 144 q 264 58 235 79 q 319 25 293 36 l 319 0 l 0 0 l 0 25 q 76 81 36 38 q 142 189 115 125 m 313 429 l 633 429 l 468 844 l 313 429 m 444 1369 q 483 1315 467 1346 q 524 1239 500 1283 q 589 1131 547 1194 l 574 1117 q 475 1194 517 1164 q 404 1247 433 1225 q 354 1290 375 1268 q 333 1340 335 1314 q 354 1385 332 1367 q 402 1397 378 1404 q 444 1369 426 1389 z "},"Á":{"ha":1011,"x_min":0,"x_max":1010,"o":"m 142 189 l 482 1049 l 531 1049 l 878 192 q 942 75 911 110 q 1010 25 974 40 l 1010 0 l 665 0 l 665 25 q 732 81 708 42 q 726 193 756 121 l 660 360 l 286 360 l 222 190 q 220 112 206 144 q 264 58 235 79 q 319 25 293 36 l 319 0 l 0 0 l 0 25 q 76 81 36 38 q 142 189 115 125 m 313 429 l 633 429 l 468 844 l 313 429 m 567 1369 q 610 1397 585 1389 q 657 1385 635 1404 q 678 1340 679 1367 q 657 1290 676 1314 q 607 1247 636 1268 q 536 1194 578 1225 q 438 1117 494 1164 l 422 1131 q 488 1239 464 1194 q 528 1315 511 1283 q 567 1369 544 1346 z "},"Â":{"ha":1011,"x_min":0,"x_max":1010,"o":"m 142 189 l 482 1049 l 531 1049 l 878 192 q 942 75 911 110 q 1010 25 974 40 l 1010 0 l 665 0 l 665 25 q 732 81 708 42 q 726 193 756 121 l 660 360 l 286 360 l 222 190 q 220 112 206 144 q 264 58 235 79 q 319 25 293 36 l 319 0 l 0 0 l 0 25 q 76 81 36 38 q 142 189 115 125 m 313 429 l 633 429 l 468 844 l 313 429 m 285 1124 l 440 1364 q 481 1392 454 1386 q 533 1390 507 1397 q 571 1364 558 1383 l 731 1124 l 718 1115 l 510 1265 l 501 1265 l 297 1115 l 285 1124 z "},"Ã":{"ha":1011,"x_min":0,"x_max":1010,"o":"m 142 189 l 482 1049 l 531 1049 l 878 192 q 942 75 911 110 q 1010 25 974 40 l 1010 0 l 665 0 l 665 25 q 732 81 708 42 q 726 193 756 121 l 660 360 l 286 360 l 222 190 q 220 112 206 144 q 264 58 235 79 q 319 25 293 36 l 319 0 l 0 0 l 0 25 q 76 81 36 38 q 142 189 115 125 m 313 429 l 633 429 l 468 844 l 313 429 m 576 1144 q 523 1158 547 1144 q 479 1190 499 1172 q 441 1222 460 1208 q 403 1236 422 1236 q 355 1211 375 1236 q 322 1153 335 1186 l 306 1157 q 346 1295 313 1249 q 432 1342 379 1342 q 485 1328 461 1342 q 528 1295 508 1314 q 567 1263 549 1276 q 607 1249 586 1249 q 657 1270 635 1249 q 688 1335 679 1292 l 704 1331 q 663 1192 697 1239 q 576 1144 629 1144 z "},"Ä":{"ha":1011,"x_min":0,"x_max":1010,"o":"m 142 189 l 482 1049 l 531 1049 l 878 192 q 942 75 911 110 q 1010 25 974 40 l 1010 0 l 665 0 l 665 25 q 732 81 708 42 q 726 193 756 121 l 660 360 l 286 360 l 222 190 q 220 112 206 144 q 264 58 235 79 q 319 25 293 36 l 319 0 l 0 0 l 0 25 q 76 81 36 38 q 142 189 115 125 m 313 429 l 633 429 l 468 844 l 313 429 m 385 1164 q 322 1192 347 1164 q 297 1258 297 1219 q 322 1326 297 1299 q 385 1353 347 1353 q 449 1326 424 1353 q 475 1258 475 1299 q 449 1192 475 1219 q 385 1164 424 1164 m 624 1164 q 561 1192 586 1164 q 536 1258 536 1219 q 561 1326 536 1299 q 624 1353 586 1353 q 688 1326 663 1353 q 714 1258 714 1299 q 688 1192 714 1219 q 624 1164 663 1164 z "},"Å":{"ha":1011,"x_min":0,"x_max":1010,"o":"m 142 189 l 482 1049 l 531 1049 l 878 192 q 942 75 911 110 q 1010 25 974 40 l 1010 0 l 665 0 l 665 25 q 732 81 708 42 q 726 193 756 121 l 660 360 l 286 360 l 222 190 q 220 112 206 144 q 264 58 235 79 q 319 25 293 36 l 319 0 l 0 0 l 0 25 q 76 81 36 38 q 142 189 115 125 m 313 429 l 633 429 l 468 844 l 313 429 m 329 1285 q 352 1367 329 1329 q 415 1428 375 1406 q 506 1451 456 1451 q 595 1428 556 1451 q 658 1368 635 1406 q 681 1285 681 1331 q 657 1202 681 1240 q 594 1141 633 1164 q 506 1118 554 1118 q 417 1141 457 1118 q 353 1202 376 1164 q 329 1285 329 1240 m 431 1285 q 449 1194 431 1226 q 506 1161 468 1161 q 561 1194 543 1161 q 579 1285 579 1226 q 561 1374 579 1342 q 506 1407 543 1407 q 449 1374 467 1407 q 431 1285 431 1342 z "},"Æ":{"ha":1424,"x_min":-71,"x_max":1365,"o":"m -71 0 l -71 25 q 17 80 -31 40 q 94 175 64 119 l 535 982 q 450 1017 499 1010 l 450 1042 l 1167 1042 q 1218 1049 1196 1042 q 1251 1067 1240 1057 l 1271 1067 l 1325 779 l 1303 776 q 1209 900 1264 856 q 1081 962 1154 944 q 910 979 1007 979 q 795 947 838 979 q 753 863 753 915 l 753 601 l 1011 601 q 1135 622 1085 601 q 1207 706 1185 643 l 1226 706 l 1226 422 l 1207 422 q 1013 532 1153 532 l 753 532 l 753 186 q 795 97 753 131 q 910 63 838 63 q 1169 110 1064 63 q 1346 285 1274 158 l 1365 283 l 1286 -25 l 1263 -25 q 1227 -5 1244 -10 q 1183 0 1210 0 l 506 0 l 506 25 q 583 76 554 33 q 611 182 611 118 l 611 304 l 251 304 l 183 176 q 178 109 164 139 q 224 58 193 79 q 282 25 254 36 l 282 0 l -71 0 m 611 804 q 583 924 611 872 l 289 374 l 611 374 l 611 804 z "},"Ç":{"ha":972,"x_min":72,"x_max":928,"o":"m 533 -21 q 358 17 442 -21 q 210 126 275 56 q 109 292 146 196 q 72 503 72 388 q 113 722 72 621 q 228 900 154 824 q 399 1019 301 976 q 611 1063 497 1063 q 772 1043 693 1063 q 907 1001 850 1024 l 801 732 l 778 732 q 686 913 754 851 q 519 974 618 974 q 359 925 428 974 q 253 790 290 876 q 215 586 215 703 q 261 343 215 450 q 392 174 307 236 q 593 113 478 113 q 776 168 699 113 q 903 321 853 224 l 928 310 q 847 136 904 211 q 708 20 789 61 q 533 -21 628 -21 m 463 -132 l 496 28 l 543 24 l 529 -57 q 628 -92 592 -62 q 665 -171 665 -122 q 642 -242 665 -210 q 580 -294 618 -275 q 497 -312 542 -312 q 399 -291 438 -312 q 360 -236 360 -269 q 372 -198 360 -215 q 411 -181 385 -181 q 451 -194 435 -181 q 472 -228 468 -207 q 483 -261 475 -254 q 506 -268 492 -268 q 553 -253 533 -268 q 574 -204 574 -239 q 546 -151 574 -167 q 479 -132 518 -135 l 463 -132 z "},"È":{"ha":983,"x_min":65,"x_max":925,"o":"m 65 1042 l 726 1042 q 778 1049 756 1042 q 811 1067 800 1057 l 831 1067 l 885 779 l 863 776 q 769 900 824 856 q 640 962 714 944 q 469 979 567 979 q 355 947 397 979 q 313 863 313 915 l 313 601 l 571 601 q 694 622 644 601 q 767 706 744 643 l 786 706 l 786 422 l 767 422 q 572 532 713 532 l 313 532 l 313 186 q 355 97 313 131 q 469 63 397 63 q 728 110 624 63 q 906 285 833 158 l 925 283 l 846 -25 l 822 -25 q 787 -5 804 -10 q 743 0 769 0 l 65 0 l 65 25 q 142 76 114 33 q 171 182 171 118 l 171 860 q 142 968 171 925 q 65 1017 114 1011 l 65 1042 m 431 1369 q 469 1315 453 1346 q 510 1239 486 1283 q 575 1131 533 1194 l 560 1117 q 461 1194 503 1164 q 390 1247 419 1225 q 340 1290 361 1268 q 319 1340 321 1314 q 340 1385 318 1367 q 388 1397 364 1404 q 431 1369 413 1389 z "},"É":{"ha":983,"x_min":65,"x_max":925,"o":"m 65 1042 l 726 1042 q 778 1049 756 1042 q 811 1067 800 1057 l 831 1067 l 885 779 l 863 776 q 769 900 824 856 q 640 962 714 944 q 469 979 567 979 q 355 947 397 979 q 313 863 313 915 l 313 601 l 571 601 q 694 622 644 601 q 767 706 744 643 l 786 706 l 786 422 l 767 422 q 572 532 713 532 l 313 532 l 313 186 q 355 97 313 131 q 469 63 397 63 q 728 110 624 63 q 906 285 833 158 l 925 283 l 846 -25 l 822 -25 q 787 -5 804 -10 q 743 0 769 0 l 65 0 l 65 25 q 142 76 114 33 q 171 182 171 118 l 171 860 q 142 968 171 925 q 65 1017 114 1011 l 65 1042 m 553 1369 q 596 1397 571 1389 q 643 1385 621 1404 q 664 1340 665 1367 q 643 1290 663 1314 q 593 1247 622 1268 q 522 1194 564 1225 q 424 1117 481 1164 l 408 1131 q 474 1239 450 1194 q 514 1315 497 1283 q 553 1369 531 1346 z "},"Ê":{"ha":983,"x_min":65,"x_max":925,"o":"m 65 1042 l 726 1042 q 778 1049 756 1042 q 811 1067 800 1057 l 831 1067 l 885 779 l 863 776 q 769 900 824 856 q 640 962 714 944 q 469 979 567 979 q 355 947 397 979 q 313 863 313 915 l 313 601 l 571 601 q 694 622 644 601 q 767 706 744 643 l 786 706 l 786 422 l 767 422 q 572 532 713 532 l 313 532 l 313 186 q 355 97 313 131 q 469 63 397 63 q 728 110 624 63 q 906 285 833 158 l 925 283 l 846 -25 l 822 -25 q 787 -5 804 -10 q 743 0 769 0 l 65 0 l 65 25 q 142 76 114 33 q 171 182 171 118 l 171 860 q 142 968 171 925 q 65 1017 114 1011 l 65 1042 m 271 1124 l 426 1364 q 467 1392 440 1386 q 519 1390 493 1397 q 557 1364 544 1383 l 717 1124 l 704 1115 l 496 1265 l 488 1265 l 283 1115 l 271 1124 z "},"Ë":{"ha":983,"x_min":65,"x_max":925,"o":"m 65 1042 l 726 1042 q 778 1049 756 1042 q 811 1067 800 1057 l 831 1067 l 885 779 l 863 776 q 769 900 824 856 q 640 962 714 944 q 469 979 567 979 q 355 947 397 979 q 313 863 313 915 l 313 601 l 571 601 q 694 622 644 601 q 767 706 744 643 l 786 706 l 786 422 l 767 422 q 572 532 713 532 l 313 532 l 313 186 q 355 97 313 131 q 469 63 397 63 q 728 110 624 63 q 906 285 833 158 l 925 283 l 846 -25 l 822 -25 q 787 -5 804 -10 q 743 0 769 0 l 65 0 l 65 25 q 142 76 114 33 q 171 182 171 118 l 171 860 q 142 968 171 925 q 65 1017 114 1011 l 65 1042 m 371 1164 q 308 1192 333 1164 q 283 1258 283 1219 q 308 1326 283 1299 q 371 1353 333 1353 q 435 1326 410 1353 q 461 1258 461 1299 q 435 1192 461 1219 q 371 1164 410 1164 m 610 1164 q 547 1192 572 1164 q 522 1258 522 1219 q 547 1326 522 1299 q 610 1353 572 1353 q 674 1326 649 1353 q 700 1258 700 1299 q 674 1192 700 1219 q 610 1164 649 1164 z "},"Ì":{"ha":485,"x_min":65,"x_max":419,"o":"m 419 0 l 65 0 l 65 25 q 142 75 114 32 q 171 182 171 118 l 171 860 q 142 967 171 925 q 65 1017 114 1010 l 65 1042 l 419 1042 l 419 1017 q 342 967 371 1010 q 313 860 313 925 l 313 182 q 342 75 313 118 q 419 25 371 32 l 419 0 m 182 1369 q 221 1315 204 1346 q 261 1239 238 1283 q 326 1131 285 1194 l 311 1117 q 213 1194 254 1164 q 142 1247 171 1225 q 92 1290 113 1268 q 71 1340 72 1314 q 92 1385 69 1367 q 140 1397 115 1404 q 182 1369 164 1389 z "},"Í":{"ha":485,"x_min":65,"x_max":419,"o":"m 419 0 l 65 0 l 65 25 q 142 75 114 32 q 171 182 171 118 l 171 860 q 142 967 171 925 q 65 1017 114 1010 l 65 1042 l 419 1042 l 419 1017 q 342 967 371 1010 q 313 860 313 925 l 313 182 q 342 75 313 118 q 419 25 371 32 l 419 0 m 304 1369 q 347 1397 322 1389 q 394 1385 372 1404 q 415 1340 417 1367 q 394 1290 414 1314 q 344 1247 374 1268 q 274 1194 315 1225 q 175 1117 232 1164 l 160 1131 q 225 1239 201 1194 q 265 1315 249 1283 q 304 1369 282 1346 z "},"Î":{"ha":485,"x_min":22,"x_max":468,"o":"m 419 0 l 65 0 l 65 25 q 142 75 114 32 q 171 182 171 118 l 171 860 q 142 967 171 925 q 65 1017 114 1010 l 65 1042 l 419 1042 l 419 1017 q 342 967 371 1010 q 313 860 313 925 l 313 182 q 342 75 313 118 q 419 25 371 32 l 419 0 m 22 1124 l 178 1364 q 218 1392 192 1386 q 270 1390 244 1397 q 308 1364 296 1383 l 468 1124 l 456 1115 l 247 1265 l 239 1265 l 35 1115 l 22 1124 z "},"Ï":{"ha":485,"x_min":35,"x_max":451,"o":"m 419 0 l 65 0 l 65 25 q 142 75 114 32 q 171 182 171 118 l 171 860 q 142 967 171 925 q 65 1017 114 1010 l 65 1042 l 419 1042 l 419 1017 q 342 967 371 1010 q 313 860 313 925 l 313 182 q 342 75 313 118 q 419 25 371 32 l 419 0 m 122 1164 q 60 1192 85 1164 q 35 1258 35 1219 q 60 1326 35 1299 q 122 1353 85 1353 q 187 1326 161 1353 q 213 1258 213 1299 q 187 1192 213 1219 q 122 1164 161 1164 m 361 1164 q 299 1192 324 1164 q 274 1258 274 1219 q 299 1326 274 1299 q 361 1353 324 1353 q 426 1326 400 1353 q 451 1258 451 1299 q 426 1192 451 1219 q 361 1164 400 1164 z "},"Ð":{"ha":1089,"x_min":32,"x_max":1017,"o":"m 432 -14 q 306 -10 374 -14 q 176 1 239 -6 q 65 14 114 8 l 65 39 q 142 97 114 54 q 171 196 171 140 l 171 582 l 32 582 l 32 651 l 171 651 l 171 860 q 142 947 171 908 q 65 1003 114 986 l 65 1028 q 225 1047 142 1039 q 415 1056 308 1056 q 741 986 607 1056 q 946 794 875 917 q 1017 513 1017 672 q 969 269 1017 369 q 839 106 921 168 q 652 15 757 43 q 432 -14 547 -14 m 457 51 q 676 94 588 51 q 809 235 764 138 q 854 496 854 333 q 750 858 854 729 q 447 988 646 988 q 345 957 378 988 q 313 861 313 926 l 313 651 l 599 651 l 599 582 l 313 582 l 313 193 q 457 51 313 51 z "},"Ñ":{"ha":1060,"x_min":61,"x_max":1014,"o":"m 917 -28 l 893 -28 l 243 869 l 243 196 q 274 81 243 128 q 356 25 304 35 l 356 0 l 61 0 l 61 25 q 141 81 111 35 q 171 196 171 128 l 171 874 q 143 967 171 928 q 67 1017 115 1007 l 67 1042 l 293 1042 l 843 281 l 843 846 q 813 962 843 915 q 735 1017 783 1008 l 735 1042 l 1014 1042 l 1014 1017 q 943 963 969 1010 q 917 846 917 917 l 917 -28 m 601 1144 q 548 1158 572 1144 q 504 1190 524 1172 q 466 1222 485 1208 q 428 1236 447 1236 q 380 1211 400 1236 q 347 1153 360 1186 l 331 1157 q 371 1295 338 1249 q 457 1342 404 1342 q 510 1328 486 1342 q 553 1295 533 1314 q 592 1263 574 1276 q 632 1249 611 1249 q 682 1270 660 1249 q 713 1335 704 1292 l 729 1331 q 688 1192 722 1239 q 601 1144 654 1144 z "},"Ò":{"ha":1092,"x_min":72,"x_max":1019,"o":"m 72 521 q 108 734 72 636 q 209 906 144 832 q 360 1022 274 981 q 547 1063 447 1063 q 733 1022 647 1063 q 883 907 819 981 q 983 735 947 833 q 1019 521 1019 636 q 983 307 1019 406 q 881 135 946 208 q 731 20 817 61 q 547 -21 646 -21 q 364 20 450 -21 q 212 135 278 61 q 109 308 146 210 q 72 521 72 407 m 236 521 q 272 281 236 388 q 376 111 307 174 q 547 49 446 49 q 717 111 649 49 q 821 281 786 174 q 856 521 856 388 q 822 761 856 654 q 721 931 789 868 q 547 993 653 993 q 373 931 442 993 q 270 761 304 868 q 236 521 236 654 m 485 1369 q 524 1315 507 1346 q 564 1239 540 1283 q 629 1131 588 1194 l 614 1117 q 515 1194 557 1164 q 444 1247 474 1225 q 394 1290 415 1268 q 374 1340 375 1314 q 394 1385 372 1367 q 442 1397 418 1404 q 485 1369 467 1389 z "},"Ó":{"ha":1092,"x_min":72,"x_max":1019,"o":"m 72 521 q 108 734 72 636 q 209 906 144 832 q 360 1022 274 981 q 547 1063 447 1063 q 733 1022 647 1063 q 883 907 819 981 q 983 735 947 833 q 1019 521 1019 636 q 983 307 1019 406 q 881 135 946 208 q 731 20 817 61 q 547 -21 646 -21 q 364 20 450 -21 q 212 135 278 61 q 109 308 146 210 q 72 521 72 407 m 236 521 q 272 281 236 388 q 376 111 307 174 q 547 49 446 49 q 717 111 649 49 q 821 281 786 174 q 856 521 856 388 q 822 761 856 654 q 721 931 789 868 q 547 993 653 993 q 373 931 442 993 q 270 761 304 868 q 236 521 236 654 m 607 1369 q 650 1397 625 1389 q 697 1385 675 1404 q 718 1340 719 1367 q 697 1290 717 1314 q 647 1247 676 1268 q 576 1194 618 1225 q 478 1117 535 1164 l 463 1131 q 528 1239 504 1194 q 568 1315 551 1283 q 607 1369 585 1346 z "},"Ô":{"ha":1092,"x_min":72,"x_max":1019,"o":"m 72 521 q 108 734 72 636 q 209 906 144 832 q 360 1022 274 981 q 547 1063 447 1063 q 733 1022 647 1063 q 883 907 819 981 q 983 735 947 833 q 1019 521 1019 636 q 983 307 1019 406 q 881 135 946 208 q 731 20 817 61 q 547 -21 646 -21 q 364 20 450 -21 q 212 135 278 61 q 109 308 146 210 q 72 521 72 407 m 236 521 q 272 281 236 388 q 376 111 307 174 q 547 49 446 49 q 717 111 649 49 q 821 281 786 174 q 856 521 856 388 q 822 761 856 654 q 721 931 789 868 q 547 993 653 993 q 373 931 442 993 q 270 761 304 868 q 236 521 236 654 m 325 1124 l 481 1364 q 521 1392 494 1386 q 573 1390 547 1397 q 611 1364 599 1383 l 771 1124 l 758 1115 l 550 1265 l 542 1265 l 338 1115 l 325 1124 z "},"Õ":{"ha":1092,"x_min":72,"x_max":1019,"o":"m 72 521 q 108 734 72 636 q 209 906 144 832 q 360 1022 274 981 q 547 1063 447 1063 q 733 1022 647 1063 q 883 907 819 981 q 983 735 947 833 q 1019 521 1019 636 q 983 307 1019 406 q 881 135 946 208 q 731 20 817 61 q 547 -21 646 -21 q 364 20 450 -21 q 212 135 278 61 q 109 308 146 210 q 72 521 72 407 m 236 521 q 272 281 236 388 q 376 111 307 174 q 547 49 446 49 q 717 111 649 49 q 821 281 786 174 q 856 521 856 388 q 822 761 856 654 q 721 931 789 868 q 547 993 653 993 q 373 931 442 993 q 270 761 304 868 q 236 521 236 654 m 617 1144 q 563 1158 588 1144 q 519 1190 539 1172 q 481 1222 500 1208 q 443 1236 463 1236 q 395 1211 415 1236 q 363 1153 375 1186 l 346 1157 q 386 1295 353 1249 q 472 1342 419 1342 q 525 1328 501 1342 q 569 1295 549 1314 q 608 1263 589 1276 q 647 1249 626 1249 q 697 1270 675 1249 q 728 1335 719 1292 l 744 1331 q 703 1192 738 1239 q 617 1144 669 1144 z "},"Ö":{"ha":1092,"x_min":72,"x_max":1019,"o":"m 72 521 q 108 734 72 636 q 209 906 144 832 q 360 1022 274 981 q 547 1063 447 1063 q 733 1022 647 1063 q 883 907 819 981 q 983 735 947 833 q 1019 521 1019 636 q 983 307 1019 406 q 881 135 946 208 q 731 20 817 61 q 547 -21 646 -21 q 364 20 450 -21 q 212 135 278 61 q 109 308 146 210 q 72 521 72 407 m 236 521 q 272 281 236 388 q 376 111 307 174 q 547 49 446 49 q 717 111 649 49 q 821 281 786 174 q 856 521 856 388 q 822 761 856 654 q 721 931 789 868 q 547 993 653 993 q 373 931 442 993 q 270 761 304 868 q 236 521 236 654 m 425 1164 q 363 1192 388 1164 q 338 1258 338 1219 q 363 1326 338 1299 q 425 1353 388 1353 q 490 1326 464 1353 q 515 1258 515 1299 q 490 1192 515 1219 q 425 1164 464 1164 m 664 1164 q 601 1192 626 1164 q 576 1258 576 1219 q 601 1326 576 1299 q 664 1353 626 1353 q 728 1326 703 1353 q 754 1258 754 1299 q 728 1192 754 1219 q 664 1164 703 1164 z "},"×":{"ha":736,"x_min":139,"x_max":610,"o":"m 139 296 l 336 493 l 139 689 l 178 728 l 375 532 l 571 728 l 610 689 l 414 493 l 600 306 l 561 267 l 375 454 l 178 257 l 139 296 z "},"Ø":{"ha":1092,"x_min":72,"x_max":1019,"o":"m 72 521 q 108 734 72 636 q 209 906 144 832 q 360 1022 274 981 q 547 1063 447 1063 q 660 1049 604 1063 l 686 1139 l 761 1139 l 728 1024 q 880 910 814 985 q 983 737 946 836 q 1019 521 1019 638 q 983 307 1019 406 q 881 135 946 208 q 731 20 817 61 q 547 -21 646 -21 q 425 -3 485 -21 l 393 -111 l 318 -111 l 358 24 q 209 138 274 64 q 108 309 144 211 q 72 521 72 407 m 236 521 q 273 275 236 385 q 382 107 310 165 l 639 978 q 547 993 596 993 q 373 931 442 993 q 270 761 304 868 q 236 521 236 654 m 856 521 q 818 774 856 663 q 704 944 781 886 l 446 68 q 547 49 493 49 q 717 111 649 49 q 821 281 786 174 q 856 521 856 388 z "},"Ù":{"ha":1071,"x_min":51,"x_max":1019,"o":"m 285 321 q 359 128 285 196 q 561 57 433 60 q 701 85 639 57 q 801 173 764 114 q 838 321 838 232 l 838 832 q 805 956 838 906 q 718 1017 772 1007 l 718 1042 l 1019 1042 l 1019 1017 q 944 959 972 1010 q 915 832 915 908 l 915 321 q 864 130 915 206 q 727 17 813 54 q 538 -21 642 -21 q 336 18 425 -21 q 195 133 247 57 q 143 321 143 210 l 143 860 q 118 969 143 926 q 51 1017 93 1011 l 51 1042 l 389 1042 l 389 1017 q 313 967 342 1010 q 285 860 285 925 l 285 321 m 503 1369 q 542 1315 525 1346 q 582 1239 558 1283 q 647 1131 606 1194 l 632 1117 q 533 1194 575 1164 q 463 1247 492 1225 q 413 1290 433 1268 q 392 1340 393 1314 q 413 1385 390 1367 q 460 1397 436 1404 q 503 1369 485 1389 z "},"Ú":{"ha":1071,"x_min":51,"x_max":1019,"o":"m 285 321 q 359 128 285 196 q 561 57 433 60 q 701 85 639 57 q 801 173 764 114 q 838 321 838 232 l 838 832 q 805 956 838 906 q 718 1017 772 1007 l 718 1042 l 1019 1042 l 1019 1017 q 944 959 972 1010 q 915 832 915 908 l 915 321 q 864 130 915 206 q 727 17 813 54 q 538 -21 642 -21 q 336 18 425 -21 q 195 133 247 57 q 143 321 143 210 l 143 860 q 118 969 143 926 q 51 1017 93 1011 l 51 1042 l 389 1042 l 389 1017 q 313 967 342 1010 q 285 860 285 925 l 285 321 m 625 1369 q 668 1397 643 1389 q 715 1385 693 1404 q 736 1340 738 1367 q 715 1290 735 1314 q 665 1247 694 1268 q 594 1194 636 1225 q 496 1117 553 1164 l 481 1131 q 546 1239 522 1194 q 586 1315 569 1283 q 625 1369 603 1346 z "},"Û":{"ha":1071,"x_min":51,"x_max":1019,"o":"m 285 321 q 359 128 285 196 q 561 57 433 60 q 701 85 639 57 q 801 173 764 114 q 838 321 838 232 l 838 832 q 805 956 838 906 q 718 1017 772 1007 l 718 1042 l 1019 1042 l 1019 1017 q 944 959 972 1010 q 915 832 915 908 l 915 321 q 864 130 915 206 q 727 17 813 54 q 538 -21 642 -21 q 336 18 425 -21 q 195 133 247 57 q 143 321 143 210 l 143 860 q 118 969 143 926 q 51 1017 93 1011 l 51 1042 l 389 1042 l 389 1017 q 313 967 342 1010 q 285 860 285 925 l 285 321 m 343 1124 l 499 1364 q 539 1392 513 1386 q 591 1390 565 1397 q 629 1364 617 1383 l 789 1124 l 776 1115 l 568 1265 l 560 1265 l 356 1115 l 343 1124 z "},"Ü":{"ha":1071,"x_min":51,"x_max":1019,"o":"m 285 321 q 359 128 285 196 q 561 57 433 60 q 701 85 639 57 q 801 173 764 114 q 838 321 838 232 l 838 832 q 805 956 838 906 q 718 1017 772 1007 l 718 1042 l 1019 1042 l 1019 1017 q 944 959 972 1010 q 915 832 915 908 l 915 321 q 864 130 915 206 q 727 17 813 54 q 538 -21 642 -21 q 336 18 425 -21 q 195 133 247 57 q 143 321 143 210 l 143 860 q 118 969 143 926 q 51 1017 93 1011 l 51 1042 l 389 1042 l 389 1017 q 313 967 342 1010 q 285 860 285 925 l 285 321 m 443 1164 q 381 1192 406 1164 q 356 1258 356 1219 q 381 1326 356 1299 q 443 1353 406 1353 q 508 1326 482 1353 q 533 1258 533 1299 q 508 1192 533 1219 q 443 1164 482 1164 m 682 1164 q 619 1192 644 1164 q 594 1258 594 1219 q 619 1326 594 1299 q 682 1353 644 1353 q 747 1326 721 1353 q 772 1258 772 1299 q 747 1192 772 1219 q 682 1164 721 1164 z "},"Ý":{"ha":950,"x_min":-24,"x_max":958,"o":"m 546 182 q 574 75 546 118 q 650 25 603 32 l 650 0 l 297 0 l 297 25 q 375 75 346 32 q 404 182 404 118 l 404 414 l 142 842 q 57 955 101 907 q -24 1017 13 1003 l -24 1042 l 368 1042 l 368 1017 q 290 945 307 993 q 307 842 272 897 l 515 506 l 717 844 q 719 941 746 893 q 622 1017 693 989 l 622 1042 l 958 1042 l 958 1017 q 880 956 924 1003 q 799 846 836 910 l 546 418 l 546 182 m 564 1369 q 607 1397 582 1389 q 654 1385 632 1404 q 675 1340 676 1367 q 654 1290 674 1314 q 604 1247 633 1268 q 533 1194 575 1225 q 435 1117 492 1164 l 419 1131 q 485 1239 461 1194 q 525 1315 508 1283 q 564 1369 542 1346 z "},"Þ":{"ha":976,"x_min":65,"x_max":924,"o":"m 65 25 q 142 75 114 32 q 171 182 171 118 l 171 860 q 142 968 171 925 q 65 1017 114 1011 l 65 1042 l 418 1042 l 418 1017 q 345 974 376 1010 q 314 888 314 939 l 314 883 q 407 888 360 886 q 501 889 454 889 q 722 847 626 889 q 870 728 817 804 q 924 554 924 653 q 887 393 924 461 q 787 280 850 325 q 642 213 724 235 q 471 190 561 190 q 401 196 444 190 q 313 211 357 201 l 313 182 q 342 76 313 119 q 418 25 371 33 l 418 0 l 65 0 l 65 25 m 764 522 q 725 682 764 614 q 621 788 686 750 q 476 826 556 826 q 356 792 400 826 q 313 693 313 758 l 313 275 q 390 264 353 268 q 460 260 426 260 q 688 328 613 260 q 764 522 764 397 z "},"ß":{"ha":951,"x_min":82,"x_max":900,"o":"m 82 0 l 82 18 q 151 66 124 26 q 178 161 178 106 l 178 756 q 200 880 178 818 q 263 991 222 942 q 361 1070 304 1040 q 488 1100 418 1100 q 606 1073 554 1100 q 688 1003 658 1046 q 717 910 717 960 q 697 897 717 910 q 649 860 678 883 q 590 804 619 836 q 540 735 560 772 q 521 656 521 697 q 550 574 521 606 q 625 519 579 542 q 719 472 671 497 q 806 419 765 450 q 874 344 847 389 q 900 228 900 299 q 865 102 900 158 q 774 13 831 46 q 650 -19 717 -19 q 544 -3 594 -19 q 460 44 493 14 q 428 118 428 75 q 446 167 428 150 q 493 185 464 185 q 549 165 528 185 q 588 117 569 144 q 629 70 606 90 q 690 50 653 50 q 781 89 744 50 q 818 181 818 128 q 796 260 818 229 q 738 313 774 292 q 661 354 703 335 q 563 406 611 378 q 483 482 515 435 q 451 608 451 529 q 475 727 451 676 q 534 818 499 778 q 607 892 569 858 q 569 988 607 950 q 471 1026 532 1026 q 348 958 382 1026 q 314 736 314 889 l 314 160 q 335 68 314 103 q 382 18 356 33 l 382 0 l 82 0 z "},"à":{"ha":793,"x_min":65,"x_max":782,"o":"m 65 150 q 115 278 65 219 q 264 378 165 338 q 508 428 363 418 l 508 588 q 484 652 508 625 q 403 679 460 679 q 331 662 356 679 q 292 619 306 644 q 266 569 278 594 q 235 526 254 543 q 182 508 217 508 q 134 526 153 508 q 115 574 115 544 q 154 649 115 613 q 264 710 193 686 q 428 735 335 735 q 583 699 524 735 q 643 589 643 664 l 643 122 q 658 81 643 96 q 696 67 674 67 q 731 74 711 67 q 768 97 751 82 l 782 81 q 719 11 761 38 q 633 -15 678 -15 q 549 13 589 -15 q 508 104 508 40 q 263 -19 396 -19 q 122 28 178 -19 q 65 150 65 76 m 207 197 q 238 111 207 143 q 319 79 269 79 q 424 101 374 79 q 508 154 475 124 l 508 378 q 276 311 344 356 q 207 197 207 267 m 329 1078 q 368 1023 351 1054 q 408 947 385 992 q 474 839 432 903 l 458 825 q 360 903 401 872 q 289 955 318 933 q 239 999 260 976 q 218 1049 219 1022 q 239 1093 217 1075 q 287 1105 263 1113 q 329 1078 311 1097 z "},"á":{"ha":793,"x_min":65,"x_max":782,"o":"m 65 150 q 115 278 65 219 q 264 378 165 338 q 508 428 363 418 l 508 588 q 484 652 508 625 q 403 679 460 679 q 331 662 356 679 q 292 619 306 644 q 266 569 278 594 q 235 526 254 543 q 182 508 217 508 q 134 526 153 508 q 115 574 115 544 q 154 649 115 613 q 264 710 193 686 q 428 735 335 735 q 583 699 524 735 q 643 589 643 664 l 643 122 q 658 81 643 96 q 696 67 674 67 q 731 74 711 67 q 768 97 751 82 l 782 81 q 719 11 761 38 q 633 -15 678 -15 q 549 13 589 -15 q 508 104 508 40 q 263 -19 396 -19 q 122 28 178 -19 q 65 150 65 76 m 207 197 q 238 111 207 143 q 319 79 269 79 q 424 101 374 79 q 508 154 475 124 l 508 378 q 276 311 344 356 q 207 197 207 267 m 451 1078 q 494 1105 469 1097 q 542 1093 519 1113 q 563 1049 564 1075 q 542 999 561 1022 q 492 955 521 976 q 421 903 463 933 q 322 825 379 872 l 307 839 q 372 947 349 903 q 413 1023 396 992 q 451 1078 429 1054 z "},"â":{"ha":793,"x_min":65,"x_max":782,"o":"m 65 150 q 115 278 65 219 q 264 378 165 338 q 508 428 363 418 l 508 588 q 484 652 508 625 q 403 679 460 679 q 331 662 356 679 q 292 619 306 644 q 266 569 278 594 q 235 526 254 543 q 182 508 217 508 q 134 526 153 508 q 115 574 115 544 q 154 649 115 613 q 264 710 193 686 q 428 735 335 735 q 583 699 524 735 q 643 589 643 664 l 643 122 q 658 81 643 96 q 696 67 674 67 q 731 74 711 67 q 768 97 751 82 l 782 81 q 719 11 761 38 q 633 -15 678 -15 q 549 13 589 -15 q 508 104 508 40 q 263 -19 396 -19 q 122 28 178 -19 q 65 150 65 76 m 207 197 q 238 111 207 143 q 319 79 269 79 q 424 101 374 79 q 508 154 475 124 l 508 378 q 276 311 344 356 q 207 197 207 267 m 169 832 l 325 1072 q 365 1100 339 1094 q 417 1099 392 1106 q 456 1072 443 1092 l 615 832 l 603 824 l 394 974 l 386 974 l 182 824 l 169 832 z "},"ã":{"ha":793,"x_min":65,"x_max":782,"o":"m 65 150 q 115 278 65 219 q 264 378 165 338 q 508 428 363 418 l 508 588 q 484 652 508 625 q 403 679 460 679 q 331 662 356 679 q 292 619 306 644 q 266 569 278 594 q 235 526 254 543 q 182 508 217 508 q 134 526 153 508 q 115 574 115 544 q 154 649 115 613 q 264 710 193 686 q 428 735 335 735 q 583 699 524 735 q 643 589 643 664 l 643 122 q 658 81 643 96 q 696 67 674 67 q 731 74 711 67 q 768 97 751 82 l 782 81 q 719 11 761 38 q 633 -15 678 -15 q 549 13 589 -15 q 508 104 508 40 q 263 -19 396 -19 q 122 28 178 -19 q 65 150 65 76 m 207 197 q 238 111 207 143 q 319 79 269 79 q 424 101 374 79 q 508 154 475 124 l 508 378 q 276 311 344 356 q 207 197 207 267 m 461 853 q 408 867 432 853 q 364 899 383 881 q 326 931 344 917 q 288 944 307 944 q 240 919 260 944 q 207 861 219 894 l 190 865 q 231 1003 197 957 q 317 1050 264 1050 q 369 1036 346 1050 q 413 1003 393 1022 q 452 971 433 985 q 492 957 471 957 q 542 978 519 957 q 572 1043 564 1000 l 589 1039 q 548 900 582 947 q 461 853 514 853 z "},"ä":{"ha":793,"x_min":65,"x_max":782,"o":"m 65 150 q 115 278 65 219 q 264 378 165 338 q 508 428 363 418 l 508 588 q 484 652 508 625 q 403 679 460 679 q 331 662 356 679 q 292 619 306 644 q 266 569 278 594 q 235 526 254 543 q 182 508 217 508 q 134 526 153 508 q 115 574 115 544 q 154 649 115 613 q 264 710 193 686 q 428 735 335 735 q 583 699 524 735 q 643 589 643 664 l 643 122 q 658 81 643 96 q 696 67 674 67 q 731 74 711 67 q 768 97 751 82 l 782 81 q 719 11 761 38 q 633 -15 678 -15 q 549 13 589 -15 q 508 104 508 40 q 263 -19 396 -19 q 122 28 178 -19 q 65 150 65 76 m 207 197 q 238 111 207 143 q 319 79 269 79 q 424 101 374 79 q 508 154 475 124 l 508 378 q 276 311 344 356 q 207 197 207 267 m 269 872 q 207 900 232 872 q 182 967 182 928 q 207 1034 182 1007 q 269 1061 232 1061 q 334 1034 308 1061 q 360 967 360 1007 q 334 900 360 928 q 269 872 308 872 m 508 872 q 446 900 471 872 q 421 967 421 928 q 446 1034 421 1007 q 508 1061 471 1061 q 573 1034 547 1061 q 599 967 599 1007 q 573 900 599 928 q 508 872 547 872 z "},"å":{"ha":793,"x_min":65,"x_max":782,"o":"m 65 150 q 115 278 65 219 q 264 378 165 338 q 508 428 363 418 l 508 588 q 484 652 508 625 q 403 679 460 679 q 331 662 356 679 q 292 619 306 644 q 266 569 278 594 q 235 526 254 543 q 182 508 217 508 q 134 526 153 508 q 115 574 115 544 q 154 649 115 613 q 264 710 193 686 q 428 735 335 735 q 583 699 524 735 q 643 589 643 664 l 643 122 q 658 81 643 96 q 696 67 674 67 q 731 74 711 67 q 768 97 751 82 l 782 81 q 719 11 761 38 q 633 -15 678 -15 q 549 13 589 -15 q 508 104 508 40 q 263 -19 396 -19 q 122 28 178 -19 q 65 150 65 76 m 207 197 q 238 111 207 143 q 319 79 269 79 q 424 101 374 79 q 508 154 475 124 l 508 378 q 276 311 344 356 q 207 197 207 267 m 214 993 q 237 1076 214 1038 q 300 1137 260 1114 q 390 1160 340 1160 q 480 1137 440 1160 q 542 1076 519 1114 q 565 993 565 1039 q 542 910 565 949 q 478 849 518 872 q 390 826 439 826 q 301 849 342 826 q 238 910 261 872 q 214 993 214 949 m 315 993 q 334 902 315 935 q 390 869 353 869 q 446 902 428 869 q 464 993 464 935 q 446 1083 464 1050 q 390 1115 428 1115 q 333 1083 351 1115 q 315 993 315 1050 z "},"æ":{"ha":1207,"x_min":79,"x_max":1143,"o":"m 290 -19 q 139 28 199 -19 q 79 150 79 76 q 129 278 79 219 q 278 378 179 338 q 524 428 378 418 l 522 588 q 498 652 522 625 q 417 679 474 679 q 344 662 369 679 q 306 619 319 644 q 280 569 292 594 q 249 526 268 543 q 196 508 231 508 q 148 526 167 508 q 129 574 129 544 q 168 649 129 613 q 278 710 207 686 q 442 735 349 735 q 568 710 517 735 q 636 635 619 686 q 740 709 682 682 q 867 736 799 736 q 1008 699 946 736 q 1107 597 1071 663 q 1143 443 1143 531 l 1143 406 l 643 406 l 643 401 q 679 224 643 294 q 774 118 715 153 q 900 83 832 83 q 1020 115 965 83 q 1110 203 1075 147 l 1132 190 q 1069 78 1114 126 q 965 5 1024 31 q 846 -21 907 -21 q 696 17 768 -21 q 578 129 624 54 q 440 15 508 49 q 290 -19 371 -19 m 835 667 q 717 619 772 667 q 647 468 663 571 l 1007 468 q 985 568 1007 524 q 925 640 964 613 q 835 667 886 667 m 221 197 q 256 111 221 143 q 347 79 292 79 q 461 101 407 79 q 560 163 515 122 q 533 242 543 199 q 524 336 524 286 l 524 378 q 290 311 360 356 q 221 197 221 267 z "},"ç":{"ha":704,"x_min":65,"x_max":660,"o":"m 440 736 q 551 727 499 736 q 647 703 603 718 l 567 494 l 542 494 q 486 619 532 578 q 378 661 440 661 q 239 593 292 661 q 186 415 186 525 q 254 174 186 263 q 432 85 322 85 q 553 126 497 85 q 638 231 608 167 l 660 219 q 601 87 646 140 q 497 6 557 33 q 369 -21 436 -21 q 261 4 315 -21 q 163 76 207 29 q 92 188 118 122 q 65 335 65 253 q 114 537 65 446 q 247 682 163 628 q 440 736 332 736 m 326 -132 l 360 28 l 407 24 l 393 -57 q 492 -92 456 -62 q 529 -171 529 -122 q 506 -242 529 -210 q 444 -294 482 -275 q 361 -312 406 -312 q 263 -291 301 -312 q 224 -236 224 -269 q 236 -198 224 -215 q 275 -181 249 -181 q 315 -194 299 -181 q 336 -228 332 -207 q 347 -261 339 -254 q 369 -268 356 -268 q 417 -253 397 -268 q 438 -204 438 -239 q 410 -151 438 -167 q 343 -132 382 -135 l 326 -132 z "},"è":{"ha":749,"x_min":65,"x_max":685,"o":"m 185 401 q 221 224 185 294 q 315 118 257 153 q 442 83 374 83 q 561 115 507 83 q 651 203 615 146 l 674 190 q 610 78 656 126 q 507 5 565 31 q 388 -21 449 -21 q 234 19 308 -21 q 113 139 160 60 q 65 336 65 218 q 110 537 65 446 q 233 682 156 628 q 408 736 311 736 q 550 699 488 736 q 649 597 613 663 q 685 443 685 531 l 685 406 l 185 406 l 185 401 m 376 667 q 259 619 314 667 q 189 468 204 571 l 549 468 q 527 568 549 524 q 467 640 506 613 q 376 667 428 667 m 321 1078 q 360 1023 343 1054 q 400 947 376 992 q 465 839 424 903 l 450 825 q 351 903 393 872 q 281 955 310 933 q 231 999 251 976 q 210 1049 211 1022 q 231 1093 208 1075 q 278 1105 254 1113 q 321 1078 303 1097 z "},"é":{"ha":749,"x_min":65,"x_max":685,"o":"m 185 401 q 221 224 185 294 q 315 118 257 153 q 442 83 374 83 q 561 115 507 83 q 651 203 615 146 l 674 190 q 610 78 656 126 q 507 5 565 31 q 388 -21 449 -21 q 234 19 308 -21 q 113 139 160 60 q 65 336 65 218 q 110 537 65 446 q 233 682 156 628 q 408 736 311 736 q 550 699 488 736 q 649 597 613 663 q 685 443 685 531 l 685 406 l 185 406 l 185 401 m 376 667 q 259 619 314 667 q 189 468 204 571 l 549 468 q 527 568 549 524 q 467 640 506 613 q 376 667 428 667 m 443 1078 q 486 1105 461 1097 q 533 1093 511 1113 q 554 1049 556 1075 q 533 999 553 1022 q 483 955 513 976 q 413 903 454 933 q 314 825 371 872 l 299 839 q 364 947 340 903 q 404 1023 388 992 q 443 1078 421 1054 z "},"ê":{"ha":749,"x_min":65,"x_max":685,"o":"m 185 401 q 221 224 185 294 q 315 118 257 153 q 442 83 374 83 q 561 115 507 83 q 651 203 615 146 l 674 190 q 610 78 656 126 q 507 5 565 31 q 388 -21 449 -21 q 234 19 308 -21 q 113 139 160 60 q 65 336 65 218 q 110 537 65 446 q 233 682 156 628 q 408 736 311 736 q 550 699 488 736 q 649 597 613 663 q 685 443 685 531 l 685 406 l 185 406 l 185 401 m 376 667 q 259 619 314 667 q 189 468 204 571 l 549 468 q 527 568 549 524 q 467 640 506 613 q 376 667 428 667 m 161 832 l 317 1072 q 357 1100 331 1094 q 409 1099 383 1106 q 447 1072 435 1092 l 607 832 l 594 824 l 386 974 l 378 974 l 174 824 l 161 832 z "},"ë":{"ha":749,"x_min":65,"x_max":685,"o":"m 185 401 q 221 224 185 294 q 315 118 257 153 q 442 83 374 83 q 561 115 507 83 q 651 203 615 146 l 674 190 q 610 78 656 126 q 507 5 565 31 q 388 -21 449 -21 q 234 19 308 -21 q 113 139 160 60 q 65 336 65 218 q 110 537 65 446 q 233 682 156 628 q 408 736 311 736 q 550 699 488 736 q 649 597 613 663 q 685 443 685 531 l 685 406 l 185 406 l 185 401 m 376 667 q 259 619 314 667 q 189 468 204 571 l 549 468 q 527 568 549 524 q 467 640 506 613 q 376 667 428 667 m 261 872 q 199 900 224 872 q 174 967 174 928 q 199 1034 174 1007 q 261 1061 224 1061 q 326 1034 300 1061 q 351 967 351 1007 q 326 900 351 928 q 261 872 300 872 m 500 872 q 438 900 463 872 q 413 967 413 928 q 438 1034 413 1007 q 500 1061 463 1061 q 565 1034 539 1061 q 590 967 590 1007 q 565 900 590 928 q 500 872 539 872 z "},"ì":{"ha":435,"x_min":39,"x_max":376,"o":"m 67 0 l 67 24 q 133 71 108 35 q 157 167 157 107 l 157 467 q 140 561 157 519 q 65 613 122 603 l 65 638 q 272 744 190 669 l 292 744 l 292 167 q 315 71 292 107 q 376 24 338 35 l 376 0 l 67 0 m 151 1078 q 190 1023 174 1054 q 231 947 207 992 q 296 839 254 903 l 281 825 q 182 903 224 872 q 111 955 140 933 q 61 999 82 976 q 40 1049 42 1022 q 61 1093 39 1075 q 109 1105 85 1113 q 151 1078 133 1097 z "},"í":{"ha":435,"x_min":65,"x_max":386,"o":"m 67 0 l 67 24 q 133 71 108 35 q 157 167 157 107 l 157 467 q 140 561 157 519 q 65 613 122 603 l 65 638 q 272 744 190 669 l 292 744 l 292 167 q 315 71 292 107 q 376 24 338 35 l 376 0 l 67 0 m 274 1078 q 317 1105 292 1097 q 364 1093 342 1113 q 385 1049 386 1075 q 364 999 383 1022 q 314 955 343 976 q 243 903 285 933 q 144 825 201 872 l 129 839 q 194 947 171 903 q 235 1023 218 992 q 274 1078 251 1054 z "},"î":{"ha":435,"x_min":-8,"x_max":438,"o":"m 67 0 l 67 24 q 133 71 108 35 q 157 167 157 107 l 157 467 q 140 561 157 519 q 65 613 122 603 l 65 638 q 272 744 190 669 l 292 744 l 292 167 q 315 71 292 107 q 376 24 338 35 l 376 0 l 67 0 m -8 832 l 147 1072 q 188 1100 161 1094 q 240 1099 214 1106 q 278 1072 265 1092 l 438 832 l 425 824 l 217 974 l 208 974 l 4 824 l -8 832 z "},"ï":{"ha":435,"x_min":4,"x_max":421,"o":"m 67 0 l 67 24 q 133 71 108 35 q 157 167 157 107 l 157 467 q 140 561 157 519 q 65 613 122 603 l 65 638 q 272 744 190 669 l 292 744 l 292 167 q 315 71 292 107 q 376 24 338 35 l 376 0 l 67 0 m 92 872 q 29 900 54 872 q 4 967 4 928 q 29 1034 4 1007 q 92 1061 54 1061 q 156 1034 131 1061 q 182 967 182 1007 q 156 900 182 928 q 92 872 131 872 m 331 872 q 268 900 293 872 q 243 967 243 928 q 268 1034 243 1007 q 331 1061 293 1061 q 395 1034 369 1061 q 421 967 421 1007 q 395 900 421 928 q 331 872 369 872 z "},"ð":{"ha":824,"x_min":65,"x_max":761,"o":"m 267 779 l 267 858 l 403 907 q 164 1035 306 989 l 172 1063 q 347 1015 267 1047 q 492 938 426 983 l 697 1011 l 697 932 l 560 883 q 710 672 660 792 q 758 418 761 551 q 708 177 758 278 q 573 23 657 76 q 392 -31 489 -31 q 222 19 296 -31 q 107 151 149 68 q 65 331 65 233 q 107 511 65 429 q 219 642 149 593 q 381 692 290 692 q 498 665 443 692 q 596 593 553 639 q 542 731 575 667 q 463 849 510 796 l 267 779 m 611 331 q 562 542 611 465 q 411 619 513 619 q 260 543 307 619 q 213 331 213 467 q 263 117 213 194 q 411 40 314 40 q 559 117 507 40 q 611 331 611 194 z "},"ñ":{"ha":900,"x_min":65,"x_max":842,"o":"m 65 25 q 133 72 108 36 q 157 168 157 108 l 157 467 q 136 569 157 536 q 65 613 115 603 l 65 638 q 272 744 190 669 l 292 744 l 292 665 q 291 603 292 635 q 289 553 290 571 l 292 551 q 387 637 332 594 q 503 708 442 679 q 619 736 564 736 q 726 688 689 736 q 764 563 764 640 l 764 168 q 784 72 764 108 q 842 25 804 35 l 842 0 l 542 0 l 542 25 q 608 76 586 44 q 629 167 629 108 l 629 499 q 608 584 629 556 q 540 614 588 613 q 434 590 494 617 q 292 501 374 563 l 292 167 q 316 76 292 108 q 381 25 340 44 l 381 0 l 65 0 l 65 25 m 549 853 q 495 867 519 853 q 451 899 471 881 q 413 931 432 917 q 375 944 394 944 q 327 919 347 944 q 294 861 307 894 l 278 865 q 318 1003 285 957 q 404 1050 351 1050 q 457 1036 433 1050 q 501 1003 481 1022 q 540 971 521 985 q 579 957 558 957 q 629 978 607 957 q 660 1043 651 1000 l 676 1039 q 635 900 669 947 q 549 853 601 853 z "},"ò":{"ha":824,"x_min":65,"x_max":758,"o":"m 65 360 q 111 553 65 468 q 235 687 157 638 q 411 736 314 736 q 588 688 510 736 q 713 554 667 639 q 758 360 758 469 q 711 164 758 250 q 585 28 664 78 q 411 -21 506 -21 q 238 29 317 -21 q 112 165 158 79 q 65 360 65 251 m 213 360 q 235 196 213 268 q 303 83 258 124 q 411 42 347 42 q 521 83 476 42 q 589 196 565 124 q 613 360 613 268 q 590 522 613 451 q 524 633 568 593 q 411 674 479 674 q 301 633 344 674 q 235 522 257 593 q 213 360 213 451 m 351 1078 q 390 1023 374 1054 q 431 947 407 992 q 496 839 454 903 l 481 825 q 382 903 424 872 q 311 955 340 933 q 261 999 282 976 q 240 1049 242 1022 q 261 1093 239 1075 q 309 1105 285 1113 q 351 1078 333 1097 z "},"ó":{"ha":824,"x_min":65,"x_max":758,"o":"m 65 360 q 111 553 65 468 q 235 687 157 638 q 411 736 314 736 q 588 688 510 736 q 713 554 667 639 q 758 360 758 469 q 711 164 758 250 q 585 28 664 78 q 411 -21 506 -21 q 238 29 317 -21 q 112 165 158 79 q 65 360 65 251 m 213 360 q 235 196 213 268 q 303 83 258 124 q 411 42 347 42 q 521 83 476 42 q 589 196 565 124 q 613 360 613 268 q 590 522 613 451 q 524 633 568 593 q 411 674 479 674 q 301 633 344 674 q 235 522 257 593 q 213 360 213 451 m 474 1078 q 517 1105 492 1097 q 564 1093 542 1113 q 585 1049 586 1075 q 564 999 583 1022 q 514 955 543 976 q 443 903 485 933 q 344 825 401 872 l 329 839 q 394 947 371 903 q 435 1023 418 992 q 474 1078 451 1054 z "},"ô":{"ha":824,"x_min":65,"x_max":758,"o":"m 65 360 q 111 553 65 468 q 235 687 157 638 q 411 736 314 736 q 588 688 510 736 q 713 554 667 639 q 758 360 758 469 q 711 164 758 250 q 585 28 664 78 q 411 -21 506 -21 q 238 29 317 -21 q 112 165 158 79 q 65 360 65 251 m 213 360 q 235 196 213 268 q 303 83 258 124 q 411 42 347 42 q 521 83 476 42 q 589 196 565 124 q 613 360 613 268 q 590 522 613 451 q 524 633 568 593 q 411 674 479 674 q 301 633 344 674 q 235 522 257 593 q 213 360 213 451 m 192 832 l 347 1072 q 388 1100 361 1094 q 440 1099 414 1106 q 478 1072 465 1092 l 638 832 l 625 824 l 417 974 l 408 974 l 204 824 l 192 832 z "},"õ":{"ha":824,"x_min":65,"x_max":758,"o":"m 65 360 q 111 553 65 468 q 235 687 157 638 q 411 736 314 736 q 588 688 510 736 q 713 554 667 639 q 758 360 758 469 q 711 164 758 250 q 585 28 664 78 q 411 -21 506 -21 q 238 29 317 -21 q 112 165 158 79 q 65 360 65 251 m 213 360 q 235 196 213 268 q 303 83 258 124 q 411 42 347 42 q 521 83 476 42 q 589 196 565 124 q 613 360 613 268 q 590 522 613 451 q 524 633 568 593 q 411 674 479 674 q 301 633 344 674 q 235 522 257 593 q 213 360 213 451 m 483 853 q 430 867 454 853 q 386 899 406 881 q 348 931 367 917 q 310 944 329 944 q 262 919 282 944 q 229 861 242 894 l 213 865 q 253 1003 219 957 q 339 1050 286 1050 q 392 1036 368 1050 q 435 1003 415 1022 q 474 971 456 985 q 514 957 493 957 q 564 978 542 957 q 594 1043 586 1000 l 611 1039 q 570 900 604 947 q 483 853 536 853 z "},"ö":{"ha":824,"x_min":65,"x_max":758,"o":"m 65 360 q 111 553 65 468 q 235 687 157 638 q 411 736 314 736 q 588 688 510 736 q 713 554 667 639 q 758 360 758 469 q 711 164 758 250 q 585 28 664 78 q 411 -21 506 -21 q 238 29 317 -21 q 112 165 158 79 q 65 360 65 251 m 213 360 q 235 196 213 268 q 303 83 258 124 q 411 42 347 42 q 521 83 476 42 q 589 196 565 124 q 613 360 613 268 q 590 522 613 451 q 524 633 568 593 q 411 674 479 674 q 301 633 344 674 q 235 522 257 593 q 213 360 213 451 m 292 872 q 229 900 254 872 q 204 967 204 928 q 229 1034 204 1007 q 292 1061 254 1061 q 356 1034 331 1061 q 382 967 382 1007 q 356 900 382 928 q 292 872 331 872 m 531 872 q 468 900 493 872 q 443 967 443 928 q 468 1034 443 1007 q 531 1061 493 1061 q 595 1034 569 1061 q 621 967 621 1007 q 595 900 621 928 q 531 872 569 872 z "},"÷":{"ha":736,"x_min":69,"x_max":667,"o":"m 375 635 q 324 658 344 635 q 304 711 304 681 q 324 765 304 743 q 375 788 344 788 q 428 765 407 788 q 449 711 449 743 q 428 658 449 681 q 375 635 407 635 m 69 469 l 69 525 l 667 525 l 667 469 l 69 469 m 375 207 q 324 230 344 207 q 304 283 304 253 q 324 338 304 315 q 375 360 344 360 q 428 338 407 360 q 449 283 449 315 q 428 230 449 253 q 375 207 407 207 z "},"ø":{"ha":824,"x_min":65,"x_max":758,"o":"m 65 360 q 111 553 65 468 q 235 687 157 638 q 411 736 314 736 q 524 718 469 736 l 557 799 l 624 799 l 579 692 q 709 559 660 646 q 758 360 758 472 q 711 164 758 250 q 585 28 664 78 q 411 -21 506 -21 q 290 3 349 -21 l 254 -83 l 188 -83 l 235 31 q 112 165 158 79 q 65 360 65 251 m 213 360 q 272 118 213 206 l 496 653 q 411 674 458 674 q 301 633 344 674 q 235 522 257 593 q 213 360 213 451 m 613 360 q 596 503 613 439 q 544 611 579 568 l 318 71 q 411 42 360 42 q 521 83 476 42 q 589 196 565 124 q 613 360 613 268 z "},"ù":{"ha":871,"x_min":58,"x_max":813,"o":"m 593 51 q 594 115 593 83 q 596 164 594 146 l 593 165 q 501 81 554 124 q 392 9 449 38 q 281 -19 335 -19 q 174 28 211 -19 q 136 154 136 76 l 136 467 q 122 559 136 519 q 58 613 107 599 l 58 638 q 168 680 119 653 q 257 744 217 707 l 271 744 l 271 218 q 292 128 271 158 q 360 96 313 97 q 459 123 404 94 q 593 215 514 151 l 593 453 q 577 557 593 511 q 508 613 561 603 l 508 638 q 713 744 628 669 l 728 744 l 728 236 q 747 134 728 167 q 813 90 767 101 l 813 65 q 707 29 757 51 q 614 -28 657 7 l 593 -28 l 593 51 m 365 1078 q 404 1023 388 1054 q 444 947 421 992 q 510 839 468 903 l 494 825 q 396 903 438 872 q 325 955 354 933 q 275 999 296 976 q 254 1049 256 1022 q 275 1093 253 1075 q 323 1105 299 1113 q 365 1078 347 1097 z "},"ú":{"ha":871,"x_min":58,"x_max":813,"o":"m 593 51 q 594 115 593 83 q 596 164 594 146 l 593 165 q 501 81 554 124 q 392 9 449 38 q 281 -19 335 -19 q 174 28 211 -19 q 136 154 136 76 l 136 467 q 122 559 136 519 q 58 613 107 599 l 58 638 q 168 680 119 653 q 257 744 217 707 l 271 744 l 271 218 q 292 128 271 158 q 360 96 313 97 q 459 123 404 94 q 593 215 514 151 l 593 453 q 577 557 593 511 q 508 613 561 603 l 508 638 q 713 744 628 669 l 728 744 l 728 236 q 747 134 728 167 q 813 90 767 101 l 813 65 q 707 29 757 51 q 614 -28 657 7 l 593 -28 l 593 51 m 488 1078 q 531 1105 506 1097 q 578 1093 556 1113 q 599 1049 600 1075 q 578 999 597 1022 q 528 955 557 976 q 457 903 499 933 q 358 825 415 872 l 343 839 q 408 947 385 903 q 449 1023 432 992 q 488 1078 465 1054 z "},"û":{"ha":871,"x_min":58,"x_max":813,"o":"m 593 51 q 594 115 593 83 q 596 164 594 146 l 593 165 q 501 81 554 124 q 392 9 449 38 q 281 -19 335 -19 q 174 28 211 -19 q 136 154 136 76 l 136 467 q 122 559 136 519 q 58 613 107 599 l 58 638 q 168 680 119 653 q 257 744 217 707 l 271 744 l 271 218 q 292 128 271 158 q 360 96 313 97 q 459 123 404 94 q 593 215 514 151 l 593 453 q 577 557 593 511 q 508 613 561 603 l 508 638 q 713 744 628 669 l 728 744 l 728 236 q 747 134 728 167 q 813 90 767 101 l 813 65 q 707 29 757 51 q 614 -28 657 7 l 593 -28 l 593 51 m 206 832 l 361 1072 q 401 1100 375 1094 q 453 1099 428 1106 q 492 1072 479 1092 l 651 832 l 639 824 l 431 974 l 422 974 l 218 824 l 206 832 z "},"ü":{"ha":871,"x_min":58,"x_max":813,"o":"m 593 51 q 594 115 593 83 q 596 164 594 146 l 593 165 q 501 81 554 124 q 392 9 449 38 q 281 -19 335 -19 q 174 28 211 -19 q 136 154 136 76 l 136 467 q 122 559 136 519 q 58 613 107 599 l 58 638 q 168 680 119 653 q 257 744 217 707 l 271 744 l 271 218 q 292 128 271 158 q 360 96 313 97 q 459 123 404 94 q 593 215 514 151 l 593 453 q 577 557 593 511 q 508 613 561 603 l 508 638 q 713 744 628 669 l 728 744 l 728 236 q 747 134 728 167 q 813 90 767 101 l 813 65 q 707 29 757 51 q 614 -28 657 7 l 593 -28 l 593 51 m 306 872 q 243 900 268 872 q 218 967 218 928 q 243 1034 218 1007 q 306 1061 268 1061 q 370 1034 344 1061 q 396 967 396 1007 q 370 900 396 928 q 306 872 344 872 m 544 872 q 482 900 507 872 q 457 967 457 928 q 482 1034 457 1007 q 544 1061 507 1061 q 609 1034 583 1061 q 635 967 635 1007 q 609 900 635 928 q 544 872 583 872 z "},"ý":{"ha":764,"x_min":-7,"x_max":769,"o":"m 133 -300 q 53 -273 90 -300 q 17 -203 17 -246 q 42 -144 17 -165 q 97 -122 67 -122 q 147 -140 131 -122 q 177 -177 164 -158 q 208 -196 190 -196 q 252 -170 233 -194 q 288 -110 271 -146 q 319 -40 304 -75 l 350 31 l 111 540 q 54 644 79 608 q -7 697 29 679 l -7 715 l 317 715 l 317 697 q 263 539 210 647 l 424 199 l 572 539 q 578 638 596 596 q 517 697 560 681 l 517 715 l 769 715 l 769 697 q 706 634 736 679 q 653 542 675 589 l 374 -74 q 263 -247 319 -194 q 133 -300 207 -300 m 471 1078 q 514 1105 489 1097 q 561 1093 539 1113 q 582 1049 583 1075 q 561 999 581 1022 q 511 955 540 976 q 440 903 482 933 q 342 825 399 872 l 326 839 q 392 947 368 903 q 432 1023 415 992 q 471 1078 449 1054 z "},"þ":{"ha":858,"x_min":50,"x_max":782,"o":"m 54 -253 q 113 -211 90 -243 q 135 -111 135 -179 l 135 828 q 115 931 135 897 q 50 974 96 964 l 50 999 q 159 1041 110 1014 q 247 1106 208 1068 l 268 1106 l 268 665 q 268 637 268 651 q 267 608 268 622 l 269 607 q 331 667 293 638 q 414 717 368 697 q 507 736 460 736 q 640 694 576 736 q 742 581 703 653 q 782 414 782 508 q 752 247 782 325 q 670 111 722 169 q 548 20 618 53 q 396 -12 478 -12 q 329 -6 361 -12 q 269 11 297 1 l 269 -111 q 294 -210 269 -179 q 358 -253 319 -242 l 358 -278 l 54 -278 l 54 -253 m 639 361 q 587 551 638 476 q 440 626 536 626 q 351 605 396 626 q 269 543 306 583 l 269 213 q 305 96 269 142 q 403 51 340 50 q 529 93 476 51 q 610 206 582 135 q 639 361 639 276 z "},"ÿ":{"ha":764,"x_min":-7,"x_max":769,"o":"m 133 -300 q 53 -273 90 -300 q 17 -203 17 -246 q 42 -144 17 -165 q 97 -122 67 -122 q 147 -140 131 -122 q 177 -177 164 -158 q 208 -196 190 -196 q 252 -170 233 -194 q 288 -110 271 -146 q 319 -40 304 -75 l 350 31 l 111 540 q 54 644 79 608 q -7 697 29 679 l -7 715 l 317 715 l 317 697 q 263 539 210 647 l 424 199 l 572 539 q 578 638 596 596 q 517 697 560 681 l 517 715 l 769 715 l 769 697 q 706 634 736 679 q 653 542 675 589 l 374 -74 q 263 -247 319 -194 q 133 -300 207 -300 m 289 872 q 226 900 251 872 q 201 967 201 928 q 226 1034 201 1007 q 289 1061 251 1061 q 353 1034 328 1061 q 379 967 379 1007 q 353 900 379 928 q 289 872 328 872 m 528 872 q 465 900 490 872 q 440 967 440 928 q 465 1034 440 1007 q 528 1061 490 1061 q 592 1034 567 1061 q 618 967 618 1007 q 592 900 618 928 q 528 872 567 872 z "},"Ā":{"ha":1011,"x_min":0,"x_max":1010,"o":"m 142 189 l 482 1049 l 531 1049 l 878 192 q 942 75 911 110 q 1010 25 974 40 l 1010 0 l 665 0 l 665 25 q 732 81 708 42 q 726 193 756 121 l 660 360 l 286 360 l 222 190 q 220 112 206 144 q 264 58 235 79 q 319 25 293 36 l 319 0 l 0 0 l 0 25 q 76 81 36 38 q 142 189 115 125 m 313 429 l 633 429 l 468 844 l 313 429 m 283 1167 l 283 1236 l 728 1236 l 728 1167 l 283 1167 z "},"ā":{"ha":793,"x_min":65,"x_max":782,"o":"m 65 150 q 115 278 65 219 q 264 378 165 338 q 508 428 363 418 l 508 588 q 484 652 508 625 q 403 679 460 679 q 331 662 356 679 q 292 619 306 644 q 266 569 278 594 q 235 526 254 543 q 182 508 217 508 q 134 526 153 508 q 115 574 115 544 q 154 649 115 613 q 264 710 193 686 q 428 735 335 735 q 583 699 524 735 q 643 589 643 664 l 643 122 q 658 81 643 96 q 696 67 674 67 q 731 74 711 67 q 768 97 751 82 l 782 81 q 719 11 761 38 q 633 -15 678 -15 q 549 13 589 -15 q 508 104 508 40 q 263 -19 396 -19 q 122 28 178 -19 q 65 150 65 76 m 207 197 q 238 111 207 143 q 319 79 269 79 q 424 101 374 79 q 508 154 475 124 l 508 378 q 276 311 344 356 q 207 197 207 267 m 168 875 l 168 944 l 613 944 l 613 875 l 168 875 z "},"Ă":{"ha":1011,"x_min":0,"x_max":1010,"o":"m 142 189 l 482 1049 l 531 1049 l 878 192 q 942 75 911 110 q 1010 25 974 40 l 1010 0 l 665 0 l 665 25 q 732 81 708 42 q 726 193 756 121 l 660 360 l 286 360 l 222 190 q 220 112 206 144 q 264 58 235 79 q 319 25 293 36 l 319 0 l 0 0 l 0 25 q 76 81 36 38 q 142 189 115 125 m 313 429 l 633 429 l 468 844 l 313 429 m 506 1122 q 351 1187 411 1122 q 292 1371 292 1251 l 308 1374 q 380 1269 324 1306 q 506 1233 436 1233 q 631 1269 575 1233 q 701 1374 686 1306 l 719 1371 q 660 1187 719 1251 q 506 1122 600 1122 z "},"ă":{"ha":793,"x_min":65,"x_max":782,"o":"m 65 150 q 115 278 65 219 q 264 378 165 338 q 508 428 363 418 l 508 588 q 484 652 508 625 q 403 679 460 679 q 331 662 356 679 q 292 619 306 644 q 266 569 278 594 q 235 526 254 543 q 182 508 217 508 q 134 526 153 508 q 115 574 115 544 q 154 649 115 613 q 264 710 193 686 q 428 735 335 735 q 583 699 524 735 q 643 589 643 664 l 643 122 q 658 81 643 96 q 696 67 674 67 q 731 74 711 67 q 768 97 751 82 l 782 81 q 719 11 761 38 q 633 -15 678 -15 q 549 13 589 -15 q 508 104 508 40 q 263 -19 396 -19 q 122 28 178 -19 q 65 150 65 76 m 207 197 q 238 111 207 143 q 319 79 269 79 q 424 101 374 79 q 508 154 475 124 l 508 378 q 276 311 344 356 q 207 197 207 267 m 390 831 q 236 895 296 831 q 176 1079 176 960 l 193 1082 q 265 978 208 1014 q 390 942 321 942 q 515 978 460 942 q 586 1082 571 1014 l 604 1079 q 544 895 604 960 q 390 831 485 831 z "},"Ą":{"ha":1011,"x_min":0,"x_max":1010,"o":"m 142 189 l 482 1049 l 531 1049 l 878 192 q 942 75 911 110 q 1010 25 974 40 l 1010 0 l 665 0 l 665 25 q 732 81 708 42 q 726 193 756 121 l 660 360 l 286 360 l 222 190 q 220 112 206 144 q 264 58 235 79 q 319 25 293 36 l 319 0 l 0 0 l 0 25 q 76 81 36 38 q 142 189 115 125 m 313 429 l 633 429 l 468 844 l 313 429 m 825 -285 q 721 -252 763 -285 q 679 -167 679 -219 q 724 -63 679 -111 q 836 25 769 -15 l 844 10 q 804 -53 819 -19 q 789 -122 789 -86 q 813 -190 789 -165 q 874 -214 838 -214 q 928 -201 899 -214 q 981 -167 958 -187 l 993 -178 q 926 -255 969 -225 q 825 -285 882 -285 z "},"ą":{"ha":793,"x_min":65,"x_max":782,"o":"m 65 150 q 115 278 65 219 q 264 378 165 338 q 508 428 363 418 l 508 588 q 484 652 508 625 q 403 679 460 679 q 331 662 356 679 q 292 619 306 644 q 266 569 278 594 q 235 526 254 543 q 182 508 217 508 q 134 526 153 508 q 115 574 115 544 q 154 649 115 613 q 264 710 193 686 q 428 735 335 735 q 583 699 524 735 q 643 589 643 664 l 643 122 q 658 81 643 96 q 696 67 674 67 q 731 74 711 67 q 768 97 751 82 l 782 81 q 719 11 761 38 q 633 -15 678 -15 q 549 13 589 -15 q 508 104 508 40 q 263 -19 396 -19 q 122 28 178 -19 q 65 150 65 76 m 207 197 q 238 111 207 143 q 319 79 269 79 q 424 101 374 79 q 508 154 475 124 l 508 378 q 276 311 344 356 q 207 197 207 267 m 557 -285 q 453 -252 494 -285 q 411 -167 411 -219 q 456 -63 411 -111 q 568 25 501 -15 l 576 10 q 536 -53 551 -19 q 521 -122 521 -86 q 545 -190 521 -165 q 606 -214 569 -214 q 660 -201 631 -214 q 713 -167 690 -187 l 725 -178 q 658 -255 701 -225 q 557 -285 614 -285 z "},"Ć":{"ha":972,"x_min":72,"x_max":928,"o":"m 533 -21 q 358 17 442 -21 q 210 126 275 56 q 109 292 146 196 q 72 503 72 388 q 113 722 72 621 q 228 900 154 824 q 399 1019 301 976 q 611 1063 497 1063 q 772 1043 693 1063 q 907 1001 850 1024 l 801 732 l 778 732 q 686 913 754 851 q 519 974 618 974 q 359 925 428 974 q 253 790 290 876 q 215 586 215 703 q 261 343 215 450 q 392 174 307 236 q 593 113 478 113 q 776 168 699 113 q 903 321 853 224 l 928 310 q 847 136 904 211 q 708 20 789 61 q 533 -21 628 -21 m 597 1369 q 640 1397 615 1389 q 688 1385 665 1404 q 708 1340 710 1367 q 688 1290 707 1314 q 638 1247 667 1268 q 567 1194 608 1225 q 468 1117 525 1164 l 453 1131 q 518 1239 494 1194 q 558 1315 542 1283 q 597 1369 575 1346 z "},"ć":{"ha":704,"x_min":65,"x_max":660,"o":"m 440 736 q 551 727 499 736 q 647 703 603 718 l 567 494 l 542 494 q 486 619 532 578 q 378 661 440 661 q 239 593 292 661 q 186 415 186 525 q 254 174 186 263 q 432 85 322 85 q 553 126 497 85 q 638 231 608 167 l 660 219 q 601 87 646 140 q 497 6 557 33 q 369 -21 436 -21 q 261 4 315 -21 q 163 76 207 29 q 92 188 118 122 q 65 335 65 253 q 114 537 65 446 q 247 682 163 628 q 440 736 332 736 m 442 1078 q 485 1105 460 1097 q 532 1093 510 1113 q 553 1049 554 1075 q 532 999 551 1022 q 482 955 511 976 q 411 903 453 933 q 313 825 369 872 l 297 839 q 363 947 339 903 q 403 1023 386 992 q 442 1078 419 1054 z "},"Ĉ":{"ha":972,"x_min":72,"x_max":928,"o":"m 533 -21 q 358 17 442 -21 q 210 126 275 56 q 109 292 146 196 q 72 503 72 388 q 113 722 72 621 q 228 900 154 824 q 399 1019 301 976 q 611 1063 497 1063 q 772 1043 693 1063 q 907 1001 850 1024 l 801 732 l 778 732 q 686 913 754 851 q 519 974 618 974 q 359 925 428 974 q 253 790 290 876 q 215 586 215 703 q 261 343 215 450 q 392 174 307 236 q 593 113 478 113 q 776 168 699 113 q 903 321 853 224 l 928 310 q 847 136 904 211 q 708 20 789 61 q 533 -21 628 -21 m 315 1124 l 471 1364 q 511 1392 485 1386 q 563 1390 538 1397 q 601 1364 589 1383 l 761 1124 l 749 1115 l 540 1265 l 532 1265 l 328 1115 l 315 1124 z "},"ĉ":{"ha":704,"x_min":65,"x_max":660,"o":"m 440 736 q 551 727 499 736 q 647 703 603 718 l 567 494 l 542 494 q 486 619 532 578 q 378 661 440 661 q 239 593 292 661 q 186 415 186 525 q 254 174 186 263 q 432 85 322 85 q 553 126 497 85 q 638 231 608 167 l 660 219 q 601 87 646 140 q 497 6 557 33 q 369 -21 436 -21 q 261 4 315 -21 q 163 76 207 29 q 92 188 118 122 q 65 335 65 253 q 114 537 65 446 q 247 682 163 628 q 440 736 332 736 m 160 832 l 315 1072 q 356 1100 329 1094 q 408 1099 382 1106 q 446 1072 433 1092 l 606 832 l 593 824 l 385 974 l 376 974 l 172 824 l 160 832 z "},"Ċ":{"ha":972,"x_min":72,"x_max":928,"o":"m 533 -21 q 358 17 442 -21 q 210 126 275 56 q 109 292 146 196 q 72 503 72 388 q 113 722 72 621 q 228 900 154 824 q 399 1019 301 976 q 611 1063 497 1063 q 772 1043 693 1063 q 907 1001 850 1024 l 801 732 l 778 732 q 686 913 754 851 q 519 974 618 974 q 359 925 428 974 q 253 790 290 876 q 215 586 215 703 q 261 343 215 450 q 392 174 307 236 q 593 113 478 113 q 776 168 699 113 q 903 321 853 224 l 928 310 q 847 136 904 211 q 708 20 789 61 q 533 -21 628 -21 m 536 1164 q 474 1192 499 1164 q 449 1258 449 1219 q 474 1326 449 1299 q 536 1353 499 1353 q 601 1326 575 1353 q 626 1258 626 1299 q 601 1192 626 1219 q 536 1164 575 1164 z "},"ċ":{"ha":704,"x_min":65,"x_max":660,"o":"m 440 736 q 551 727 499 736 q 647 703 603 718 l 567 494 l 542 494 q 486 619 532 578 q 378 661 440 661 q 239 593 292 661 q 186 415 186 525 q 254 174 186 263 q 432 85 322 85 q 553 126 497 85 q 638 231 608 167 l 660 219 q 601 87 646 140 q 497 6 557 33 q 369 -21 436 -21 q 261 4 315 -21 q 163 76 207 29 q 92 188 118 122 q 65 335 65 253 q 114 537 65 446 q 247 682 163 628 q 440 736 332 736 m 381 872 q 318 900 343 872 q 293 967 293 928 q 318 1034 293 1007 q 381 1061 343 1061 q 445 1034 419 1061 q 471 967 471 1007 q 445 900 471 928 q 381 872 419 872 z "},"Č":{"ha":972,"x_min":72,"x_max":928,"o":"m 533 -21 q 358 17 442 -21 q 210 126 275 56 q 109 292 146 196 q 72 503 72 388 q 113 722 72 621 q 228 900 154 824 q 399 1019 301 976 q 611 1063 497 1063 q 772 1043 693 1063 q 907 1001 850 1024 l 801 732 l 778 732 q 686 913 754 851 q 519 974 618 974 q 359 925 428 974 q 253 790 290 876 q 215 586 215 703 q 261 343 215 450 q 392 174 307 236 q 593 113 478 113 q 776 168 699 113 q 903 321 853 224 l 928 310 q 847 136 904 211 q 708 20 789 61 q 533 -21 628 -21 m 761 1394 l 606 1154 q 565 1127 592 1133 q 513 1128 539 1121 q 475 1154 488 1136 l 315 1394 l 328 1403 l 536 1253 l 544 1253 l 749 1403 l 761 1394 z "},"č":{"ha":704,"x_min":65,"x_max":660,"o":"m 440 736 q 551 727 499 736 q 647 703 603 718 l 567 494 l 542 494 q 486 619 532 578 q 378 661 440 661 q 239 593 292 661 q 186 415 186 525 q 254 174 186 263 q 432 85 322 85 q 553 126 497 85 q 638 231 608 167 l 660 219 q 601 87 646 140 q 497 6 557 33 q 369 -21 436 -21 q 261 4 315 -21 q 163 76 207 29 q 92 188 118 122 q 65 335 65 253 q 114 537 65 446 q 247 682 163 628 q 440 736 332 736 m 606 1103 l 450 863 q 410 835 436 842 q 358 837 383 829 q 319 863 332 844 l 160 1103 l 172 1111 l 381 961 l 389 961 l 593 1111 l 606 1103 z "},"Ď":{"ha":1089,"x_min":65,"x_max":1017,"o":"m 432 -14 q 306 -10 374 -14 q 176 1 239 -6 q 65 14 114 8 l 65 39 q 142 97 114 54 q 171 196 171 140 l 171 860 q 142 947 171 908 q 65 1003 114 986 l 65 1028 q 225 1047 142 1039 q 415 1056 308 1056 q 741 986 607 1056 q 946 794 875 917 q 1017 513 1017 672 q 969 269 1017 369 q 839 106 921 168 q 652 15 757 43 q 432 -14 547 -14 m 457 51 q 676 94 588 51 q 809 235 764 138 q 854 496 854 333 q 750 858 854 729 q 447 988 646 988 q 345 957 378 988 q 313 861 313 926 l 313 193 q 457 51 313 51 m 769 1394 l 614 1154 q 574 1127 600 1133 q 522 1128 547 1121 q 483 1154 496 1136 l 324 1394 l 336 1403 l 544 1253 l 553 1253 l 757 1403 l 769 1394 z "},"ď":{"ha":858,"x_min":68,"x_max":928,"o":"m 343 -19 q 210 22 274 -19 q 108 137 147 64 q 68 303 68 210 q 98 470 68 393 q 180 606 128 547 q 303 697 232 664 q 454 729 374 729 q 522 723 490 729 q 581 706 553 717 l 581 828 q 552 931 581 897 q 475 974 524 964 l 475 999 q 696 1106 611 1031 l 715 1106 l 715 229 q 735 127 715 160 q 801 83 756 94 l 801 65 q 696 29 746 51 q 601 -28 646 7 l 582 -28 l 582 51 q 582 80 582 65 q 583 108 582 94 l 581 110 q 519 49 557 79 q 437 0 482 19 q 343 -19 392 -19 m 410 90 q 581 174 506 90 l 581 504 q 545 621 581 575 q 447 665 510 667 q 321 624 374 667 q 240 510 268 581 q 211 356 211 440 q 263 166 213 242 q 410 90 314 90 m 822 1051 q 848 1089 829 1075 q 890 1096 867 1103 q 922 1066 915 1088 q 922 1022 928 1044 q 899 966 915 993 q 861 901 883 939 q 811 803 839 864 l 803 807 q 812 917 811 872 q 814 993 813 961 q 822 1051 815 1025 z "},"Đ":{"ha":1089,"x_min":32,"x_max":1017,"o":"m 432 -14 q 306 -10 374 -14 q 176 1 239 -6 q 65 14 114 8 l 65 39 q 142 97 114 54 q 171 196 171 140 l 171 582 l 32 582 l 32 651 l 171 651 l 171 860 q 142 947 171 908 q 65 1003 114 986 l 65 1028 q 225 1047 142 1039 q 415 1056 308 1056 q 741 986 607 1056 q 946 794 875 917 q 1017 513 1017 672 q 969 269 1017 369 q 839 106 921 168 q 652 15 757 43 q 432 -14 547 -14 m 457 51 q 676 94 588 51 q 809 235 764 138 q 854 496 854 333 q 750 858 854 729 q 447 988 646 988 q 345 957 378 988 q 313 861 313 926 l 313 651 l 599 651 l 599 582 l 313 582 l 313 193 q 457 51 313 51 z "},"đ":{"ha":858,"x_min":68,"x_max":801,"o":"m 343 -19 q 210 22 274 -19 q 108 137 147 64 q 68 303 68 210 q 98 470 68 393 q 180 606 128 547 q 303 697 232 664 q 454 729 374 729 q 522 723 490 729 q 581 706 553 717 l 581 818 l 374 818 l 374 881 l 575 881 q 540 944 565 922 q 475 974 514 965 l 475 999 q 696 1106 611 1031 l 715 1106 l 715 881 l 801 881 l 801 818 l 715 818 l 715 229 q 735 127 715 160 q 801 83 756 94 l 801 65 q 696 29 746 51 q 601 -28 646 7 l 582 -28 l 582 51 q 582 80 582 65 q 583 108 582 94 l 581 110 q 519 49 557 79 q 437 0 482 19 q 343 -19 392 -19 m 410 90 q 581 174 506 90 l 581 504 q 545 621 581 575 q 447 665 510 667 q 321 624 374 667 q 240 510 268 581 q 211 356 211 440 q 263 166 213 242 q 410 90 314 90 z "},"Ē":{"ha":983,"x_min":65,"x_max":925,"o":"m 65 1042 l 726 1042 q 778 1049 756 1042 q 811 1067 800 1057 l 831 1067 l 885 779 l 863 776 q 769 900 824 856 q 640 962 714 944 q 469 979 567 979 q 355 947 397 979 q 313 863 313 915 l 313 601 l 571 601 q 694 622 644 601 q 767 706 744 643 l 786 706 l 786 422 l 767 422 q 572 532 713 532 l 313 532 l 313 186 q 355 97 313 131 q 469 63 397 63 q 728 110 624 63 q 906 285 833 158 l 925 283 l 846 -25 l 822 -25 q 787 -5 804 -10 q 743 0 769 0 l 65 0 l 65 25 q 142 76 114 33 q 171 182 171 118 l 171 860 q 142 968 171 925 q 65 1017 114 1011 l 65 1042 m 269 1167 l 269 1236 l 714 1236 l 714 1167 l 269 1167 z "},"ē":{"ha":749,"x_min":65,"x_max":685,"o":"m 185 401 q 221 224 185 294 q 315 118 257 153 q 442 83 374 83 q 561 115 507 83 q 651 203 615 146 l 674 190 q 610 78 656 126 q 507 5 565 31 q 388 -21 449 -21 q 234 19 308 -21 q 113 139 160 60 q 65 336 65 218 q 110 537 65 446 q 233 682 156 628 q 408 736 311 736 q 550 699 488 736 q 649 597 613 663 q 685 443 685 531 l 685 406 l 185 406 l 185 401 m 376 667 q 259 619 314 667 q 189 468 204 571 l 549 468 q 527 568 549 524 q 467 640 506 613 q 376 667 428 667 m 160 875 l 160 944 l 604 944 l 604 875 l 160 875 z "},"Ĕ":{"ha":983,"x_min":65,"x_max":925,"o":"m 65 1042 l 726 1042 q 778 1049 756 1042 q 811 1067 800 1057 l 831 1067 l 885 779 l 863 776 q 769 900 824 856 q 640 962 714 944 q 469 979 567 979 q 355 947 397 979 q 313 863 313 915 l 313 601 l 571 601 q 694 622 644 601 q 767 706 744 643 l 786 706 l 786 422 l 767 422 q 572 532 713 532 l 313 532 l 313 186 q 355 97 313 131 q 469 63 397 63 q 728 110 624 63 q 906 285 833 158 l 925 283 l 846 -25 l 822 -25 q 787 -5 804 -10 q 743 0 769 0 l 65 0 l 65 25 q 142 76 114 33 q 171 182 171 118 l 171 860 q 142 968 171 925 q 65 1017 114 1011 l 65 1042 m 492 1122 q 338 1187 397 1122 q 278 1371 278 1251 l 294 1374 q 366 1269 310 1306 q 492 1233 422 1233 q 617 1269 561 1233 q 688 1374 672 1306 l 706 1371 q 646 1187 706 1251 q 492 1122 586 1122 z "},"ĕ":{"ha":749,"x_min":65,"x_max":685,"o":"m 185 401 q 221 224 185 294 q 315 118 257 153 q 442 83 374 83 q 561 115 507 83 q 651 203 615 146 l 674 190 q 610 78 656 126 q 507 5 565 31 q 388 -21 449 -21 q 234 19 308 -21 q 113 139 160 60 q 65 336 65 218 q 110 537 65 446 q 233 682 156 628 q 408 736 311 736 q 550 699 488 736 q 649 597 613 663 q 685 443 685 531 l 685 406 l 185 406 l 185 401 m 376 667 q 259 619 314 667 q 189 468 204 571 l 549 468 q 527 568 549 524 q 467 640 506 613 q 376 667 428 667 m 382 831 q 228 895 288 831 q 168 1079 168 960 l 185 1082 q 256 978 200 1014 q 382 942 313 942 q 507 978 451 942 q 578 1082 563 1014 l 596 1079 q 536 895 596 960 q 382 831 476 831 z "},"Ė":{"ha":983,"x_min":65,"x_max":925,"o":"m 65 1042 l 726 1042 q 778 1049 756 1042 q 811 1067 800 1057 l 831 1067 l 885 779 l 863 776 q 769 900 824 856 q 640 962 714 944 q 469 979 567 979 q 355 947 397 979 q 313 863 313 915 l 313 601 l 571 601 q 694 622 644 601 q 767 706 744 643 l 786 706 l 786 422 l 767 422 q 572 532 713 532 l 313 532 l 313 186 q 355 97 313 131 q 469 63 397 63 q 728 110 624 63 q 906 285 833 158 l 925 283 l 846 -25 l 822 -25 q 787 -5 804 -10 q 743 0 769 0 l 65 0 l 65 25 q 142 76 114 33 q 171 182 171 118 l 171 860 q 142 968 171 925 q 65 1017 114 1011 l 65 1042 m 492 1164 q 429 1192 454 1164 q 404 1258 404 1219 q 429 1326 404 1299 q 492 1353 454 1353 q 556 1326 531 1353 q 582 1258 582 1299 q 556 1192 582 1219 q 492 1164 531 1164 z "},"ė":{"ha":749,"x_min":65,"x_max":685,"o":"m 185 401 q 221 224 185 294 q 315 118 257 153 q 442 83 374 83 q 561 115 507 83 q 651 203 615 146 l 674 190 q 610 78 656 126 q 507 5 565 31 q 388 -21 449 -21 q 234 19 308 -21 q 113 139 160 60 q 65 336 65 218 q 110 537 65 446 q 233 682 156 628 q 408 736 311 736 q 550 699 488 736 q 649 597 613 663 q 685 443 685 531 l 685 406 l 185 406 l 185 401 m 376 667 q 259 619 314 667 q 189 468 204 571 l 549 468 q 527 568 549 524 q 467 640 506 613 q 376 667 428 667 m 382 872 q 319 900 344 872 q 294 967 294 928 q 319 1034 294 1007 q 382 1061 344 1061 q 447 1034 421 1061 q 472 967 472 1007 q 447 900 472 928 q 382 872 421 872 z "},"Ę":{"ha":983,"x_min":65,"x_max":954,"o":"m 65 1042 l 726 1042 q 778 1049 756 1042 q 811 1067 800 1057 l 831 1067 l 885 779 l 863 776 q 769 900 824 856 q 640 962 714 944 q 469 979 567 979 q 355 947 397 979 q 313 863 313 915 l 313 601 l 571 601 q 694 622 644 601 q 767 706 744 643 l 786 706 l 786 422 l 767 422 q 572 532 713 532 l 313 532 l 313 186 q 355 97 313 131 q 469 63 397 63 q 728 110 624 63 q 906 285 833 158 l 925 283 l 846 -25 l 822 -25 q 787 -5 804 -10 q 743 0 769 0 l 65 0 l 65 25 q 142 76 114 33 q 171 182 171 118 l 171 860 q 142 968 171 925 q 65 1017 114 1011 l 65 1042 m 786 -285 q 682 -252 724 -285 q 640 -167 640 -219 q 685 -63 640 -111 q 797 25 731 -15 l 806 10 q 765 -53 781 -19 q 750 -122 750 -86 q 774 -190 750 -165 q 835 -214 799 -214 q 890 -201 860 -214 q 942 -167 919 -187 l 954 -178 q 887 -255 931 -225 q 786 -285 843 -285 z "},"ę":{"ha":749,"x_min":65,"x_max":685,"o":"m 185 401 q 221 224 185 294 q 315 118 257 153 q 442 83 374 83 q 561 115 507 83 q 651 203 615 146 l 674 190 q 610 78 656 126 q 507 5 565 31 q 388 -21 449 -21 q 234 19 308 -21 q 113 139 160 60 q 65 336 65 218 q 110 537 65 446 q 233 682 156 628 q 408 736 311 736 q 550 699 488 736 q 649 597 613 663 q 685 443 685 531 l 685 406 l 185 406 l 185 401 m 376 667 q 259 619 314 667 q 189 468 204 571 l 549 468 q 527 568 549 524 q 467 640 506 613 q 376 667 428 667 m 496 -285 q 392 -252 433 -285 q 350 -167 350 -219 q 395 -63 350 -111 q 507 25 440 -15 l 515 10 q 475 -53 490 -19 q 460 -122 460 -86 q 484 -190 460 -165 q 544 -214 508 -214 q 599 -201 569 -214 q 651 -167 629 -187 l 664 -178 q 597 -255 640 -225 q 496 -285 553 -285 z "},"Ě":{"ha":983,"x_min":65,"x_max":925,"o":"m 65 1042 l 726 1042 q 778 1049 756 1042 q 811 1067 800 1057 l 831 1067 l 885 779 l 863 776 q 769 900 824 856 q 640 962 714 944 q 469 979 567 979 q 355 947 397 979 q 313 863 313 915 l 313 601 l 571 601 q 694 622 644 601 q 767 706 744 643 l 786 706 l 786 422 l 767 422 q 572 532 713 532 l 313 532 l 313 186 q 355 97 313 131 q 469 63 397 63 q 728 110 624 63 q 906 285 833 158 l 925 283 l 846 -25 l 822 -25 q 787 -5 804 -10 q 743 0 769 0 l 65 0 l 65 25 q 142 76 114 33 q 171 182 171 118 l 171 860 q 142 968 171 925 q 65 1017 114 1011 l 65 1042 m 717 1394 l 561 1154 q 521 1127 547 1133 q 469 1128 494 1121 q 431 1154 443 1136 l 271 1394 l 283 1403 l 492 1253 l 500 1253 l 704 1403 l 717 1394 z "},"ě":{"ha":749,"x_min":65,"x_max":685,"o":"m 185 401 q 221 224 185 294 q 315 118 257 153 q 442 83 374 83 q 561 115 507 83 q 651 203 615 146 l 674 190 q 610 78 656 126 q 507 5 565 31 q 388 -21 449 -21 q 234 19 308 -21 q 113 139 160 60 q 65 336 65 218 q 110 537 65 446 q 233 682 156 628 q 408 736 311 736 q 550 699 488 736 q 649 597 613 663 q 685 443 685 531 l 685 406 l 185 406 l 185 401 m 376 667 q 259 619 314 667 q 189 468 204 571 l 549 468 q 527 568 549 524 q 467 640 506 613 q 376 667 428 667 m 607 1103 l 451 863 q 411 835 438 842 q 359 837 385 829 q 321 863 333 844 l 161 1103 l 174 1111 l 382 961 l 390 961 l 594 1111 l 607 1103 z "},"Ĝ":{"ha":1079,"x_min":72,"x_max":1017,"o":"m 600 -14 q 399 17 494 -14 q 231 111 304 47 q 115 275 157 175 q 72 513 72 375 q 135 799 72 675 q 316 992 197 922 q 600 1063 435 1063 q 782 1042 700 1063 q 922 1001 864 1021 l 832 774 l 814 774 q 722 935 793 879 q 544 990 651 990 q 308 867 382 990 q 235 522 235 743 q 327 165 235 278 q 574 51 419 51 q 718 87 667 51 q 769 182 769 122 l 769 429 q 740 536 769 493 q 663 586 711 579 l 663 611 l 1017 611 l 1017 586 q 940 536 968 579 q 911 429 911 493 l 911 182 q 932 83 911 122 q 988 39 953 44 l 988 14 q 865 -1 933 6 q 728 -10 797 -7 q 600 -14 660 -14 m 319 1124 l 475 1364 q 515 1392 489 1386 q 567 1390 542 1397 q 606 1364 593 1383 l 765 1124 l 753 1115 l 544 1265 l 536 1265 l 332 1115 l 319 1124 z "},"ĝ":{"ha":783,"x_min":33,"x_max":792,"o":"m 375 -299 q 262 -288 321 -299 q 151 -255 203 -278 q 66 -196 99 -232 q 33 -108 33 -160 q 68 -30 33 -65 q 160 31 103 6 q 286 65 217 56 q 205 102 240 81 q 153 158 169 124 l 153 176 q 230 220 193 197 q 299 275 267 243 q 184 317 235 285 q 104 397 133 350 q 75 501 75 444 q 113 616 75 564 q 213 700 150 668 q 351 732 275 732 q 464 712 411 732 q 556 657 517 692 q 629 725 586 699 q 714 751 672 751 q 770 732 749 751 q 792 681 792 713 q 773 634 792 654 q 728 614 754 614 q 690 625 704 614 q 663 647 675 636 q 635 657 651 657 q 585 626 613 657 q 631 501 631 569 q 592 385 631 438 q 492 302 554 333 q 354 271 429 271 q 326 242 339 258 q 314 213 314 226 q 344 178 314 192 q 424 151 375 164 q 528 122 474 138 q 631 82 582 106 q 711 22 681 58 q 742 -69 742 -15 q 690 -192 742 -140 q 555 -271 639 -243 q 375 -299 471 -299 m 206 501 q 244 377 206 424 q 351 331 282 331 q 463 377 425 331 q 500 501 500 424 q 465 626 500 581 q 351 672 429 672 q 242 626 278 672 q 206 501 206 579 m 151 -99 q 220 -199 151 -160 q 399 -235 289 -237 q 518 -217 467 -235 q 599 -172 569 -200 q 628 -111 628 -143 q 589 -35 628 -62 q 490 8 550 -8 q 367 42 431 25 q 151 -99 151 18 m 143 832 l 299 1072 q 339 1100 313 1094 q 391 1099 365 1106 q 429 1072 417 1092 l 589 832 l 576 824 l 368 974 l 360 974 l 156 824 l 143 832 z "},"Ğ":{"ha":1079,"x_min":72,"x_max":1017,"o":"m 600 -14 q 399 17 494 -14 q 231 111 304 47 q 115 275 157 175 q 72 513 72 375 q 135 799 72 675 q 316 992 197 922 q 600 1063 435 1063 q 782 1042 700 1063 q 922 1001 864 1021 l 832 774 l 814 774 q 722 935 793 879 q 544 990 651 990 q 308 867 382 990 q 235 522 235 743 q 327 165 235 278 q 574 51 419 51 q 718 87 667 51 q 769 182 769 122 l 769 429 q 740 536 769 493 q 663 586 711 579 l 663 611 l 1017 611 l 1017 586 q 940 536 968 579 q 911 429 911 493 l 911 182 q 932 83 911 122 q 988 39 953 44 l 988 14 q 865 -1 933 6 q 728 -10 797 -7 q 600 -14 660 -14 m 540 1122 q 386 1187 446 1122 q 326 1371 326 1251 l 343 1374 q 415 1269 358 1306 q 540 1233 471 1233 q 665 1269 610 1233 q 736 1374 721 1306 l 754 1371 q 694 1187 754 1251 q 540 1122 635 1122 z "},"ğ":{"ha":783,"x_min":33,"x_max":792,"o":"m 375 -299 q 262 -288 321 -299 q 151 -255 203 -278 q 66 -196 99 -232 q 33 -108 33 -160 q 68 -30 33 -65 q 160 31 103 6 q 286 65 217 56 q 205 102 240 81 q 153 158 169 124 l 153 176 q 230 220 193 197 q 299 275 267 243 q 184 317 235 285 q 104 397 133 350 q 75 501 75 444 q 113 616 75 564 q 213 700 150 668 q 351 732 275 732 q 464 712 411 732 q 556 657 517 692 q 629 725 586 699 q 714 751 672 751 q 770 732 749 751 q 792 681 792 713 q 773 634 792 654 q 728 614 754 614 q 690 625 704 614 q 663 647 675 636 q 635 657 651 657 q 585 626 613 657 q 631 501 631 569 q 592 385 631 438 q 492 302 554 333 q 354 271 429 271 q 326 242 339 258 q 314 213 314 226 q 344 178 314 192 q 424 151 375 164 q 528 122 474 138 q 631 82 582 106 q 711 22 681 58 q 742 -69 742 -15 q 690 -192 742 -140 q 555 -271 639 -243 q 375 -299 471 -299 m 206 501 q 244 377 206 424 q 351 331 282 331 q 463 377 425 331 q 500 501 500 424 q 465 626 500 581 q 351 672 429 672 q 242 626 278 672 q 206 501 206 579 m 151 -99 q 220 -199 151 -160 q 399 -235 289 -237 q 518 -217 467 -235 q 599 -172 569 -200 q 628 -111 628 -143 q 589 -35 628 -62 q 490 8 550 -8 q 367 42 431 25 q 151 -99 151 18 m 364 831 q 210 895 269 831 q 150 1079 150 960 l 167 1082 q 238 978 182 1014 q 364 942 294 942 q 489 978 433 942 q 560 1082 544 1014 l 578 1079 q 518 895 578 960 q 364 831 458 831 z "},"Ġ":{"ha":1079,"x_min":72,"x_max":1017,"o":"m 600 -14 q 399 17 494 -14 q 231 111 304 47 q 115 275 157 175 q 72 513 72 375 q 135 799 72 675 q 316 992 197 922 q 600 1063 435 1063 q 782 1042 700 1063 q 922 1001 864 1021 l 832 774 l 814 774 q 722 935 793 879 q 544 990 651 990 q 308 867 382 990 q 235 522 235 743 q 327 165 235 278 q 574 51 419 51 q 718 87 667 51 q 769 182 769 122 l 769 429 q 740 536 769 493 q 663 586 711 579 l 663 611 l 1017 611 l 1017 586 q 940 536 968 579 q 911 429 911 493 l 911 182 q 932 83 911 122 q 988 39 953 44 l 988 14 q 865 -1 933 6 q 728 -10 797 -7 q 600 -14 660 -14 m 540 1164 q 478 1192 503 1164 q 453 1258 453 1219 q 478 1326 453 1299 q 540 1353 503 1353 q 605 1326 579 1353 q 631 1258 631 1299 q 605 1192 631 1219 q 540 1164 579 1164 z "},"ġ":{"ha":783,"x_min":33,"x_max":792,"o":"m 375 -299 q 262 -288 321 -299 q 151 -255 203 -278 q 66 -196 99 -232 q 33 -108 33 -160 q 68 -30 33 -65 q 160 31 103 6 q 286 65 217 56 q 205 102 240 81 q 153 158 169 124 l 153 176 q 230 220 193 197 q 299 275 267 243 q 184 317 235 285 q 104 397 133 350 q 75 501 75 444 q 113 616 75 564 q 213 700 150 668 q 351 732 275 732 q 464 712 411 732 q 556 657 517 692 q 629 725 586 699 q 714 751 672 751 q 770 732 749 751 q 792 681 792 713 q 773 634 792 654 q 728 614 754 614 q 690 625 704 614 q 663 647 675 636 q 635 657 651 657 q 585 626 613 657 q 631 501 631 569 q 592 385 631 438 q 492 302 554 333 q 354 271 429 271 q 326 242 339 258 q 314 213 314 226 q 344 178 314 192 q 424 151 375 164 q 528 122 474 138 q 631 82 582 106 q 711 22 681 58 q 742 -69 742 -15 q 690 -192 742 -140 q 555 -271 639 -243 q 375 -299 471 -299 m 206 501 q 244 377 206 424 q 351 331 282 331 q 463 377 425 331 q 500 501 500 424 q 465 626 500 581 q 351 672 429 672 q 242 626 278 672 q 206 501 206 579 m 151 -99 q 220 -199 151 -160 q 399 -235 289 -237 q 518 -217 467 -235 q 599 -172 569 -200 q 628 -111 628 -143 q 589 -35 628 -62 q 490 8 550 -8 q 367 42 431 25 q 151 -99 151 18 m 364 872 q 301 900 326 872 q 276 967 276 928 q 301 1034 276 1007 q 364 1061 326 1061 q 428 1034 403 1061 q 454 967 454 1007 q 428 900 454 928 q 364 872 403 872 z "},"Ģ":{"ha":1079,"x_min":72,"x_max":1017,"o":"m 600 -14 q 399 17 494 -14 q 231 111 304 47 q 115 275 157 175 q 72 513 72 375 q 135 799 72 675 q 316 992 197 922 q 600 1063 435 1063 q 782 1042 700 1063 q 922 1001 864 1021 l 832 774 l 814 774 q 722 935 793 879 q 544 990 651 990 q 308 867 382 990 q 235 522 235 743 q 327 165 235 278 q 574 51 419 51 q 718 87 667 51 q 769 182 769 122 l 769 429 q 740 536 769 493 q 663 586 711 579 l 663 611 l 1017 611 l 1017 586 q 940 536 968 579 q 911 429 911 493 l 911 182 q 932 83 911 122 q 988 39 953 44 l 988 14 q 865 -1 933 6 q 728 -10 797 -7 q 600 -14 660 -14 m 631 -197 q 592 -301 631 -247 q 481 -394 554 -356 l 464 -381 q 524 -315 503 -344 q 557 -260 546 -286 q 482 -233 513 -257 q 451 -175 451 -210 q 476 -120 451 -143 q 540 -97 501 -97 q 603 -127 576 -97 q 631 -197 631 -157 z "},"ģ":{"ha":783,"x_min":33,"x_max":792,"o":"m 375 -299 q 262 -288 321 -299 q 151 -255 203 -278 q 66 -196 99 -232 q 33 -108 33 -160 q 68 -30 33 -65 q 160 31 103 6 q 286 65 217 56 q 205 102 240 81 q 153 158 169 124 l 153 176 q 230 220 193 197 q 299 275 267 243 q 184 317 235 285 q 104 397 133 350 q 75 501 75 444 q 113 616 75 564 q 213 700 150 668 q 351 732 275 732 q 464 712 411 732 q 556 657 517 692 q 629 725 586 699 q 714 751 672 751 q 770 732 749 751 q 792 681 792 713 q 773 634 792 654 q 728 614 754 614 q 690 625 704 614 q 663 647 675 636 q 635 657 651 657 q 585 626 613 657 q 631 501 631 569 q 592 385 631 438 q 492 302 554 333 q 354 271 429 271 q 326 242 339 258 q 314 213 314 226 q 344 178 314 192 q 424 151 375 164 q 528 122 474 138 q 631 82 582 106 q 711 22 681 58 q 742 -69 742 -15 q 690 -192 742 -140 q 555 -271 639 -243 q 375 -299 471 -299 m 206 501 q 244 377 206 424 q 351 331 282 331 q 463 377 425 331 q 500 501 500 424 q 465 626 500 581 q 351 672 429 672 q 242 626 278 672 q 206 501 206 579 m 151 -99 q 220 -199 151 -160 q 399 -235 289 -237 q 518 -217 467 -235 q 599 -172 569 -200 q 628 -111 628 -143 q 589 -35 628 -62 q 490 8 550 -8 q 367 42 431 25 q 151 -99 151 18 m 283 982 q 322 1086 283 1032 q 433 1179 361 1140 l 450 1165 q 390 1100 411 1129 q 357 1044 368 1071 q 432 1019 401 1042 q 463 960 463 996 q 438 905 463 928 q 374 882 413 882 q 310 912 338 882 q 283 982 283 942 z "},"Ĥ":{"ha":1118,"x_min":65,"x_max":1053,"o":"m 418 0 l 65 0 l 65 25 q 142 75 114 32 q 171 182 171 118 l 171 860 q 142 967 171 925 q 65 1017 114 1010 l 65 1042 l 418 1042 l 418 1017 q 342 967 371 1010 q 313 860 313 924 l 313 651 l 804 651 l 804 860 q 776 967 804 924 q 700 1017 749 1010 l 700 1042 l 1053 1042 l 1053 1017 q 975 967 1004 1010 q 946 860 946 925 l 946 182 q 975 75 946 118 q 1053 25 1004 32 l 1053 0 l 700 0 l 700 25 q 776 75 749 32 q 804 182 804 118 l 804 582 l 313 582 l 313 182 q 342 75 313 118 q 418 25 371 32 l 418 0 m 339 1124 l 494 1364 q 535 1392 508 1386 q 587 1390 561 1397 q 625 1364 613 1383 l 785 1124 l 772 1115 l 564 1265 l 556 1265 l 351 1115 l 339 1124 z "},"ĥ":{"ha":890,"x_min":-11,"x_max":833,"o":"m 63 25 q 126 72 103 36 q 149 168 149 108 l 149 828 q 128 931 149 897 q 57 974 107 964 l 57 999 q 264 1106 182 1031 l 283 1106 l 283 665 q 283 603 283 635 q 281 553 282 571 l 283 551 q 379 637 324 594 q 496 708 435 679 q 611 736 557 736 q 718 688 681 736 q 756 563 756 640 l 756 168 q 776 72 756 108 q 833 25 796 35 l 833 0 l 531 0 l 531 25 q 597 76 575 44 q 619 167 619 108 l 619 499 q 531 614 619 613 q 424 588 488 617 q 283 501 360 560 l 283 167 q 308 76 283 108 q 372 25 332 44 l 372 0 l 63 0 l 63 25 m -11 1158 l 144 1399 q 185 1426 158 1421 q 237 1425 211 1432 q 275 1399 263 1418 l 435 1158 l 422 1150 l 214 1300 l 206 1300 l 1 1150 l -11 1158 z "},"Ħ":{"ha":1118,"x_min":65,"x_max":1053,"o":"m 418 0 l 65 0 l 65 25 q 142 75 114 32 q 171 182 171 118 l 171 693 l 65 693 l 65 763 l 171 763 l 171 860 q 142 967 171 925 q 65 1017 114 1010 l 65 1042 l 418 1042 l 418 1017 q 342 967 371 1010 q 313 860 313 924 l 313 763 l 804 763 l 804 860 q 776 967 804 924 q 700 1017 749 1010 l 700 1042 l 1053 1042 l 1053 1017 q 975 967 1004 1010 q 946 860 946 925 l 946 763 l 1051 763 l 1051 693 l 946 693 l 946 182 q 975 75 946 118 q 1053 25 1004 32 l 1053 0 l 700 0 l 700 25 q 776 75 749 32 q 804 182 804 118 l 804 443 l 313 443 l 313 182 q 342 75 313 118 q 418 25 371 32 l 418 0 m 313 513 l 804 513 l 804 693 l 313 693 l 313 513 z "},"ħ":{"ha":890,"x_min":57,"x_max":833,"o":"m 63 25 q 126 72 103 36 q 149 168 149 108 l 149 818 l 57 818 l 57 881 l 144 881 q 117 944 138 922 q 57 974 96 965 l 57 999 q 264 1106 182 1031 l 283 1106 l 283 881 l 485 881 l 485 818 l 283 818 l 283 665 q 283 603 283 635 q 281 553 282 571 l 283 551 q 379 637 324 594 q 496 708 435 679 q 611 736 557 736 q 718 688 681 736 q 756 563 756 640 l 756 168 q 776 72 756 108 q 833 25 796 35 l 833 0 l 531 0 l 531 25 q 597 76 575 44 q 619 167 619 108 l 619 499 q 531 614 619 613 q 424 588 488 617 q 283 501 360 560 l 283 167 q 308 76 283 108 q 372 25 332 44 l 372 0 l 63 0 l 63 25 z "},"Ĩ":{"ha":485,"x_min":43,"x_max":442,"o":"m 419 0 l 65 0 l 65 25 q 142 75 114 32 q 171 182 171 118 l 171 860 q 142 967 171 925 q 65 1017 114 1010 l 65 1042 l 419 1042 l 419 1017 q 342 967 371 1010 q 313 860 313 925 l 313 182 q 342 75 313 118 q 419 25 371 32 l 419 0 m 314 1144 q 260 1158 285 1144 q 217 1190 236 1172 q 178 1222 197 1208 q 140 1236 160 1236 q 92 1211 113 1236 q 60 1153 72 1186 l 43 1157 q 83 1295 50 1249 q 169 1342 117 1342 q 222 1328 199 1342 q 266 1295 246 1314 q 305 1263 286 1276 q 344 1249 324 1249 q 394 1270 372 1249 q 425 1335 417 1292 l 442 1331 q 401 1192 435 1239 q 314 1144 367 1144 z "},"ĩ":{"ha":435,"x_min":13,"x_max":411,"o":"m 67 0 l 67 24 q 133 71 108 35 q 157 167 157 107 l 157 467 q 140 561 157 519 q 65 613 122 603 l 65 638 q 272 744 190 669 l 292 744 l 292 167 q 315 71 292 107 q 376 24 338 35 l 376 0 l 67 0 m 283 853 q 230 867 254 853 q 186 899 206 881 q 148 931 167 917 q 110 944 129 944 q 62 919 82 944 q 29 861 42 894 l 13 865 q 53 1003 19 957 q 139 1050 86 1050 q 192 1036 168 1050 q 235 1003 215 1022 q 274 971 256 985 q 314 957 293 957 q 364 978 342 957 q 394 1043 386 1000 l 411 1039 q 370 900 404 947 q 283 853 336 853 z "},"Ī":{"ha":485,"x_min":21,"x_max":465,"o":"m 419 0 l 65 0 l 65 25 q 142 75 114 32 q 171 182 171 118 l 171 860 q 142 967 171 925 q 65 1017 114 1010 l 65 1042 l 419 1042 l 419 1017 q 342 967 371 1010 q 313 860 313 925 l 313 182 q 342 75 313 118 q 419 25 371 32 l 419 0 m 21 1167 l 21 1236 l 465 1236 l 465 1167 l 21 1167 z "},"ī":{"ha":435,"x_min":-10,"x_max":435,"o":"m 67 0 l 67 24 q 133 71 108 35 q 157 167 157 107 l 157 467 q 140 561 157 519 q 65 613 122 603 l 65 638 q 272 744 190 669 l 292 744 l 292 167 q 315 71 292 107 q 376 24 338 35 l 376 0 l 67 0 m -10 875 l -10 944 l 435 944 l 435 875 l -10 875 z "},"Ĭ":{"ha":485,"x_min":29,"x_max":457,"o":"m 419 0 l 65 0 l 65 25 q 142 75 114 32 q 171 182 171 118 l 171 860 q 142 967 171 925 q 65 1017 114 1010 l 65 1042 l 419 1042 l 419 1017 q 342 967 371 1010 q 313 860 313 925 l 313 182 q 342 75 313 118 q 419 25 371 32 l 419 0 m 243 1122 q 89 1187 149 1122 q 29 1371 29 1251 l 46 1374 q 117 1269 61 1306 q 243 1233 174 1233 q 368 1269 313 1233 q 439 1374 424 1306 l 457 1371 q 397 1187 457 1251 q 243 1122 338 1122 z "},"ĭ":{"ha":435,"x_min":-1,"x_max":426,"o":"m 67 0 l 67 24 q 133 71 108 35 q 157 167 157 107 l 157 467 q 140 561 157 519 q 65 613 122 603 l 65 638 q 272 744 190 669 l 292 744 l 292 167 q 315 71 292 107 q 376 24 338 35 l 376 0 l 67 0 m 213 831 q 58 895 118 831 q -1 1079 -1 960 l 15 1082 q 87 978 31 1014 q 213 942 143 942 q 338 978 282 942 q 408 1082 393 1014 l 426 1079 q 367 895 426 960 q 213 831 307 831 z "},"Į":{"ha":485,"x_min":65,"x_max":419,"o":"m 419 0 l 65 0 l 65 25 q 142 75 114 32 q 171 182 171 118 l 171 860 q 142 967 171 925 q 65 1017 114 1010 l 65 1042 l 419 1042 l 419 1017 q 342 967 371 1010 q 313 860 313 925 l 313 182 q 342 75 313 118 q 419 25 371 32 l 419 0 m 225 -285 q 121 -252 163 -285 q 79 -167 79 -219 q 124 -63 79 -111 q 236 25 169 -15 l 244 10 q 204 -53 219 -19 q 189 -122 189 -86 q 213 -190 189 -165 q 274 -214 238 -214 q 328 -201 299 -214 q 381 -167 358 -187 l 393 -178 q 326 -255 369 -225 q 225 -285 282 -285 z "},"į":{"ha":435,"x_min":65,"x_max":394,"o":"m 213 872 q 150 900 175 872 q 125 967 125 928 q 150 1034 125 1007 q 213 1061 175 1061 q 277 1034 251 1061 q 303 967 303 1007 q 277 900 303 928 q 213 872 251 872 m 67 0 l 67 24 q 133 71 108 35 q 157 167 157 107 l 157 467 q 140 561 157 519 q 65 613 122 603 l 65 638 q 272 744 190 669 l 292 744 l 292 167 q 315 71 292 107 q 376 24 338 35 l 376 0 l 67 0 m 226 -285 q 122 -252 164 -285 q 81 -167 81 -219 q 126 -63 81 -111 q 238 25 171 -15 l 246 10 q 206 -53 221 -19 q 190 -122 190 -86 q 215 -190 190 -165 q 275 -214 239 -214 q 330 -201 300 -214 q 382 -167 360 -187 l 394 -178 q 327 -255 371 -225 q 226 -285 283 -285 z "},"İ":{"ha":485,"x_min":65,"x_max":419,"o":"m 419 0 l 65 0 l 65 25 q 142 75 114 32 q 171 182 171 118 l 171 860 q 142 967 171 925 q 65 1017 114 1010 l 65 1042 l 419 1042 l 419 1017 q 342 967 371 1010 q 313 860 313 925 l 313 182 q 342 75 313 118 q 419 25 371 32 l 419 0 m 243 1164 q 181 1192 206 1164 q 156 1258 156 1219 q 181 1326 156 1299 q 243 1353 206 1353 q 308 1326 282 1353 q 333 1258 333 1299 q 308 1192 333 1219 q 243 1164 282 1164 z "},"ı":{"ha":435,"x_min":65,"x_max":376,"o":"m 67 0 l 67 24 q 133 71 108 35 q 157 167 157 107 l 157 467 q 140 561 157 519 q 65 613 122 603 l 65 638 q 272 744 190 669 l 292 744 l 292 167 q 315 71 292 107 q 376 24 338 35 l 376 0 l 67 0 z "},"Ĳ":{"ha":904,"x_min":51,"x_max":853,"o":"m 444 -21 q 307 -1 361 -21 q 227 51 253 19 q 201 114 201 82 q 225 172 201 146 q 292 199 249 199 q 358 174 336 199 q 394 118 379 149 q 430 63 411 88 q 488 38 449 38 q 578 92 538 38 q 619 265 619 147 l 619 860 q 591 968 619 925 q 514 1017 563 1011 l 514 1042 l 853 1042 l 853 1017 q 785 969 810 1013 q 761 860 761 926 l 761 265 q 718 106 761 169 q 603 10 675 42 q 444 -21 532 -21 m 51 417 l 51 442 q 128 492 100 449 q 157 599 157 535 l 157 860 q 128 967 157 925 q 51 1017 100 1010 l 51 1042 l 406 1042 l 406 1017 q 328 967 357 1010 q 299 860 299 925 l 299 599 q 328 492 299 535 q 406 442 357 449 l 406 417 l 51 417 z "},"ĳ":{"ha":856,"x_min":65,"x_max":731,"o":"m 553 967 q 578 1034 553 1007 q 640 1061 603 1061 q 705 1034 679 1061 q 731 967 731 1007 q 705 900 731 928 q 640 872 679 872 q 578 900 603 872 q 553 967 553 928 m 358 -185 q 376 -134 358 -154 q 422 -114 393 -114 q 467 -128 450 -114 q 497 -160 483 -142 q 525 -193 510 -179 q 564 -207 540 -207 q 610 -181 593 -207 q 628 -112 628 -156 q 616 -35 628 -74 q 585 33 604 4 l 585 467 q 567 561 585 519 q 493 613 550 603 l 493 638 q 700 744 618 669 l 719 744 l 719 -50 q 689 -180 719 -124 q 610 -267 658 -236 q 508 -299 561 -299 q 438 -285 472 -299 q 381 -245 403 -271 q 358 -185 358 -219 m 213 872 q 150 900 175 872 q 125 967 125 928 q 150 1034 125 1007 q 213 1061 175 1061 q 277 1034 251 1061 q 303 967 303 1007 q 277 900 303 928 q 213 872 251 872 m 67 0 l 67 24 q 133 71 108 35 q 157 167 157 107 l 157 467 q 140 561 157 519 q 65 613 122 603 l 65 638 q 272 744 190 669 l 292 744 l 292 167 q 315 71 292 107 q 376 24 338 35 l 376 0 l 67 0 z "},"Ĵ":{"ha":701,"x_min":-1,"x_max":701,"o":"m 242 -21 q 103 -1 157 -21 q 24 51 50 19 q -1 114 -1 82 q 22 172 -1 146 q 89 199 46 199 q 155 174 133 199 q 192 118 176 149 q 227 63 208 88 q 285 38 246 38 q 376 92 335 38 q 417 265 417 147 l 417 860 q 388 968 417 925 q 311 1017 360 1011 l 311 1042 l 650 1042 l 650 1017 q 583 969 607 1013 q 558 860 558 926 l 558 265 q 515 106 558 169 q 401 10 472 42 q 242 -21 329 -21 m 256 1124 l 411 1364 q 451 1392 425 1386 q 503 1390 478 1397 q 542 1364 529 1383 l 701 1124 l 689 1115 l 481 1265 l 472 1265 l 268 1115 l 256 1124 z "},"ĵ":{"ha":421,"x_min":-76,"x_max":465,"o":"m -76 -181 q -60 -133 -76 -153 q -14 -112 -43 -112 q 31 -127 14 -112 q 61 -160 49 -142 q 87 -192 74 -178 q 119 -207 100 -207 q 157 -189 146 -207 q 171 -143 168 -171 q 167 -72 172 -111 q 156 6 163 -32 q 150 74 150 44 l 150 467 q 133 561 150 519 q 58 613 115 603 l 58 638 q 265 744 183 669 l 285 744 l 285 -39 q 254 -172 285 -112 q 177 -265 224 -231 q 81 -299 131 -299 q -28 -267 21 -299 q -76 -181 -76 -236 m 19 832 l 175 1072 q 215 1100 189 1094 q 267 1099 242 1106 q 306 1072 293 1092 l 465 832 l 453 824 l 244 974 l 236 974 l 32 824 l 19 832 z "},"Ķ":{"ha":1069,"x_min":65,"x_max":1047,"o":"m 418 0 l 65 0 l 65 25 q 142 75 114 32 q 171 182 171 118 l 171 860 q 142 967 171 925 q 65 1017 114 1010 l 65 1042 l 418 1042 l 418 1017 q 342 967 371 1010 q 313 860 313 924 l 313 518 l 679 878 q 715 960 722 919 q 646 1017 708 1000 l 646 1042 l 989 1042 l 989 1017 q 855 944 917 994 q 732 835 793 894 l 561 668 l 907 154 q 967 76 935 111 q 1047 26 999 42 l 1047 0 l 719 0 l 719 26 q 775 72 769 42 q 756 138 781 101 l 457 565 l 313 425 l 313 182 q 342 75 313 118 q 418 25 371 32 l 418 0 m 625 -197 q 587 -301 625 -247 q 475 -394 549 -356 l 458 -381 q 519 -315 497 -344 q 551 -260 540 -286 q 476 -233 507 -257 q 446 -175 446 -210 q 471 -120 446 -143 q 535 -97 496 -97 q 598 -127 571 -97 q 625 -197 625 -157 z "},"ķ":{"ha":813,"x_min":57,"x_max":793,"o":"m 283 1106 l 283 374 l 486 572 q 514 643 528 613 q 458 690 500 674 l 458 715 l 743 715 l 743 690 q 658 643 701 676 q 557 554 614 610 l 453 453 l 667 154 q 735 69 700 108 q 793 25 769 29 l 793 0 l 497 0 l 497 25 q 544 69 543 32 q 508 154 544 106 l 357 363 l 283 290 l 283 167 q 306 72 283 108 q 368 25 329 36 l 368 0 l 72 0 l 72 25 q 149 168 149 44 l 149 828 q 128 931 149 897 q 57 974 107 964 l 57 999 q 264 1106 182 1031 l 283 1106 m 511 -197 q 473 -301 511 -247 q 361 -394 435 -356 l 344 -381 q 405 -315 383 -344 q 438 -260 426 -286 q 363 -233 393 -257 q 332 -175 332 -210 q 357 -120 332 -143 q 421 -97 382 -97 q 484 -127 457 -97 q 511 -197 511 -157 z "},"Ĺ":{"ha":863,"x_min":65,"x_max":840,"o":"m 658 0 l 65 0 l 65 25 q 142 76 114 33 q 171 182 171 118 l 171 860 q 142 968 171 925 q 65 1017 114 1011 l 65 1042 l 418 1042 l 418 1017 q 342 967 371 1010 q 313 860 313 924 l 313 182 q 347 95 313 128 q 440 63 382 63 q 599 84 531 63 q 721 154 667 106 q 821 285 775 203 l 840 283 l 761 -25 l 736 -25 q 702 -5 719 -10 q 658 0 685 0 m 310 1369 q 353 1397 328 1389 q 400 1385 378 1404 q 421 1340 422 1367 q 400 1290 419 1314 q 350 1247 379 1268 q 279 1194 321 1225 q 181 1117 238 1164 l 165 1131 q 231 1239 207 1194 q 271 1315 254 1283 q 310 1369 288 1346 z "},"ĺ":{"ha":426,"x_min":57,"x_max":378,"o":"m 283 1106 l 283 168 q 306 72 283 108 q 368 25 329 36 l 368 0 l 72 0 l 72 25 q 149 168 149 44 l 149 828 q 131 922 149 881 q 57 974 114 963 l 57 999 q 264 1106 182 1031 l 283 1106 m 265 1404 q 308 1431 283 1424 q 356 1419 333 1439 q 376 1375 378 1401 q 356 1325 375 1349 q 306 1281 335 1303 q 235 1229 276 1260 q 136 1151 193 1199 l 121 1165 q 186 1274 163 1229 q 226 1349 210 1318 q 265 1404 243 1381 z "},"Ļ":{"ha":863,"x_min":65,"x_max":840,"o":"m 658 0 l 65 0 l 65 25 q 142 76 114 33 q 171 182 171 118 l 171 860 q 142 968 171 925 q 65 1017 114 1011 l 65 1042 l 418 1042 l 418 1017 q 342 967 371 1010 q 313 860 313 924 l 313 182 q 347 95 313 128 q 440 63 382 63 q 599 84 531 63 q 721 154 667 106 q 821 285 775 203 l 840 283 l 761 -25 l 736 -25 q 702 -5 719 -10 q 658 0 685 0 m 522 -197 q 484 -301 522 -247 q 372 -394 446 -356 l 356 -381 q 416 -315 394 -344 q 449 -260 438 -286 q 374 -233 404 -257 q 343 -175 343 -210 q 368 -120 343 -143 q 432 -97 393 -97 q 495 -127 468 -97 q 522 -197 522 -157 z "},"ļ":{"ha":426,"x_min":57,"x_max":368,"o":"m 283 1106 l 283 168 q 306 72 283 108 q 368 25 329 36 l 368 0 l 72 0 l 72 25 q 149 168 149 44 l 149 828 q 131 922 149 881 q 57 974 114 963 l 57 999 q 264 1106 182 1031 l 283 1106 m 304 -197 q 266 -301 304 -247 q 154 -394 228 -356 l 138 -381 q 198 -315 176 -344 q 231 -260 219 -286 q 156 -233 186 -257 q 125 -175 125 -210 q 150 -120 125 -143 q 214 -97 175 -97 q 277 -127 250 -97 q 304 -197 304 -157 z "},"Ľ":{"ha":863,"x_min":65,"x_max":840,"o":"m 658 0 l 65 0 l 65 25 q 142 76 114 33 q 171 182 171 118 l 171 860 q 142 968 171 925 q 65 1017 114 1011 l 65 1042 l 418 1042 l 418 1017 q 342 967 371 1010 q 313 860 313 924 l 313 182 q 347 95 313 128 q 440 63 382 63 q 599 84 531 63 q 721 154 667 106 q 821 285 775 203 l 840 283 l 761 -25 l 736 -25 q 702 -5 719 -10 q 658 0 685 0 m 582 1007 q 608 1044 589 1031 q 650 1051 626 1058 q 681 1022 675 1043 q 682 978 688 1000 q 659 922 675 949 q 621 857 643 894 q 571 758 599 819 l 563 763 q 572 872 571 828 q 574 949 572 917 q 582 1007 575 981 z "},"ľ":{"ha":426,"x_min":57,"x_max":481,"o":"m 283 1106 l 283 168 q 306 72 283 108 q 368 25 329 36 l 368 0 l 72 0 l 72 25 q 149 168 149 44 l 149 828 q 131 922 149 881 q 57 974 114 963 l 57 999 q 264 1106 182 1031 l 283 1106 m 375 1051 q 401 1089 382 1075 q 443 1096 419 1103 q 474 1066 468 1088 q 475 1022 481 1044 q 452 966 468 993 q 414 901 436 939 q 364 803 392 864 l 356 807 q 365 917 364 872 q 367 993 365 961 q 375 1051 368 1025 z "},"Ŀ":{"ha":939,"x_min":65,"x_max":840,"o":"m 658 0 l 65 0 l 65 25 q 142 76 114 33 q 171 182 171 118 l 171 860 q 142 968 171 925 q 65 1017 114 1011 l 65 1042 l 418 1042 l 418 1017 q 342 967 371 1010 q 313 860 313 924 l 313 182 q 347 95 313 128 q 440 63 382 63 q 599 84 531 63 q 721 154 667 106 q 821 285 775 203 l 840 283 l 761 -25 l 736 -25 q 702 -5 719 -10 q 658 0 685 0 m 725 532 q 663 560 688 532 q 638 626 638 588 q 663 694 638 667 q 725 721 688 721 q 790 694 764 721 q 815 626 815 667 q 790 560 815 588 q 725 532 764 532 z "},"ŀ":{"ha":539,"x_min":57,"x_max":568,"o":"m 283 1106 l 283 168 q 306 72 283 108 q 368 25 329 36 l 368 0 l 72 0 l 72 25 q 149 168 149 44 l 149 828 q 131 922 149 881 q 57 974 114 963 l 57 999 q 264 1106 182 1031 l 283 1106 m 478 385 q 415 413 440 385 q 390 479 390 440 q 415 547 390 519 q 478 574 440 574 q 542 547 517 574 q 568 479 568 519 q 542 413 568 440 q 478 385 517 385 z "},"Ł":{"ha":939,"x_min":32,"x_max":840,"o":"m 32 436 l 32 494 l 171 529 l 171 860 q 142 968 171 925 q 65 1017 114 1011 l 65 1042 l 418 1042 l 418 1017 q 342 967 371 1010 q 313 860 313 924 l 313 564 l 644 647 l 644 589 l 313 506 l 313 182 q 347 95 313 128 q 440 63 382 63 q 599 84 531 63 q 721 154 667 106 q 821 285 775 203 l 840 283 l 761 -25 l 736 -25 q 702 -5 719 -10 q 658 0 685 0 l 65 0 l 65 25 q 142 76 114 33 q 171 182 171 118 l 171 471 l 32 436 z "},"ł":{"ha":426,"x_min":57,"x_max":368,"o":"m 74 414 l 74 486 l 149 518 l 149 828 q 131 922 149 881 q 57 974 114 963 l 57 999 q 264 1106 182 1031 l 283 1106 l 283 575 l 367 611 l 367 539 l 283 503 l 283 168 q 306 72 283 108 q 368 25 329 36 l 368 0 l 72 0 l 72 25 q 149 168 149 44 l 149 446 l 74 414 z "},"Ń":{"ha":1060,"x_min":61,"x_max":1014,"o":"m 917 -28 l 893 -28 l 243 869 l 243 196 q 274 81 243 128 q 356 25 304 35 l 356 0 l 61 0 l 61 25 q 141 81 111 35 q 171 196 171 128 l 171 874 q 143 967 171 928 q 67 1017 115 1007 l 67 1042 l 293 1042 l 843 281 l 843 846 q 813 962 843 915 q 735 1017 783 1008 l 735 1042 l 1014 1042 l 1014 1017 q 943 963 969 1010 q 917 846 917 917 l 917 -28 m 592 1369 q 635 1397 610 1389 q 682 1385 660 1404 q 703 1340 704 1367 q 682 1290 701 1314 q 632 1247 661 1268 q 561 1194 603 1225 q 463 1117 519 1164 l 447 1131 q 513 1239 489 1194 q 553 1315 536 1283 q 592 1369 569 1346 z "},"ń":{"ha":900,"x_min":65,"x_max":842,"o":"m 65 25 q 133 72 108 36 q 157 168 157 108 l 157 467 q 136 569 157 536 q 65 613 115 603 l 65 638 q 272 744 190 669 l 292 744 l 292 665 q 291 603 292 635 q 289 553 290 571 l 292 551 q 387 637 332 594 q 503 708 442 679 q 619 736 564 736 q 726 688 689 736 q 764 563 764 640 l 764 168 q 784 72 764 108 q 842 25 804 35 l 842 0 l 542 0 l 542 25 q 608 76 586 44 q 629 167 629 108 l 629 499 q 608 584 629 556 q 540 614 588 613 q 434 590 494 617 q 292 501 374 563 l 292 167 q 316 76 292 108 q 381 25 340 44 l 381 0 l 65 0 l 65 25 m 539 1078 q 582 1105 557 1097 q 629 1093 607 1113 q 650 1049 651 1075 q 629 999 649 1022 q 579 955 608 976 q 508 903 550 933 q 410 825 467 872 l 394 839 q 460 947 436 903 q 500 1023 483 992 q 539 1078 517 1054 z "},"Ņ":{"ha":1060,"x_min":61,"x_max":1014,"o":"m 917 -28 l 893 -28 l 243 869 l 243 196 q 274 81 243 128 q 356 25 304 35 l 356 0 l 61 0 l 61 25 q 141 81 111 35 q 171 196 171 128 l 171 874 q 143 967 171 928 q 67 1017 115 1007 l 67 1042 l 293 1042 l 843 281 l 843 846 q 813 962 843 915 q 735 1017 783 1008 l 735 1042 l 1014 1042 l 1014 1017 q 943 963 969 1010 q 917 846 917 917 l 917 -28 m 621 -197 q 583 -301 621 -247 q 471 -394 544 -356 l 454 -381 q 515 -315 493 -344 q 547 -260 536 -286 q 472 -233 503 -257 q 442 -175 442 -210 q 467 -120 442 -143 q 531 -97 492 -97 q 594 -127 567 -97 q 621 -197 621 -157 z "},"ņ":{"ha":900,"x_min":65,"x_max":842,"o":"m 65 25 q 133 72 108 36 q 157 168 157 108 l 157 467 q 136 569 157 536 q 65 613 115 603 l 65 638 q 272 744 190 669 l 292 744 l 292 665 q 291 603 292 635 q 289 553 290 571 l 292 551 q 387 637 332 594 q 503 708 442 679 q 619 736 564 736 q 726 688 689 736 q 764 563 764 640 l 764 168 q 784 72 764 108 q 842 25 804 35 l 842 0 l 542 0 l 542 25 q 608 76 586 44 q 629 167 629 108 l 629 499 q 608 584 629 556 q 540 614 588 613 q 434 590 494 617 q 292 501 374 563 l 292 167 q 316 76 292 108 q 381 25 340 44 l 381 0 l 65 0 l 65 25 m 540 -197 q 502 -301 540 -247 q 390 -394 464 -356 l 374 -381 q 434 -315 413 -344 q 467 -260 456 -286 q 392 -233 422 -257 q 361 -175 361 -210 q 386 -120 361 -143 q 450 -97 411 -97 q 513 -127 486 -97 q 540 -197 540 -157 z "},"Ň":{"ha":1060,"x_min":61,"x_max":1014,"o":"m 917 -28 l 893 -28 l 243 869 l 243 196 q 274 81 243 128 q 356 25 304 35 l 356 0 l 61 0 l 61 25 q 141 81 111 35 q 171 196 171 128 l 171 874 q 143 967 171 928 q 67 1017 115 1007 l 67 1042 l 293 1042 l 843 281 l 843 846 q 813 962 843 915 q 735 1017 783 1008 l 735 1042 l 1014 1042 l 1014 1017 q 943 963 969 1010 q 917 846 917 917 l 917 -28 m 756 1394 l 600 1154 q 560 1127 586 1133 q 508 1128 533 1121 q 469 1154 482 1136 l 310 1394 l 322 1403 l 531 1253 l 539 1253 l 743 1403 l 756 1394 z "},"ň":{"ha":900,"x_min":65,"x_max":842,"o":"m 65 25 q 133 72 108 36 q 157 168 157 108 l 157 467 q 136 569 157 536 q 65 613 115 603 l 65 638 q 272 744 190 669 l 292 744 l 292 665 q 291 603 292 635 q 289 553 290 571 l 292 551 q 387 637 332 594 q 503 708 442 679 q 619 736 564 736 q 726 688 689 736 q 764 563 764 640 l 764 168 q 784 72 764 108 q 842 25 804 35 l 842 0 l 542 0 l 542 25 q 608 76 586 44 q 629 167 629 108 l 629 499 q 608 584 629 556 q 540 614 588 613 q 434 590 494 617 q 292 501 374 563 l 292 167 q 316 76 292 108 q 381 25 340 44 l 381 0 l 65 0 l 65 25 m 703 1103 l 547 863 q 507 835 533 842 q 455 837 481 829 q 417 863 429 844 l 257 1103 l 269 1111 l 478 961 l 486 961 l 690 1111 l 703 1103 z "},"Ŋ":{"ha":1060,"x_min":61,"x_max":1014,"o":"m 706 -292 q 609 -272 646 -292 q 555 -221 572 -251 q 538 -160 538 -190 q 559 -110 538 -132 q 618 -87 581 -87 q 674 -105 654 -87 q 706 -146 694 -122 q 729 -187 718 -169 q 761 -204 740 -204 q 819 -169 794 -204 q 843 -61 843 -133 l 843 42 l 243 869 l 243 196 q 274 81 243 128 q 356 25 304 35 l 356 0 l 61 0 l 61 25 q 141 81 111 35 q 171 196 171 128 l 171 874 q 143 967 171 928 q 67 1017 115 1007 l 67 1042 l 293 1042 l 843 281 l 843 846 q 813 962 843 915 q 735 1017 783 1008 l 735 1042 l 1014 1042 l 1014 1017 q 943 963 969 1010 q 917 846 917 917 l 917 -61 q 887 -189 917 -137 q 809 -266 857 -240 q 706 -292 761 -292 z "},"ŋ":{"ha":900,"x_min":65,"x_max":764,"o":"m 65 0 l 65 25 q 133 72 108 36 q 157 168 157 108 l 157 467 q 136 569 157 536 q 65 613 115 603 l 65 638 q 272 744 190 669 l 292 744 l 292 665 q 291 603 292 635 q 289 553 290 571 l 292 551 q 387 637 332 594 q 503 708 442 679 q 619 736 564 736 q 726 688 689 736 q 764 563 764 640 l 764 -50 q 733 -180 764 -124 q 654 -267 703 -236 q 553 -299 606 -299 q 482 -285 517 -299 q 425 -245 447 -271 q 403 -185 403 -219 q 420 -134 403 -154 q 467 -114 438 -114 q 511 -128 494 -114 q 541 -160 528 -142 q 569 -193 554 -179 q 608 -207 585 -207 q 655 -181 638 -207 q 672 -112 672 -156 q 660 -35 672 -74 q 629 33 649 4 l 629 499 q 608 584 629 556 q 540 614 588 613 q 434 590 494 617 q 292 501 374 563 l 292 167 q 316 76 292 108 q 381 25 340 44 l 381 0 l 65 0 z "},"Ō":{"ha":1092,"x_min":72,"x_max":1019,"o":"m 72 521 q 108 734 72 636 q 209 906 144 832 q 360 1022 274 981 q 547 1063 447 1063 q 733 1022 647 1063 q 883 907 819 981 q 983 735 947 833 q 1019 521 1019 636 q 983 307 1019 406 q 881 135 946 208 q 731 20 817 61 q 547 -21 646 -21 q 364 20 450 -21 q 212 135 278 61 q 109 308 146 210 q 72 521 72 407 m 236 521 q 272 281 236 388 q 376 111 307 174 q 547 49 446 49 q 717 111 649 49 q 821 281 786 174 q 856 521 856 388 q 822 761 856 654 q 721 931 789 868 q 547 993 653 993 q 373 931 442 993 q 270 761 304 868 q 236 521 236 654 m 324 1167 l 324 1236 l 768 1236 l 768 1167 l 324 1167 z "},"ō":{"ha":824,"x_min":65,"x_max":758,"o":"m 65 360 q 111 553 65 468 q 235 687 157 638 q 411 736 314 736 q 588 688 510 736 q 713 554 667 639 q 758 360 758 469 q 711 164 758 250 q 585 28 664 78 q 411 -21 506 -21 q 238 29 317 -21 q 112 165 158 79 q 65 360 65 251 m 213 360 q 235 196 213 268 q 303 83 258 124 q 411 42 347 42 q 521 83 476 42 q 589 196 565 124 q 613 360 613 268 q 590 522 613 451 q 524 633 568 593 q 411 674 479 674 q 301 633 344 674 q 235 522 257 593 q 213 360 213 451 m 190 875 l 190 944 l 635 944 l 635 875 l 190 875 z "},"Ŏ":{"ha":1092,"x_min":72,"x_max":1019,"o":"m 72 521 q 108 734 72 636 q 209 906 144 832 q 360 1022 274 981 q 547 1063 447 1063 q 733 1022 647 1063 q 883 907 819 981 q 983 735 947 833 q 1019 521 1019 636 q 983 307 1019 406 q 881 135 946 208 q 731 20 817 61 q 547 -21 646 -21 q 364 20 450 -21 q 212 135 278 61 q 109 308 146 210 q 72 521 72 407 m 236 521 q 272 281 236 388 q 376 111 307 174 q 547 49 446 49 q 717 111 649 49 q 821 281 786 174 q 856 521 856 388 q 822 761 856 654 q 721 931 789 868 q 547 993 653 993 q 373 931 442 993 q 270 761 304 868 q 236 521 236 654 m 546 1122 q 392 1187 451 1122 q 332 1371 332 1251 l 349 1374 q 420 1269 364 1306 q 546 1233 476 1233 q 671 1269 615 1233 q 742 1374 726 1306 l 760 1371 q 700 1187 760 1251 q 546 1122 640 1122 z "},"ŏ":{"ha":824,"x_min":65,"x_max":758,"o":"m 65 360 q 111 553 65 468 q 235 687 157 638 q 411 736 314 736 q 588 688 510 736 q 713 554 667 639 q 758 360 758 469 q 711 164 758 250 q 585 28 664 78 q 411 -21 506 -21 q 238 29 317 -21 q 112 165 158 79 q 65 360 65 251 m 213 360 q 235 196 213 268 q 303 83 258 124 q 411 42 347 42 q 521 83 476 42 q 589 196 565 124 q 613 360 613 268 q 590 522 613 451 q 524 633 568 593 q 411 674 479 674 q 301 633 344 674 q 235 522 257 593 q 213 360 213 451 m 413 831 q 258 895 318 831 q 199 1079 199 960 l 215 1082 q 287 978 231 1014 q 413 942 343 942 q 538 978 482 942 q 608 1082 593 1014 l 626 1079 q 567 895 626 960 q 413 831 507 831 z "},"Ő":{"ha":1092,"x_min":72,"x_max":1019,"o":"m 72 521 q 108 734 72 636 q 209 906 144 832 q 360 1022 274 981 q 547 1063 447 1063 q 733 1022 647 1063 q 883 907 819 981 q 983 735 947 833 q 1019 521 1019 636 q 983 307 1019 406 q 881 135 946 208 q 731 20 817 61 q 547 -21 646 -21 q 364 20 450 -21 q 212 135 278 61 q 109 308 146 210 q 72 521 72 407 m 236 521 q 272 281 236 388 q 376 111 307 174 q 547 49 446 49 q 717 111 649 49 q 821 281 786 174 q 856 521 856 388 q 822 761 856 654 q 721 931 789 868 q 547 993 653 993 q 373 931 442 993 q 270 761 304 868 q 236 521 236 654 m 525 1364 q 565 1389 542 1382 q 608 1378 588 1396 q 627 1336 628 1361 q 608 1290 626 1311 q 533 1228 579 1260 q 407 1132 486 1197 l 393 1144 q 453 1243 432 1203 q 490 1313 475 1283 q 525 1364 506 1342 m 719 1364 q 759 1389 736 1382 q 803 1378 782 1396 q 822 1336 822 1361 q 803 1290 821 1311 q 727 1228 774 1260 q 601 1132 681 1197 l 588 1144 q 648 1243 626 1203 q 685 1313 669 1283 q 719 1364 700 1342 z "},"ő":{"ha":824,"x_min":65,"x_max":758,"o":"m 65 360 q 111 553 65 468 q 235 687 157 638 q 411 736 314 736 q 588 688 510 736 q 713 554 667 639 q 758 360 758 469 q 711 164 758 250 q 585 28 664 78 q 411 -21 506 -21 q 238 29 317 -21 q 112 165 158 79 q 65 360 65 251 m 213 360 q 235 196 213 268 q 303 83 258 124 q 411 42 347 42 q 521 83 476 42 q 589 196 565 124 q 613 360 613 268 q 590 522 613 451 q 524 633 568 593 q 411 674 479 674 q 301 633 344 674 q 235 522 257 593 q 213 360 213 451 m 392 1072 q 431 1097 408 1090 q 475 1086 454 1104 q 494 1044 494 1069 q 475 999 493 1019 q 399 937 446 968 q 274 840 353 906 l 260 853 q 320 951 299 911 q 357 1021 342 992 q 392 1072 372 1050 m 586 1072 q 626 1097 603 1090 q 669 1086 649 1104 q 688 1044 689 1069 q 669 999 688 1019 q 594 937 640 968 q 468 840 547 906 l 454 853 q 515 951 493 911 q 551 1021 536 992 q 586 1072 567 1050 z "},"Œ":{"ha":1610,"x_min":93,"x_max":1551,"o":"m 1369 0 l 942 0 q 827 -10 888 -6 q 694 -14 767 -14 q 369 56 504 -14 q 164 247 235 125 q 93 529 93 369 q 140 773 93 672 q 270 936 188 874 q 458 1027 353 999 q 678 1056 563 1056 q 798 1052 735 1056 q 921 1042 861 1049 l 1353 1042 q 1404 1049 1382 1042 q 1438 1067 1426 1057 l 1457 1067 l 1511 779 l 1489 776 q 1395 900 1450 856 q 1267 962 1340 944 q 1096 979 1193 979 q 981 947 1024 979 q 939 863 939 915 l 939 601 l 1197 601 q 1321 622 1271 601 q 1393 706 1371 643 l 1413 706 l 1413 422 l 1393 422 q 1199 532 1339 532 l 939 532 l 939 186 q 981 97 939 131 q 1096 63 1024 63 q 1355 110 1250 63 q 1532 285 1460 158 l 1551 283 l 1472 -25 l 1449 -25 q 1413 -5 1431 -10 q 1369 0 1396 0 m 797 181 l 797 849 q 653 990 797 990 q 434 947 522 990 q 301 807 346 904 q 256 546 256 710 q 360 183 256 313 q 663 54 465 54 q 765 85 732 54 q 797 181 797 115 z "},"œ":{"ha":1322,"x_min":65,"x_max":1258,"o":"m 65 360 q 111 553 65 468 q 235 687 157 638 q 411 736 314 736 q 581 692 504 736 q 703 571 657 647 q 821 691 749 646 q 982 736 893 736 q 1124 699 1061 736 q 1222 597 1186 663 q 1258 443 1258 531 l 1258 406 l 758 406 l 758 401 q 794 224 758 294 q 889 118 831 153 q 1015 83 947 83 q 1135 115 1081 83 q 1225 203 1190 147 l 1247 190 q 1184 78 1229 126 q 1081 5 1139 31 q 961 -21 1022 -21 q 810 17 883 -21 q 692 132 736 56 q 569 20 643 61 q 411 -21 496 -21 q 238 29 317 -21 q 112 165 158 79 q 65 360 65 251 m 613 360 q 590 522 613 451 q 524 633 568 593 q 411 674 479 674 q 301 633 344 674 q 235 522 257 593 q 213 360 213 451 q 235 196 213 268 q 303 83 258 124 q 411 42 347 42 q 521 83 476 42 q 589 196 565 124 q 613 360 613 268 m 950 667 q 833 619 888 667 q 763 468 778 571 l 1122 468 q 1101 568 1122 524 q 1040 640 1079 613 q 950 667 1001 667 z "},"Ŕ":{"ha":967,"x_min":65,"x_max":1013,"o":"m 65 1028 q 258 1049 156 1042 q 451 1056 361 1056 q 673 1016 579 1056 q 817 906 767 976 q 868 739 868 835 q 828 585 868 650 q 721 479 788 519 q 575 424 654 439 q 696 233 622 328 q 853 56 769 138 q 1013 -81 936 -26 l 1003 -100 q 663 90 815 -43 q 418 414 511 224 q 313 429 363 418 l 313 182 q 342 76 313 119 q 418 25 371 33 l 418 0 l 65 0 l 65 25 q 142 75 114 32 q 171 182 171 118 l 171 853 q 142 955 171 914 q 65 1003 114 996 l 65 1028 m 313 860 l 313 488 q 433 478 379 478 q 640 540 571 478 q 708 717 708 603 q 675 863 708 800 q 587 959 642 925 q 467 993 532 993 q 358 959 403 993 q 313 860 313 925 m 544 1369 q 588 1397 563 1389 q 635 1385 613 1404 q 656 1340 657 1367 q 635 1290 654 1314 q 585 1247 614 1268 q 514 1194 556 1225 q 415 1117 472 1164 l 400 1131 q 465 1239 442 1194 q 506 1315 489 1283 q 544 1369 522 1346 z "},"ŕ":{"ha":604,"x_min":65,"x_max":582,"o":"m 292 665 q 291 633 292 650 q 288 606 290 615 l 292 604 q 382 694 331 653 q 489 736 433 736 q 555 710 528 736 q 582 644 582 685 q 558 581 582 606 q 507 557 535 557 q 460 572 478 557 q 426 601 442 586 q 382 615 410 615 q 340 601 360 615 q 292 563 319 588 l 292 168 q 317 78 292 114 q 385 25 342 42 l 385 0 l 65 0 l 65 25 q 135 77 114 40 q 157 168 157 114 l 157 467 q 135 569 157 536 q 65 613 114 603 l 65 638 q 272 744 190 669 l 292 744 l 292 665 m 389 1078 q 432 1105 407 1097 q 479 1093 457 1113 q 500 1049 501 1075 q 479 999 499 1022 q 429 955 458 976 q 358 903 400 933 q 260 825 317 872 l 244 839 q 310 947 286 903 q 350 1023 333 992 q 389 1078 367 1054 z "},"Ŗ":{"ha":967,"x_min":65,"x_max":1013,"o":"m 65 1028 q 258 1049 156 1042 q 451 1056 361 1056 q 673 1016 579 1056 q 817 906 767 976 q 868 739 868 835 q 828 585 868 650 q 721 479 788 519 q 575 424 654 439 q 696 233 622 328 q 853 56 769 138 q 1013 -81 936 -26 l 1003 -100 q 663 90 815 -43 q 418 414 511 224 q 313 429 363 418 l 313 182 q 342 76 313 119 q 418 25 371 33 l 418 0 l 65 0 l 65 25 q 142 75 114 32 q 171 182 171 118 l 171 853 q 142 955 171 914 q 65 1003 114 996 l 65 1028 m 313 860 l 313 488 q 433 478 379 478 q 640 540 571 478 q 708 717 708 603 q 675 863 708 800 q 587 959 642 925 q 467 993 532 993 q 358 959 403 993 q 313 860 313 925 m 574 -197 q 535 -301 574 -247 q 424 -394 497 -356 l 407 -381 q 467 -315 446 -344 q 500 -260 489 -286 q 425 -233 456 -257 q 394 -175 394 -210 q 419 -120 394 -143 q 483 -97 444 -97 q 547 -127 519 -97 q 574 -197 574 -157 z "},"ŗ":{"ha":604,"x_min":65,"x_max":582,"o":"m 292 665 q 291 633 292 650 q 288 606 290 615 l 292 604 q 382 694 331 653 q 489 736 433 736 q 555 710 528 736 q 582 644 582 685 q 558 581 582 606 q 507 557 535 557 q 460 572 478 557 q 426 601 442 586 q 382 615 410 615 q 340 601 360 615 q 292 563 319 588 l 292 168 q 317 78 292 114 q 385 25 342 42 l 385 0 l 65 0 l 65 25 q 135 77 114 40 q 157 168 157 114 l 157 467 q 135 569 157 536 q 65 613 114 603 l 65 638 q 272 744 190 669 l 292 744 l 292 665 m 308 -197 q 270 -301 308 -247 q 158 -394 232 -356 l 142 -381 q 202 -315 181 -344 q 235 -260 224 -286 q 160 -233 190 -257 q 129 -175 129 -210 q 154 -120 129 -143 q 218 -97 179 -97 q 281 -127 254 -97 q 308 -197 308 -157 z "},"Ř":{"ha":967,"x_min":65,"x_max":1013,"o":"m 65 1028 q 258 1049 156 1042 q 451 1056 361 1056 q 673 1016 579 1056 q 817 906 767 976 q 868 739 868 835 q 828 585 868 650 q 721 479 788 519 q 575 424 654 439 q 696 233 622 328 q 853 56 769 138 q 1013 -81 936 -26 l 1003 -100 q 663 90 815 -43 q 418 414 511 224 q 313 429 363 418 l 313 182 q 342 76 313 119 q 418 25 371 33 l 418 0 l 65 0 l 65 25 q 142 75 114 32 q 171 182 171 118 l 171 853 q 142 955 171 914 q 65 1003 114 996 l 65 1028 m 313 860 l 313 488 q 433 478 379 478 q 640 540 571 478 q 708 717 708 603 q 675 863 708 800 q 587 959 642 925 q 467 993 532 993 q 358 959 403 993 q 313 860 313 925 m 708 1394 l 553 1154 q 513 1127 539 1133 q 460 1128 486 1121 q 422 1154 435 1136 l 263 1394 l 275 1403 l 483 1253 l 492 1253 l 696 1403 l 708 1394 z "},"ř":{"ha":604,"x_min":65,"x_max":582,"o":"m 292 665 q 291 633 292 650 q 288 606 290 615 l 292 604 q 382 694 331 653 q 489 736 433 736 q 555 710 528 736 q 582 644 582 685 q 558 581 582 606 q 507 557 535 557 q 460 572 478 557 q 426 601 442 586 q 382 615 410 615 q 340 601 360 615 q 292 563 319 588 l 292 168 q 317 78 292 114 q 385 25 342 42 l 385 0 l 65 0 l 65 25 q 135 77 114 40 q 157 168 157 114 l 157 467 q 135 569 157 536 q 65 613 114 603 l 65 638 q 272 744 190 669 l 292 744 l 292 665 m 553 1103 l 397 863 q 357 835 383 842 q 305 837 331 829 q 267 863 279 844 l 107 1103 l 119 1111 l 328 961 l 336 961 l 540 1111 l 553 1103 z "},"Ś":{"ha":926,"x_min":43,"x_max":851,"o":"m 851 306 q 799 136 851 210 q 654 21 746 63 q 443 -21 563 -21 q 301 -8 375 -21 q 160 26 228 6 q 43 67 93 46 l 151 308 l 175 308 q 281 126 199 194 q 490 57 364 57 q 677 114 610 57 q 744 256 744 171 q 706 363 744 322 q 604 431 667 404 q 471 481 542 458 q 346 524 408 501 q 232 578 283 546 q 150 658 181 610 q 119 778 119 707 q 165 926 119 863 q 294 1026 211 990 q 485 1063 376 1063 q 654 1047 569 1063 q 807 1007 739 1031 l 735 790 l 711 790 q 612 934 686 883 q 432 985 538 985 q 329 966 376 985 q 254 913 282 947 q 226 829 226 878 q 252 747 226 781 q 322 690 278 714 q 420 648 365 667 q 533 610 475 629 q 649 567 593 590 q 751 509 706 543 q 824 426 797 475 q 851 306 851 376 m 525 1369 q 568 1397 543 1389 q 615 1385 593 1404 q 636 1340 638 1367 q 615 1290 635 1314 q 565 1247 594 1268 q 494 1194 536 1225 q 396 1117 453 1164 l 381 1131 q 446 1239 422 1194 q 486 1315 469 1283 q 525 1369 503 1346 z "},"ś":{"ha":706,"x_min":51,"x_max":635,"o":"m 635 214 q 595 95 635 149 q 486 11 556 42 q 325 -19 417 -19 q 195 -6 265 -19 q 51 36 125 8 l 131 228 l 147 228 q 195 126 157 165 q 285 69 233 88 q 389 50 338 50 q 500 85 456 50 q 544 167 544 119 q 515 235 544 210 q 438 278 485 261 q 336 310 390 294 q 225 351 279 328 q 136 416 171 375 q 101 525 101 457 q 135 631 101 583 q 231 708 168 679 q 379 736 293 736 q 488 725 426 736 q 593 694 550 714 l 540 521 l 521 521 q 444 631 501 592 q 324 671 386 671 q 229 642 265 671 q 193 572 193 614 q 225 507 193 532 q 308 466 257 482 q 413 432 358 450 q 519 389 468 414 q 602 322 569 364 q 635 214 635 281 m 414 1078 q 457 1105 432 1097 q 504 1093 482 1113 q 525 1049 526 1075 q 504 999 524 1022 q 454 955 483 976 q 383 903 425 933 q 285 825 342 872 l 269 839 q 335 947 311 903 q 375 1023 358 992 q 414 1078 392 1054 z "},"Ŝ":{"ha":926,"x_min":43,"x_max":851,"o":"m 851 306 q 799 136 851 210 q 654 21 746 63 q 443 -21 563 -21 q 301 -8 375 -21 q 160 26 228 6 q 43 67 93 46 l 151 308 l 175 308 q 281 126 199 194 q 490 57 364 57 q 677 114 610 57 q 744 256 744 171 q 706 363 744 322 q 604 431 667 404 q 471 481 542 458 q 346 524 408 501 q 232 578 283 546 q 150 658 181 610 q 119 778 119 707 q 165 926 119 863 q 294 1026 211 990 q 485 1063 376 1063 q 654 1047 569 1063 q 807 1007 739 1031 l 735 790 l 711 790 q 612 934 686 883 q 432 985 538 985 q 329 966 376 985 q 254 913 282 947 q 226 829 226 878 q 252 747 226 781 q 322 690 278 714 q 420 648 365 667 q 533 610 475 629 q 649 567 593 590 q 751 509 706 543 q 824 426 797 475 q 851 306 851 376 m 243 1124 l 399 1364 q 439 1392 413 1386 q 491 1390 465 1397 q 529 1364 517 1383 l 689 1124 l 676 1115 l 468 1265 l 460 1265 l 256 1115 l 243 1124 z "},"ŝ":{"ha":706,"x_min":51,"x_max":635,"o":"m 635 214 q 595 95 635 149 q 486 11 556 42 q 325 -19 417 -19 q 195 -6 265 -19 q 51 36 125 8 l 131 228 l 147 228 q 195 126 157 165 q 285 69 233 88 q 389 50 338 50 q 500 85 456 50 q 544 167 544 119 q 515 235 544 210 q 438 278 485 261 q 336 310 390 294 q 225 351 279 328 q 136 416 171 375 q 101 525 101 457 q 135 631 101 583 q 231 708 168 679 q 379 736 293 736 q 488 725 426 736 q 593 694 550 714 l 540 521 l 521 521 q 444 631 501 592 q 324 671 386 671 q 229 642 265 671 q 193 572 193 614 q 225 507 193 532 q 308 466 257 482 q 413 432 358 450 q 519 389 468 414 q 602 322 569 364 q 635 214 635 281 m 132 832 l 288 1072 q 328 1100 301 1094 q 380 1099 354 1106 q 418 1072 406 1092 l 578 832 l 565 824 l 357 974 l 349 974 l 144 824 l 132 832 z "},"Ş":{"ha":926,"x_min":43,"x_max":851,"o":"m 851 306 q 799 136 851 210 q 654 21 746 63 q 443 -21 563 -21 q 301 -8 375 -21 q 160 26 228 6 q 43 67 93 46 l 151 308 l 175 308 q 281 126 199 194 q 490 57 364 57 q 677 114 610 57 q 744 256 744 171 q 706 363 744 322 q 604 431 667 404 q 471 481 542 458 q 346 524 408 501 q 232 578 283 546 q 150 658 181 610 q 119 778 119 707 q 165 926 119 863 q 294 1026 211 990 q 485 1063 376 1063 q 654 1047 569 1063 q 807 1007 739 1031 l 735 790 l 711 790 q 612 934 686 883 q 432 985 538 985 q 329 966 376 985 q 254 913 282 947 q 226 829 226 878 q 252 747 226 781 q 322 690 278 714 q 420 648 365 667 q 533 610 475 629 q 649 567 593 590 q 751 509 706 543 q 824 426 797 475 q 851 306 851 376 m 410 -132 l 443 28 l 490 24 l 476 -57 q 576 -92 539 -62 q 613 -171 613 -122 q 589 -242 613 -210 q 527 -294 565 -275 q 444 -312 489 -312 q 346 -291 385 -312 q 307 -236 307 -269 q 319 -198 307 -215 q 358 -181 332 -181 q 399 -194 382 -181 q 419 -228 415 -207 q 431 -261 422 -254 q 453 -268 439 -268 q 501 -253 481 -268 q 521 -204 521 -239 q 493 -151 521 -167 q 426 -132 465 -135 l 410 -132 z "},"ş":{"ha":706,"x_min":51,"x_max":635,"o":"m 635 214 q 595 95 635 149 q 486 11 556 42 q 325 -19 417 -19 q 195 -6 265 -19 q 51 36 125 8 l 131 228 l 147 228 q 195 126 157 165 q 285 69 233 88 q 389 50 338 50 q 500 85 456 50 q 544 167 544 119 q 515 235 544 210 q 438 278 485 261 q 336 310 390 294 q 225 351 279 328 q 136 416 171 375 q 101 525 101 457 q 135 631 101 583 q 231 708 168 679 q 379 736 293 736 q 488 725 426 736 q 593 694 550 714 l 540 521 l 521 521 q 444 631 501 592 q 324 671 386 671 q 229 642 265 671 q 193 572 193 614 q 225 507 193 532 q 308 466 257 482 q 413 432 358 450 q 519 389 468 414 q 602 322 569 364 q 635 214 635 281 m 285 -132 l 318 28 l 365 24 l 351 -57 q 451 -92 414 -62 q 488 -171 488 -122 q 464 -242 488 -210 q 402 -294 440 -275 q 319 -312 364 -312 q 221 -291 260 -312 q 182 -236 182 -269 q 194 -198 182 -215 q 233 -181 207 -181 q 274 -194 257 -181 q 294 -228 290 -207 q 306 -261 297 -254 q 328 -268 314 -268 q 376 -253 356 -268 q 396 -204 396 -239 q 368 -151 396 -167 q 301 -132 340 -135 l 285 -132 z "},"Š":{"ha":926,"x_min":43,"x_max":851,"o":"m 851 306 q 799 136 851 210 q 654 21 746 63 q 443 -21 563 -21 q 301 -8 375 -21 q 160 26 228 6 q 43 67 93 46 l 151 308 l 175 308 q 281 126 199 194 q 490 57 364 57 q 677 114 610 57 q 744 256 744 171 q 706 363 744 322 q 604 431 667 404 q 471 481 542 458 q 346 524 408 501 q 232 578 283 546 q 150 658 181 610 q 119 778 119 707 q 165 926 119 863 q 294 1026 211 990 q 485 1063 376 1063 q 654 1047 569 1063 q 807 1007 739 1031 l 735 790 l 711 790 q 612 934 686 883 q 432 985 538 985 q 329 966 376 985 q 254 913 282 947 q 226 829 226 878 q 252 747 226 781 q 322 690 278 714 q 420 648 365 667 q 533 610 475 629 q 649 567 593 590 q 751 509 706 543 q 824 426 797 475 q 851 306 851 376 m 689 1394 l 533 1154 q 493 1127 519 1133 q 441 1128 467 1121 q 403 1154 415 1136 l 243 1394 l 256 1403 l 464 1253 l 472 1253 l 676 1403 l 689 1394 z "},"š":{"ha":706,"x_min":51,"x_max":635,"o":"m 635 214 q 595 95 635 149 q 486 11 556 42 q 325 -19 417 -19 q 195 -6 265 -19 q 51 36 125 8 l 131 228 l 147 228 q 195 126 157 165 q 285 69 233 88 q 389 50 338 50 q 500 85 456 50 q 544 167 544 119 q 515 235 544 210 q 438 278 485 261 q 336 310 390 294 q 225 351 279 328 q 136 416 171 375 q 101 525 101 457 q 135 631 101 583 q 231 708 168 679 q 379 736 293 736 q 488 725 426 736 q 593 694 550 714 l 540 521 l 521 521 q 444 631 501 592 q 324 671 386 671 q 229 642 265 671 q 193 572 193 614 q 225 507 193 532 q 308 466 257 482 q 413 432 358 450 q 519 389 468 414 q 602 322 569 364 q 635 214 635 281 m 578 1103 l 422 863 q 382 835 408 842 q 330 837 356 829 q 292 863 304 844 l 132 1103 l 144 1111 l 353 961 l 361 961 l 565 1111 l 578 1103 z "},"Ţ":{"ha":928,"x_min":22,"x_max":907,"o":"m 182 1042 l 749 1042 q 799 1049 776 1042 q 833 1067 821 1057 l 851 1067 l 907 779 l 883 776 q 800 899 839 854 q 723 961 761 943 q 639 979 685 979 q 560 958 583 979 q 536 903 536 938 l 536 182 q 565 76 536 118 q 642 25 593 33 l 642 0 l 288 0 l 288 25 q 365 76 336 33 q 394 182 394 118 l 394 903 q 371 958 394 938 q 293 979 347 979 q 208 960 247 979 q 130 898 168 942 q 46 776 92 854 l 22 779 l 78 1067 l 96 1067 q 131 1049 108 1057 q 182 1042 153 1042 m 410 -132 l 443 28 l 490 24 l 476 -57 q 576 -92 539 -62 q 613 -171 613 -122 q 589 -242 613 -210 q 527 -294 565 -275 q 444 -312 489 -312 q 346 -291 385 -312 q 307 -236 307 -269 q 319 -198 307 -215 q 358 -181 332 -181 q 399 -194 382 -181 q 419 -228 415 -207 q 431 -261 422 -254 q 453 -268 439 -268 q 501 -253 481 -268 q 521 -204 521 -239 q 493 -151 521 -167 q 426 -132 465 -135 l 410 -132 z "},"ţ":{"ha":553,"x_min":22,"x_max":524,"o":"m 142 113 l 142 653 l 22 653 l 22 681 q 149 788 97 729 q 256 918 201 847 l 276 918 l 276 715 l 501 715 l 501 653 l 276 653 l 276 172 q 301 106 276 131 q 367 82 325 82 q 431 94 396 82 q 504 133 465 107 l 524 108 q 424 15 483 51 q 294 -21 364 -21 q 222 -5 257 -21 q 164 41 186 11 q 142 113 142 71 m 222 -132 l 256 28 l 303 24 l 289 -57 q 388 -92 351 -62 q 425 -171 425 -122 q 401 -242 425 -210 q 340 -294 378 -275 q 257 -312 301 -312 q 158 -291 197 -312 q 119 -236 119 -269 q 132 -198 119 -215 q 171 -181 144 -181 q 211 -194 194 -181 q 232 -228 228 -207 q 243 -261 235 -254 q 265 -268 251 -268 q 313 -253 293 -268 q 333 -204 333 -239 q 306 -151 333 -167 q 239 -132 278 -135 l 222 -132 z "},"Ť":{"ha":928,"x_min":22,"x_max":907,"o":"m 182 1042 l 749 1042 q 799 1049 776 1042 q 833 1067 821 1057 l 851 1067 l 907 779 l 883 776 q 800 899 839 854 q 723 961 761 943 q 639 979 685 979 q 560 958 583 979 q 536 903 536 938 l 536 182 q 565 76 536 118 q 642 25 593 33 l 642 0 l 288 0 l 288 25 q 365 76 336 33 q 394 182 394 118 l 394 903 q 371 958 394 938 q 293 979 347 979 q 208 960 247 979 q 130 898 168 942 q 46 776 92 854 l 22 779 l 78 1067 l 96 1067 q 131 1049 108 1057 q 182 1042 153 1042 m 689 1394 l 533 1154 q 493 1127 519 1133 q 441 1128 467 1121 q 403 1154 415 1136 l 243 1394 l 256 1403 l 464 1253 l 472 1253 l 676 1403 l 689 1394 z "},"ť":{"ha":553,"x_min":22,"x_max":524,"o":"m 142 113 l 142 653 l 22 653 l 22 681 q 149 788 97 729 q 256 918 201 847 l 276 918 l 276 715 l 501 715 l 501 653 l 276 653 l 276 172 q 301 106 276 131 q 367 82 325 82 q 431 94 396 82 q 504 133 465 107 l 524 108 q 424 15 483 51 q 294 -21 364 -21 q 222 -5 257 -21 q 164 41 186 11 q 142 113 142 71 m 400 1051 q 426 1089 407 1075 q 468 1096 444 1103 q 499 1066 493 1088 q 500 1022 506 1044 q 477 966 493 993 q 439 901 461 939 q 389 803 417 864 l 381 807 q 390 917 389 872 q 392 993 390 961 q 400 1051 393 1025 z "},"Ŧ":{"ha":928,"x_min":22,"x_max":907,"o":"m 175 513 l 175 582 l 394 582 l 394 903 q 371 958 394 938 q 293 979 347 979 q 208 960 247 979 q 130 898 168 942 q 46 776 92 854 l 22 779 l 78 1067 l 96 1067 q 131 1049 108 1057 q 182 1042 153 1042 l 749 1042 q 799 1049 776 1042 q 833 1067 821 1057 l 851 1067 l 907 779 l 883 776 q 800 899 839 854 q 723 961 761 943 q 639 979 685 979 q 560 958 583 979 q 536 903 536 938 l 536 582 l 756 582 l 756 513 l 536 513 l 536 182 q 565 76 536 118 q 642 25 593 33 l 642 0 l 288 0 l 288 25 q 365 76 336 33 q 394 182 394 118 l 394 513 l 175 513 z "},"ŧ":{"ha":617,"x_min":21,"x_max":524,"o":"m 142 113 l 142 383 l 21 383 l 21 446 l 142 446 l 142 653 l 22 653 l 22 681 q 149 788 97 729 q 256 918 201 847 l 276 918 l 276 715 l 501 715 l 501 653 l 276 653 l 276 446 l 503 446 l 503 383 l 276 383 l 276 172 q 301 106 276 131 q 367 82 325 82 q 431 94 396 82 q 504 133 465 107 l 524 108 q 424 15 483 51 q 294 -21 364 -21 q 222 -5 257 -21 q 164 41 186 11 q 142 113 142 71 z "},"Ũ":{"ha":1071,"x_min":51,"x_max":1019,"o":"m 285 321 q 359 128 285 196 q 561 57 433 60 q 701 85 639 57 q 801 173 764 114 q 838 321 838 232 l 838 832 q 805 956 838 906 q 718 1017 772 1007 l 718 1042 l 1019 1042 l 1019 1017 q 944 959 972 1010 q 915 832 915 908 l 915 321 q 864 130 915 206 q 727 17 813 54 q 538 -21 642 -21 q 336 18 425 -21 q 195 133 247 57 q 143 321 143 210 l 143 860 q 118 969 143 926 q 51 1017 93 1011 l 51 1042 l 389 1042 l 389 1017 q 313 967 342 1010 q 285 860 285 925 l 285 321 m 635 1144 q 581 1158 606 1144 q 538 1190 557 1172 q 499 1222 518 1208 q 461 1236 481 1236 q 413 1211 433 1236 q 381 1153 393 1186 l 364 1157 q 404 1295 371 1249 q 490 1342 438 1342 q 543 1328 519 1342 q 587 1295 567 1314 q 626 1263 607 1276 q 665 1249 644 1249 q 715 1270 693 1249 q 746 1335 738 1292 l 763 1331 q 722 1192 756 1239 q 635 1144 688 1144 z "},"ũ":{"ha":871,"x_min":58,"x_max":813,"o":"m 593 51 q 594 115 593 83 q 596 164 594 146 l 593 165 q 501 81 554 124 q 392 9 449 38 q 281 -19 335 -19 q 174 28 211 -19 q 136 154 136 76 l 136 467 q 122 559 136 519 q 58 613 107 599 l 58 638 q 168 680 119 653 q 257 744 217 707 l 271 744 l 271 218 q 292 128 271 158 q 360 96 313 97 q 459 123 404 94 q 593 215 514 151 l 593 453 q 577 557 593 511 q 508 613 561 603 l 508 638 q 713 744 628 669 l 728 744 l 728 236 q 747 134 728 167 q 813 90 767 101 l 813 65 q 707 29 757 51 q 614 -28 657 7 l 593 -28 l 593 51 m 497 853 q 444 867 468 853 q 400 899 419 881 q 362 931 381 917 q 324 944 343 944 q 276 919 296 944 q 243 861 256 894 l 226 865 q 267 1003 233 957 q 353 1050 300 1050 q 406 1036 382 1050 q 449 1003 429 1022 q 488 971 469 985 q 528 957 507 957 q 578 978 556 957 q 608 1043 600 1000 l 625 1039 q 584 900 618 947 q 497 853 550 853 z "},"Ū":{"ha":1071,"x_min":51,"x_max":1019,"o":"m 285 321 q 359 128 285 196 q 561 57 433 60 q 701 85 639 57 q 801 173 764 114 q 838 321 838 232 l 838 832 q 805 956 838 906 q 718 1017 772 1007 l 718 1042 l 1019 1042 l 1019 1017 q 944 959 972 1010 q 915 832 915 908 l 915 321 q 864 130 915 206 q 727 17 813 54 q 538 -21 642 -21 q 336 18 425 -21 q 195 133 247 57 q 143 321 143 210 l 143 860 q 118 969 143 926 q 51 1017 93 1011 l 51 1042 l 389 1042 l 389 1017 q 313 967 342 1010 q 285 860 285 925 l 285 321 m 342 1167 l 342 1236 l 786 1236 l 786 1167 l 342 1167 z "},"ū":{"ha":871,"x_min":58,"x_max":813,"o":"m 593 51 q 594 115 593 83 q 596 164 594 146 l 593 165 q 501 81 554 124 q 392 9 449 38 q 281 -19 335 -19 q 174 28 211 -19 q 136 154 136 76 l 136 467 q 122 559 136 519 q 58 613 107 599 l 58 638 q 168 680 119 653 q 257 744 217 707 l 271 744 l 271 218 q 292 128 271 158 q 360 96 313 97 q 459 123 404 94 q 593 215 514 151 l 593 453 q 577 557 593 511 q 508 613 561 603 l 508 638 q 713 744 628 669 l 728 744 l 728 236 q 747 134 728 167 q 813 90 767 101 l 813 65 q 707 29 757 51 q 614 -28 657 7 l 593 -28 l 593 51 m 204 875 l 204 944 l 649 944 l 649 875 l 204 875 z "},"Ŭ":{"ha":1071,"x_min":51,"x_max":1019,"o":"m 285 321 q 359 128 285 196 q 561 57 433 60 q 701 85 639 57 q 801 173 764 114 q 838 321 838 232 l 838 832 q 805 956 838 906 q 718 1017 772 1007 l 718 1042 l 1019 1042 l 1019 1017 q 944 959 972 1010 q 915 832 915 908 l 915 321 q 864 130 915 206 q 727 17 813 54 q 538 -21 642 -21 q 336 18 425 -21 q 195 133 247 57 q 143 321 143 210 l 143 860 q 118 969 143 926 q 51 1017 93 1011 l 51 1042 l 389 1042 l 389 1017 q 313 967 342 1010 q 285 860 285 925 l 285 321 m 564 1122 q 410 1187 469 1122 q 350 1371 350 1251 l 367 1374 q 438 1269 382 1306 q 564 1233 494 1233 q 689 1269 633 1233 q 760 1374 744 1306 l 778 1371 q 718 1187 778 1251 q 564 1122 658 1122 z "},"ŭ":{"ha":871,"x_min":58,"x_max":813,"o":"m 593 51 q 594 115 593 83 q 596 164 594 146 l 593 165 q 501 81 554 124 q 392 9 449 38 q 281 -19 335 -19 q 174 28 211 -19 q 136 154 136 76 l 136 467 q 122 559 136 519 q 58 613 107 599 l 58 638 q 168 680 119 653 q 257 744 217 707 l 271 744 l 271 218 q 292 128 271 158 q 360 96 313 97 q 459 123 404 94 q 593 215 514 151 l 593 453 q 577 557 593 511 q 508 613 561 603 l 508 638 q 713 744 628 669 l 728 744 l 728 236 q 747 134 728 167 q 813 90 767 101 l 813 65 q 707 29 757 51 q 614 -28 657 7 l 593 -28 l 593 51 m 426 831 q 272 895 332 831 q 213 1079 213 960 l 229 1082 q 301 978 244 1014 q 426 942 357 942 q 551 978 496 942 q 622 1082 607 1014 l 640 1079 q 581 895 640 960 q 426 831 521 831 z "},"Ů":{"ha":1071,"x_min":51,"x_max":1019,"o":"m 285 321 q 359 128 285 196 q 561 57 433 60 q 701 85 639 57 q 801 173 764 114 q 838 321 838 232 l 838 832 q 805 956 838 906 q 718 1017 772 1007 l 718 1042 l 1019 1042 l 1019 1017 q 944 959 972 1010 q 915 832 915 908 l 915 321 q 864 130 915 206 q 727 17 813 54 q 538 -21 642 -21 q 336 18 425 -21 q 195 133 247 57 q 143 321 143 210 l 143 860 q 118 969 143 926 q 51 1017 93 1011 l 51 1042 l 389 1042 l 389 1017 q 313 967 342 1010 q 285 860 285 925 l 285 321 m 388 1285 q 410 1367 388 1329 q 474 1428 433 1406 q 564 1451 514 1451 q 653 1428 614 1451 q 716 1368 693 1406 q 739 1285 739 1331 q 715 1202 739 1240 q 652 1141 692 1164 q 564 1118 613 1118 q 475 1141 515 1118 q 411 1202 435 1164 q 388 1285 388 1240 m 489 1285 q 508 1194 489 1226 q 564 1161 526 1161 q 619 1194 601 1161 q 638 1285 638 1226 q 619 1374 638 1342 q 564 1407 601 1407 q 507 1374 525 1407 q 489 1285 489 1342 z "},"ů":{"ha":871,"x_min":58,"x_max":813,"o":"m 593 51 q 594 115 593 83 q 596 164 594 146 l 593 165 q 501 81 554 124 q 392 9 449 38 q 281 -19 335 -19 q 174 28 211 -19 q 136 154 136 76 l 136 467 q 122 559 136 519 q 58 613 107 599 l 58 638 q 168 680 119 653 q 257 744 217 707 l 271 744 l 271 218 q 292 128 271 158 q 360 96 313 97 q 459 123 404 94 q 593 215 514 151 l 593 453 q 577 557 593 511 q 508 613 561 603 l 508 638 q 713 744 628 669 l 728 744 l 728 236 q 747 134 728 167 q 813 90 767 101 l 813 65 q 707 29 757 51 q 614 -28 657 7 l 593 -28 l 593 51 m 250 993 q 273 1076 250 1038 q 336 1137 296 1114 q 426 1160 376 1160 q 516 1137 476 1160 q 578 1076 556 1114 q 601 993 601 1039 q 578 910 601 949 q 515 849 554 872 q 426 826 475 826 q 338 849 378 826 q 274 910 297 872 q 250 993 250 949 m 351 993 q 370 902 351 935 q 426 869 389 869 q 482 902 464 869 q 500 993 500 935 q 482 1083 500 1050 q 426 1115 464 1115 q 369 1083 388 1115 q 351 993 351 1050 z "},"Ű":{"ha":1071,"x_min":51,"x_max":1019,"o":"m 285 321 q 359 128 285 196 q 561 57 433 60 q 701 85 639 57 q 801 173 764 114 q 838 321 838 232 l 838 832 q 805 956 838 906 q 718 1017 772 1007 l 718 1042 l 1019 1042 l 1019 1017 q 944 959 972 1010 q 915 832 915 908 l 915 321 q 864 130 915 206 q 727 17 813 54 q 538 -21 642 -21 q 336 18 425 -21 q 195 133 247 57 q 143 321 143 210 l 143 860 q 118 969 143 926 q 51 1017 93 1011 l 51 1042 l 389 1042 l 389 1017 q 313 967 342 1010 q 285 860 285 925 l 285 321 m 543 1364 q 583 1389 560 1382 q 626 1378 606 1396 q 645 1336 646 1361 q 626 1290 644 1311 q 551 1228 597 1260 q 425 1132 504 1197 l 411 1144 q 472 1243 450 1203 q 508 1313 493 1283 q 543 1364 524 1342 m 738 1364 q 777 1389 754 1382 q 821 1378 800 1396 q 840 1336 840 1361 q 821 1290 839 1311 q 745 1228 792 1260 q 619 1132 699 1197 l 606 1144 q 666 1243 644 1203 q 703 1313 688 1283 q 738 1364 718 1342 z "},"ű":{"ha":871,"x_min":58,"x_max":813,"o":"m 593 51 q 594 115 593 83 q 596 164 594 146 l 593 165 q 501 81 554 124 q 392 9 449 38 q 281 -19 335 -19 q 174 28 211 -19 q 136 154 136 76 l 136 467 q 122 559 136 519 q 58 613 107 599 l 58 638 q 168 680 119 653 q 257 744 217 707 l 271 744 l 271 218 q 292 128 271 158 q 360 96 313 97 q 459 123 404 94 q 593 215 514 151 l 593 453 q 577 557 593 511 q 508 613 561 603 l 508 638 q 713 744 628 669 l 728 744 l 728 236 q 747 134 728 167 q 813 90 767 101 l 813 65 q 707 29 757 51 q 614 -28 657 7 l 593 -28 l 593 51 m 406 1072 q 445 1097 422 1090 q 489 1086 468 1104 q 508 1044 508 1069 q 489 999 507 1019 q 413 937 460 968 q 288 840 367 906 l 274 853 q 334 951 313 911 q 371 1021 356 992 q 406 1072 386 1050 m 600 1072 q 640 1097 617 1090 q 683 1086 663 1104 q 702 1044 703 1069 q 683 999 701 1019 q 608 937 654 968 q 482 840 561 906 l 468 853 q 528 951 507 911 q 565 1021 550 992 q 600 1072 581 1050 z "},"Ų":{"ha":1071,"x_min":51,"x_max":1019,"o":"m 285 321 q 359 128 285 196 q 561 57 433 60 q 701 85 639 57 q 801 173 764 114 q 838 321 838 232 l 838 832 q 805 956 838 906 q 718 1017 772 1007 l 718 1042 l 1019 1042 l 1019 1017 q 944 959 972 1010 q 915 832 915 908 l 915 321 q 864 130 915 206 q 727 17 813 54 q 538 -21 642 -21 q 336 18 425 -21 q 195 133 247 57 q 143 321 143 210 l 143 860 q 118 969 143 926 q 51 1017 93 1011 l 51 1042 l 389 1042 l 389 1017 q 313 967 342 1010 q 285 860 285 925 l 285 321 m 560 -285 q 456 -252 497 -285 q 414 -167 414 -219 q 459 -63 414 -111 q 571 25 504 -15 l 579 10 q 539 -53 554 -19 q 524 -122 524 -86 q 548 -190 524 -165 q 608 -214 572 -214 q 663 -201 633 -214 q 715 -167 693 -187 l 728 -178 q 660 -255 704 -225 q 560 -285 617 -285 z "},"ų":{"ha":871,"x_min":58,"x_max":826,"o":"m 593 51 q 594 115 593 83 q 596 164 594 146 l 593 165 q 501 81 554 124 q 392 9 449 38 q 281 -19 335 -19 q 174 28 211 -19 q 136 154 136 76 l 136 467 q 122 559 136 519 q 58 613 107 599 l 58 638 q 168 680 119 653 q 257 744 217 707 l 271 744 l 271 218 q 292 128 271 158 q 360 96 313 97 q 459 123 404 94 q 593 215 514 151 l 593 453 q 577 557 593 511 q 508 613 561 603 l 508 638 q 713 744 628 669 l 728 744 l 728 236 q 747 134 728 167 q 813 90 767 101 l 813 65 q 707 29 757 51 q 614 -28 657 7 l 593 -28 l 593 51 m 658 -285 q 554 -252 596 -285 q 513 -167 513 -219 q 558 -63 513 -111 q 669 25 603 -15 l 678 10 q 638 -53 653 -19 q 622 -122 622 -86 q 647 -190 622 -165 q 707 -214 671 -214 q 762 -201 732 -214 q 814 -167 792 -187 l 826 -178 q 759 -255 803 -225 q 658 -285 715 -285 z "},"Ŵ":{"ha":1431,"x_min":0,"x_max":1424,"o":"m 1296 846 l 1001 -7 l 951 -7 l 713 699 l 483 -7 l 433 -7 l 132 843 q 69 965 101 928 q 0 1017 36 1003 l 0 1042 l 344 1042 l 344 1017 q 279 958 301 1000 q 283 842 257 915 l 493 239 l 674 814 l 664 843 q 603 965 636 928 q 532 1017 569 1003 l 532 1042 l 876 1042 l 876 1017 q 813 958 835 1000 q 815 842 792 915 l 1015 231 l 1218 844 q 1222 926 1235 892 q 1181 984 1208 961 q 1128 1017 1154 1007 l 1128 1042 l 1424 1042 l 1424 1017 q 1355 957 1392 1006 q 1296 846 1318 908 m 494 1124 l 650 1364 q 690 1392 664 1386 q 742 1390 717 1397 q 781 1364 768 1383 l 940 1124 l 928 1115 l 719 1265 l 711 1265 l 507 1115 l 494 1124 z "},"ŵ":{"ha":1108,"x_min":-4,"x_max":1113,"o":"m 996 542 l 761 -14 l 735 -14 l 560 417 l 378 -14 l 353 -14 l 114 540 q 56 651 81 618 q -4 697 32 683 l -4 715 l 299 715 l 299 697 q 242 647 256 686 q 258 539 229 607 l 399 206 l 519 517 l 510 540 q 453 652 479 618 q 407 697 428 686 l 407 715 l 696 715 l 696 697 q 643 645 656 686 q 654 539 631 604 l 785 200 l 915 539 q 922 649 940 606 q 860 697 903 692 l 860 715 l 1113 715 l 1113 697 q 1050 640 1081 683 q 996 542 1019 597 m 333 832 l 489 1072 q 529 1100 503 1094 q 581 1099 556 1106 q 619 1072 607 1092 l 779 832 l 767 824 l 558 974 l 550 974 l 346 824 l 333 832 z "},"Ŷ":{"ha":950,"x_min":-24,"x_max":958,"o":"m 546 182 q 574 75 546 118 q 650 25 603 32 l 650 0 l 297 0 l 297 25 q 375 75 346 32 q 404 182 404 118 l 404 414 l 142 842 q 57 955 101 907 q -24 1017 13 1003 l -24 1042 l 368 1042 l 368 1017 q 290 945 307 993 q 307 842 272 897 l 515 506 l 717 844 q 719 941 746 893 q 622 1017 693 989 l 622 1042 l 958 1042 l 958 1017 q 880 956 924 1003 q 799 846 836 910 l 546 418 l 546 182 m 282 1124 l 438 1364 q 478 1392 451 1386 q 530 1390 504 1397 q 568 1364 556 1383 l 728 1124 l 715 1115 l 507 1265 l 499 1265 l 294 1115 l 282 1124 z "},"ŷ":{"ha":764,"x_min":-7,"x_max":769,"o":"m 133 -300 q 53 -273 90 -300 q 17 -203 17 -246 q 42 -144 17 -165 q 97 -122 67 -122 q 147 -140 131 -122 q 177 -177 164 -158 q 208 -196 190 -196 q 252 -170 233 -194 q 288 -110 271 -146 q 319 -40 304 -75 l 350 31 l 111 540 q 54 644 79 608 q -7 697 29 679 l -7 715 l 317 715 l 317 697 q 263 539 210 647 l 424 199 l 572 539 q 578 638 596 596 q 517 697 560 681 l 517 715 l 769 715 l 769 697 q 706 634 736 679 q 653 542 675 589 l 374 -74 q 263 -247 319 -194 q 133 -300 207 -300 m 189 832 l 344 1072 q 385 1100 358 1094 q 437 1099 411 1106 q 475 1072 463 1092 l 635 832 l 622 824 l 414 974 l 406 974 l 201 824 l 189 832 z "},"Ÿ":{"ha":950,"x_min":-24,"x_max":958,"o":"m 546 182 q 574 75 546 118 q 650 25 603 32 l 650 0 l 297 0 l 297 25 q 375 75 346 32 q 404 182 404 118 l 404 414 l 142 842 q 57 955 101 907 q -24 1017 13 1003 l -24 1042 l 368 1042 l 368 1017 q 290 945 307 993 q 307 842 272 897 l 515 506 l 717 844 q 719 941 746 893 q 622 1017 693 989 l 622 1042 l 958 1042 l 958 1017 q 880 956 924 1003 q 799 846 836 910 l 546 418 l 546 182 m 382 1164 q 319 1192 344 1164 q 294 1258 294 1219 q 319 1326 294 1299 q 382 1353 344 1353 q 447 1326 421 1353 q 472 1258 472 1299 q 447 1192 472 1219 q 382 1164 421 1164 m 621 1164 q 558 1192 583 1164 q 533 1258 533 1219 q 558 1326 533 1299 q 621 1353 583 1353 q 685 1326 660 1353 q 711 1258 711 1299 q 685 1192 711 1219 q 621 1164 660 1164 z "},"Ź":{"ha":925,"x_min":54,"x_max":888,"o":"m 888 256 l 807 -39 l 785 -39 q 679 0 749 0 l 54 0 l 54 26 l 661 972 l 424 972 q 242 928 318 972 q 90 803 165 885 l 74 807 l 128 1067 l 147 1067 q 187 1047 161 1051 q 243 1042 213 1042 l 854 1042 l 854 1017 l 247 69 l 496 69 q 708 120 621 69 q 865 258 794 171 l 888 256 m 524 1369 q 567 1397 542 1389 q 614 1385 592 1404 q 635 1340 636 1367 q 614 1290 633 1314 q 564 1247 593 1268 q 493 1194 535 1225 q 394 1117 451 1164 l 379 1131 q 444 1239 421 1194 q 485 1315 468 1283 q 524 1369 501 1346 z "},"ź":{"ha":729,"x_min":56,"x_max":690,"o":"m 690 208 l 640 -47 l 617 -47 q 567 -12 592 -24 q 500 0 543 0 l 56 0 l 56 25 l 471 653 l 336 653 q 247 638 285 653 q 174 591 208 624 q 100 503 140 558 l 79 507 l 129 763 l 149 763 q 201 728 175 740 q 269 715 228 715 l 653 715 l 653 690 l 238 63 l 450 63 q 571 96 521 63 q 671 210 621 129 l 690 208 m 426 1078 q 469 1105 444 1097 q 517 1093 494 1113 q 538 1049 539 1075 q 517 999 536 1022 q 467 955 496 976 q 396 903 438 933 q 297 825 354 872 l 282 839 q 347 947 324 903 q 388 1023 371 992 q 426 1078 404 1054 z "},"Ż":{"ha":925,"x_min":54,"x_max":888,"o":"m 888 256 l 807 -39 l 785 -39 q 679 0 749 0 l 54 0 l 54 26 l 661 972 l 424 972 q 242 928 318 972 q 90 803 165 885 l 74 807 l 128 1067 l 147 1067 q 187 1047 161 1051 q 243 1042 213 1042 l 854 1042 l 854 1017 l 247 69 l 496 69 q 708 120 621 69 q 865 258 794 171 l 888 256 m 463 1164 q 400 1192 425 1164 q 375 1258 375 1219 q 400 1326 375 1299 q 463 1353 425 1353 q 527 1326 501 1353 q 553 1258 553 1299 q 527 1192 553 1219 q 463 1164 501 1164 z "},"ż":{"ha":729,"x_min":56,"x_max":690,"o":"m 690 208 l 640 -47 l 617 -47 q 567 -12 592 -24 q 500 0 543 0 l 56 0 l 56 25 l 471 653 l 336 653 q 247 638 285 653 q 174 591 208 624 q 100 503 140 558 l 79 507 l 129 763 l 149 763 q 201 728 175 740 q 269 715 228 715 l 653 715 l 653 690 l 238 63 l 450 63 q 571 96 521 63 q 671 210 621 129 l 690 208 m 365 872 q 303 900 328 872 q 278 967 278 928 q 303 1034 278 1007 q 365 1061 328 1061 q 430 1034 404 1061 q 456 967 456 1007 q 430 900 456 928 q 365 872 404 872 z "},"Ž":{"ha":925,"x_min":54,"x_max":888,"o":"m 888 256 l 807 -39 l 785 -39 q 679 0 749 0 l 54 0 l 54 26 l 661 972 l 424 972 q 242 928 318 972 q 90 803 165 885 l 74 807 l 128 1067 l 147 1067 q 187 1047 161 1051 q 243 1042 213 1042 l 854 1042 l 854 1017 l 247 69 l 496 69 q 708 120 621 69 q 865 258 794 171 l 888 256 m 688 1394 l 532 1154 q 492 1127 518 1133 q 440 1128 465 1121 q 401 1154 414 1136 l 242 1394 l 254 1403 l 463 1253 l 471 1253 l 675 1403 l 688 1394 z "},"ž":{"ha":729,"x_min":56,"x_max":690,"o":"m 690 208 l 640 -47 l 617 -47 q 567 -12 592 -24 q 500 0 543 0 l 56 0 l 56 25 l 471 653 l 336 653 q 247 638 285 653 q 174 591 208 624 q 100 503 140 558 l 79 507 l 129 763 l 149 763 q 201 728 175 740 q 269 715 228 715 l 653 715 l 653 690 l 238 63 l 450 63 q 571 96 521 63 q 671 210 621 129 l 690 208 m 590 1103 l 435 863 q 394 835 421 842 q 342 837 368 829 q 304 863 317 844 l 144 1103 l 157 1111 l 365 961 l 374 961 l 578 1111 l 590 1103 z "},"Ơ":{"ha":1100,"x_min":72,"x_max":1025,"o":"m 72 521 q 108 734 72 636 q 209 906 144 832 q 360 1022 274 981 q 547 1063 447 1063 q 733 1022 647 1063 q 883 907 819 981 q 983 735 947 833 q 1019 521 1019 636 q 983 307 1019 406 q 881 135 946 208 q 731 20 817 61 q 547 -21 646 -21 q 364 20 450 -21 q 212 135 278 61 q 109 308 146 210 q 72 521 72 407 m 236 521 q 272 281 236 388 q 376 111 307 174 q 547 49 446 49 q 717 111 649 49 q 821 281 786 174 q 856 521 856 388 q 822 761 856 654 q 721 931 789 868 q 547 993 653 993 q 373 931 442 993 q 270 761 304 868 q 236 521 236 654 m 1025 1132 q 983 1020 1025 1078 q 861 921 940 963 l 844 944 q 917 1013 893 982 q 951 1069 940 1043 q 876 1096 907 1072 q 846 1154 846 1119 q 871 1209 846 1186 q 935 1232 896 1232 q 998 1202 971 1232 q 1025 1132 1025 1172 z "},"ơ":{"ha":824,"x_min":65,"x_max":807,"o":"m 65 360 q 111 553 65 468 q 235 687 157 638 q 411 736 314 736 q 543 710 482 736 q 651 638 604 683 q 705 694 686 668 q 733 743 724 719 q 658 769 689 746 q 628 828 628 793 q 653 883 628 860 q 717 906 678 906 q 780 876 753 906 q 807 806 807 846 q 772 706 807 758 q 674 613 738 653 q 736 499 714 563 q 758 360 758 435 q 711 164 758 250 q 585 28 664 78 q 411 -21 506 -21 q 238 29 317 -21 q 112 165 158 79 q 65 360 65 251 m 213 360 q 235 196 213 268 q 303 83 258 124 q 411 42 347 42 q 521 83 476 42 q 589 196 565 124 q 613 360 613 268 q 590 522 613 451 q 524 633 568 593 q 411 674 479 674 q 301 633 344 674 q 235 522 257 593 q 213 360 213 451 z "},"Ư":{"ha":1071,"x_min":51,"x_max":1118,"o":"m 538 -21 q 336 18 425 -21 q 195 133 247 57 q 143 321 143 210 l 143 860 q 118 969 143 926 q 51 1017 93 1011 l 51 1042 l 389 1042 l 389 1017 q 313 967 342 1010 q 285 860 285 925 l 285 321 q 359 128 285 196 q 561 57 433 60 q 701 85 639 57 q 801 173 764 114 q 838 321 838 232 l 838 832 q 805 956 838 906 q 718 1017 772 1007 l 718 1042 l 985 1042 q 1022 1088 1008 1067 q 1044 1129 1036 1110 q 969 1156 1000 1132 q 939 1214 939 1179 q 964 1269 939 1246 q 1028 1292 989 1292 q 1091 1262 1064 1292 q 1118 1192 1118 1232 q 1083 1093 1118 1144 q 983 1003 1049 1042 q 933 938 951 982 q 915 832 915 893 l 915 321 q 864 130 915 206 q 727 17 813 54 q 538 -21 642 -21 z "},"ư":{"ha":826,"x_min":58,"x_max":892,"o":"m 593 51 q 594 115 593 83 q 596 164 594 146 l 593 165 q 501 81 554 124 q 392 9 449 38 q 281 -19 335 -19 q 174 28 211 -19 q 136 154 136 76 l 136 467 q 122 559 136 519 q 58 613 107 599 l 58 638 q 168 680 119 653 q 257 744 217 707 l 271 744 l 271 218 q 292 128 271 158 q 360 96 313 97 q 459 123 404 94 q 593 215 514 151 l 593 453 q 577 557 593 511 q 508 613 561 603 l 508 638 q 713 744 628 669 l 728 744 l 728 236 q 747 134 728 167 q 813 90 767 101 l 813 65 q 707 29 757 51 q 614 -28 657 7 l 593 -28 l 593 51 m 892 806 q 849 694 892 751 q 728 594 807 636 l 711 618 q 783 686 760 656 q 818 743 807 717 q 743 769 774 746 q 713 828 713 793 q 738 883 713 860 q 801 906 763 906 q 865 876 838 906 q 892 806 892 846 z "},"Ș":{"ha":926,"x_min":43,"x_max":851,"o":"m 851 306 q 799 136 851 210 q 654 21 746 63 q 443 -21 563 -21 q 301 -8 375 -21 q 160 26 228 6 q 43 67 93 46 l 151 308 l 175 308 q 281 126 199 194 q 490 57 364 57 q 677 114 610 57 q 744 256 744 171 q 706 363 744 322 q 604 431 667 404 q 471 481 542 458 q 346 524 408 501 q 232 578 283 546 q 150 658 181 610 q 119 778 119 707 q 165 926 119 863 q 294 1026 211 990 q 485 1063 376 1063 q 654 1047 569 1063 q 807 1007 739 1031 l 735 790 l 711 790 q 612 934 686 883 q 432 985 538 985 q 329 966 376 985 q 254 913 282 947 q 226 829 226 878 q 252 747 226 781 q 322 690 278 714 q 420 648 365 667 q 533 610 475 629 q 649 567 593 590 q 751 509 706 543 q 824 426 797 475 q 851 306 851 376 m 554 -197 q 516 -301 554 -247 q 404 -394 478 -356 l 388 -381 q 448 -315 426 -344 q 481 -260 469 -286 q 406 -233 436 -257 q 375 -175 375 -210 q 400 -120 375 -143 q 464 -97 425 -97 q 527 -127 500 -97 q 554 -197 554 -157 z "},"ș":{"ha":706,"x_min":51,"x_max":635,"o":"m 635 214 q 595 95 635 149 q 486 11 556 42 q 325 -19 417 -19 q 195 -6 265 -19 q 51 36 125 8 l 131 228 l 147 228 q 195 126 157 165 q 285 69 233 88 q 389 50 338 50 q 500 85 456 50 q 544 167 544 119 q 515 235 544 210 q 438 278 485 261 q 336 310 390 294 q 225 351 279 328 q 136 416 171 375 q 101 525 101 457 q 135 631 101 583 q 231 708 168 679 q 379 736 293 736 q 488 725 426 736 q 593 694 550 714 l 540 521 l 521 521 q 444 631 501 592 q 324 671 386 671 q 229 642 265 671 q 193 572 193 614 q 225 507 193 532 q 308 466 257 482 q 413 432 358 450 q 519 389 468 414 q 602 322 569 364 q 635 214 635 281 m 429 -197 q 391 -301 429 -247 q 279 -394 353 -356 l 263 -381 q 323 -315 301 -344 q 356 -260 344 -286 q 281 -233 311 -257 q 250 -175 250 -210 q 275 -120 250 -143 q 339 -97 300 -97 q 402 -127 375 -97 q 429 -197 429 -157 z "},"Ț":{"ha":928,"x_min":22,"x_max":907,"o":"m 182 1042 l 749 1042 q 799 1049 776 1042 q 833 1067 821 1057 l 851 1067 l 907 779 l 883 776 q 800 899 839 854 q 723 961 761 943 q 639 979 685 979 q 560 958 583 979 q 536 903 536 938 l 536 182 q 565 76 536 118 q 642 25 593 33 l 642 0 l 288 0 l 288 25 q 365 76 336 33 q 394 182 394 118 l 394 903 q 371 958 394 938 q 293 979 347 979 q 208 960 247 979 q 130 898 168 942 q 46 776 92 854 l 22 779 l 78 1067 l 96 1067 q 131 1049 108 1057 q 182 1042 153 1042 m 554 -197 q 516 -301 554 -247 q 404 -394 478 -356 l 388 -381 q 448 -315 426 -344 q 481 -260 469 -286 q 406 -233 436 -257 q 375 -175 375 -210 q 400 -120 375 -143 q 464 -97 425 -97 q 527 -127 500 -97 q 554 -197 554 -157 z "},"ț":{"ha":553,"x_min":22,"x_max":524,"o":"m 142 113 l 142 653 l 22 653 l 22 681 q 149 788 97 729 q 256 918 201 847 l 276 918 l 276 715 l 501 715 l 501 653 l 276 653 l 276 172 q 301 106 276 131 q 367 82 325 82 q 431 94 396 82 q 504 133 465 107 l 524 108 q 424 15 483 51 q 294 -21 364 -21 q 222 -5 257 -21 q 164 41 186 11 q 142 113 142 71 m 367 -197 q 328 -301 367 -247 q 217 -394 290 -356 l 200 -381 q 260 -315 239 -344 q 293 -260 282 -286 q 218 -233 249 -257 q 188 -175 188 -210 q 213 -120 188 -143 q 276 -97 238 -97 q 340 -127 313 -97 q 367 -197 367 -157 z "},"ȷ":{"ha":421,"x_min":-76,"x_max":285,"o":"m -76 -181 q -60 -133 -76 -153 q -14 -112 -43 -112 q 31 -127 14 -112 q 61 -160 49 -142 q 87 -192 74 -178 q 119 -207 100 -207 q 157 -189 146 -207 q 171 -143 168 -171 q 167 -72 172 -111 q 156 6 163 -32 q 150 74 150 44 l 150 467 q 133 561 150 519 q 58 613 115 603 l 58 638 q 265 744 183 669 l 285 744 l 285 -39 q 254 -172 285 -112 q 177 -265 224 -231 q 81 -299 131 -299 q -28 -267 21 -299 q -76 -181 -76 -236 z "},"ə":{"ha":749,"x_min":64,"x_max":683,"o":"m 564 314 q 528 492 564 421 q 433 597 492 563 q 307 632 375 632 q 188 601 242 632 q 97 513 133 569 l 75 525 q 139 638 94 590 q 242 710 183 685 q 361 736 300 736 q 515 696 442 736 q 636 576 589 656 q 683 379 683 497 q 638 178 683 269 q 516 33 593 88 q 340 -21 439 -21 q 199 16 261 -21 q 100 119 136 53 q 64 272 64 185 l 64 310 l 564 310 l 564 314 m 372 49 q 490 97 435 49 q 560 247 544 144 l 200 247 q 222 148 200 193 q 282 76 243 103 q 372 49 321 49 z "},"ʻ":{"ha":390,"x_min":89,"x_max":297,"o":"m 89 889 q 134 1019 89 951 q 265 1136 179 1088 l 283 1118 q 214 1037 239 1074 q 175 967 189 1000 q 263 935 228 964 q 297 863 297 907 q 269 792 297 821 q 197 764 240 764 q 122 801 154 764 q 89 889 89 838 z "},"ʼ":{"ha":390,"x_min":93,"x_max":301,"o":"m 301 982 q 257 851 301 919 q 126 735 213 783 l 108 753 q 178 834 153 797 q 215 904 204 871 q 128 936 164 907 q 93 1010 93 965 q 123 1078 93 1050 q 196 1107 153 1107 q 270 1070 239 1107 q 301 982 301 1033 z "},"ˆ":{"ha":956,"x_min":258,"x_max":704,"o":"m 258 832 l 414 1072 q 454 1100 428 1094 q 506 1099 481 1106 q 544 1072 532 1092 l 704 832 l 692 824 l 483 974 l 475 974 l 271 824 l 258 832 z "},"ˇ":{"ha":956,"x_min":258,"x_max":704,"o":"m 704 1103 l 549 863 q 508 835 535 842 q 456 837 482 829 q 418 863 431 844 l 258 1103 l 271 1111 l 479 961 l 488 961 l 692 1111 l 704 1103 z "},"˘":{"ha":956,"x_min":265,"x_max":693,"o":"m 479 831 q 325 895 385 831 q 265 1079 265 960 l 282 1082 q 353 978 297 1014 q 479 942 410 942 q 604 978 549 942 q 675 1082 660 1014 l 693 1079 q 633 895 693 960 q 479 831 574 831 z "},"˙":{"ha":956,"x_min":392,"x_max":569,"o":"m 479 872 q 417 900 442 872 q 392 967 392 928 q 417 1034 392 1007 q 479 1061 442 1061 q 544 1034 518 1061 q 569 967 569 1007 q 544 900 569 928 q 479 872 518 872 z "},"˚":{"ha":956,"x_min":303,"x_max":654,"o":"m 303 993 q 326 1076 303 1038 q 389 1137 349 1114 q 479 1160 429 1160 q 569 1137 529 1160 q 631 1076 608 1114 q 654 993 654 1039 q 631 910 654 949 q 567 849 607 872 q 479 826 528 826 q 390 849 431 826 q 326 910 350 872 q 303 993 303 949 m 404 993 q 423 902 404 935 q 479 869 442 869 q 535 902 517 869 q 553 993 553 935 q 535 1083 553 1050 q 479 1115 517 1115 q 422 1083 440 1115 q 404 993 404 1050 z "},"˛":{"ha":956,"x_min":325,"x_max":639,"o":"m 471 -294 q 367 -262 408 -294 q 325 -176 325 -229 q 370 -73 325 -121 q 482 15 415 -25 l 490 0 q 450 -62 465 -29 q 435 -132 435 -96 q 459 -199 435 -175 q 519 -224 483 -224 q 574 -210 544 -224 q 626 -176 604 -197 l 639 -187 q 572 -265 615 -235 q 471 -294 528 -294 z "},"˜":{"ha":956,"x_min":279,"x_max":678,"o":"m 550 853 q 497 867 521 853 q 453 899 472 881 q 415 931 433 917 q 376 944 396 944 q 328 919 349 944 q 296 861 308 894 l 279 865 q 319 1003 286 957 q 406 1050 353 1050 q 458 1036 435 1050 q 502 1003 482 1022 q 541 971 522 985 q 581 957 560 957 q 631 978 608 957 q 661 1043 653 1000 l 678 1039 q 637 900 671 947 q 550 853 603 853 z "},"˝":{"ha":956,"x_min":326,"x_max":756,"o":"m 458 1072 q 498 1097 475 1090 q 542 1086 521 1104 q 560 1044 561 1069 q 542 999 560 1019 q 466 937 513 968 q 340 840 419 906 l 326 853 q 387 951 365 911 q 424 1021 408 992 q 458 1072 439 1050 m 653 1072 q 692 1097 669 1090 q 736 1086 715 1104 q 755 1044 756 1069 q 736 999 754 1019 q 660 937 707 968 q 535 840 614 906 l 521 853 q 581 951 560 911 q 618 1021 603 992 q 653 1072 633 1050 z "},"̀":{"ha":0,"x_min":-174,"x_max":83,"o":"m -61 1078 q -22 1023 -39 1054 q 18 947 -6 992 q 83 839 42 903 l 68 825 q -31 903 11 872 q -101 955 -72 933 q -151 999 -131 976 q -172 1049 -171 1022 q -151 1093 -174 1075 q -103 1105 -128 1113 q -61 1078 -79 1097 z "},"́":{"ha":0,"x_min":-83,"x_max":174,"o":"m 61 1078 q 104 1105 79 1097 q 151 1093 129 1113 q 172 1049 174 1075 q 151 999 171 1022 q 101 955 131 976 q 31 903 72 933 q -68 825 -11 872 l -83 839 q -18 947 -42 903 q 22 1023 6 992 q 61 1078 39 1054 z "},"̂":{"ha":0,"x_min":-221,"x_max":225,"o":"m -221 832 l -65 1072 q -25 1100 -51 1094 q 27 1099 1 1106 q 65 1072 53 1092 l 225 832 l 213 824 l 4 974 l -4 974 l -208 824 l -221 832 z "},"̃":{"ha":0,"x_min":-200,"x_max":199,"o":"m 71 853 q 17 867 42 853 q -26 899 -7 881 q -65 931 -46 917 q -103 944 -83 944 q -151 919 -131 944 q -183 861 -171 894 l -200 865 q -160 1003 -193 957 q -74 1050 -126 1050 q -21 1036 -44 1050 q 23 1003 3 1022 q 62 971 43 985 q 101 957 81 957 q 151 978 129 957 q 182 1043 174 1000 l 199 1039 q 158 900 192 947 q 71 853 124 853 z "},"̄":{"ha":0,"x_min":-222,"x_max":222,"o":"m -222 875 l -222 944 l 222 944 l 222 875 l -222 875 z "},"̆":{"ha":0,"x_min":-214,"x_max":214,"o":"m 0 831 q -154 895 -94 831 q -214 1079 -214 960 l -197 1082 q -126 978 -182 1014 q 0 942 -69 942 q 125 978 69 942 q 196 1082 181 1014 l 214 1079 q 154 895 214 960 q 0 831 94 831 z "},"̇":{"ha":0,"x_min":-87,"x_max":90,"o":"m 0 872 q -62 900 -37 872 q -87 967 -87 928 q -62 1034 -87 1007 q 0 1061 -37 1061 q 65 1034 39 1061 q 90 967 90 1007 q 65 900 90 928 q 0 872 39 872 z "},"̈":{"ha":0,"x_min":-208,"x_max":208,"o":"m -121 872 q -183 900 -158 872 q -208 967 -208 928 q -183 1034 -208 1007 q -121 1061 -158 1061 q -56 1034 -82 1061 q -31 967 -31 1007 q -56 900 -31 928 q -121 872 -82 872 m 118 872 q 56 900 81 872 q 31 967 31 928 q 56 1034 31 1007 q 118 1061 81 1061 q 183 1034 157 1061 q 208 967 208 1007 q 183 900 208 928 q 118 872 157 872 z "}}}
